<svg id="Icon_Colour_Account_Profile_Settings" data-name="Icon Colour — Account / Profile Settings" xmlns="http://www.w3.org/2000/svg" width="32" height="32" viewBox="0 0 32 32">
  <g id="Icon_Account_Profile_Settings" data-name="Icon — Account / Profile Settings">
    <rect id="Rectangle_1626" data-name="Rectangle 1626" width="32" height="32" fill="#009bdf" opacity="0"/>
    <path id="Path_4784" data-name="Path 4784" d="M214,19.667a7.346,7.346,0,1,0-3.419-.851A12.367,12.367,0,0,0,202,29.667a.666.666,0,0,0,.667.667h10.667a.667.667,0,0,0,0-1.333h-9.959C203.791,25.411,207.422,19.667,214,19.667Zm-6-7.333a6,6,0,1,1,6,6A6.006,6.006,0,0,1,208,12.333Z" transform="translate(-198 -1.667)" fill="#009bdf"/>
    <path id="Path_4785" data-name="Path 4785" d="M230.379,34.156a1,1,0,1,0,.989,1.011A1,1,0,0,0,230.379,34.156Z" transform="translate(-207.123 -11.385)" fill="#009bdf"/>
    <path id="Path_4786" data-name="Path 4786" d="M232.773,32.632c.012-.127.019-.245.02-.365s0-.237-.011-.365l1.1-.819a.825.825,0,0,0,.23-1.062l-1.239-2.147a.853.853,0,0,0-.751-.428.9.9,0,0,0-.288.047l-1.309.5a5.054,5.054,0,0,0-.641-.373l-.181-1.339a.84.84,0,0,0-.838-.723l-2.519-.029h-.011a.843.843,0,0,0-.845.71l-.211,1.328a5.55,5.55,0,0,0-.646.358l-1.287-.521a.879.879,0,0,0-.322-.061.857.857,0,0,0-.744.421L221,29.857a.819.819,0,0,0,.2,1.077l1.083.846c-.012.127-.019.247-.02.365s0,.237.012.364l-1.1.82a.825.825,0,0,0-.229,1.063l1.239,2.147a.851.851,0,0,0,.749.429.891.891,0,0,0,.289-.049l1.309-.5a5.128,5.128,0,0,0,.641.373l.181,1.339a.839.839,0,0,0,.838.722l2.519.029h.011a.842.842,0,0,0,.845-.71l.211-1.328a5.416,5.416,0,0,0,.647-.357l1.286.521a.9.9,0,0,0,.33.063.845.845,0,0,0,.736-.423l1.279-2.1a.83.83,0,0,0-.2-1.075ZM231.452,32c.006.089.009.171.008.255s-.005.165-.014.253l-.069.728.576.449.725.567-.838,1.377-.917-.371L230.284,35l-.581.372a4.034,4.034,0,0,1-.485.269l-.646.3-.112.7-.145.91-1.7-.019-.123-.912-.1-.707-.641-.313a3.822,3.822,0,0,1-.474-.277l-.573-.391-.649.246-.922.348-.806-1.4.739-.551.587-.437-.053-.729c-.007-.088-.01-.171-.009-.252s.007-.165.015-.253l.07-.728-.577-.45-.725-.567.837-1.377.917.371.641.259.581-.374a4.224,4.224,0,0,1,.49-.272l.64-.3.111-.7.145-.909,1.7.019.124.913.1.707.641.313a3.7,3.7,0,0,1,.473.275l.573.392.65-.247.921-.349.806,1.4-.739.55-.586.436Z" transform="translate(-204.281 -8.508)" fill="#009bdf"/>
  </g>
  <circle id="Ellipse_461" data-name="Ellipse 461" cx="6" cy="6" r="6" transform="translate(10 4.667)" fill="#009bdf" opacity="0.2"/>
  <path id="Path_5267" data-name="Path 5267" d="M757.085-3715.193H745a10.652,10.652,0,0,1,3.5-6.64,10.65,10.65,0,0,1,7.086-2.694,10.717,10.717,0,0,1,4.814,1.147c-.147.076-.3.166-.46.267l-1.286-.521a.883.883,0,0,0-.322-.062.856.856,0,0,0-.744.421l-1.277,2.1a.82.82,0,0,0,.2,1.077l1.083.847c-.012.13-.019.249-.02.365s0,.239.012.363l-1.1.82a.826.826,0,0,0-.228,1.063l.836,1.449Z" transform="translate(-739.584 3742.526)" fill="#009bdf" opacity="0.2"/>
</svg>
