<svg id="Icon_Colour_SIM" data-name="Icon Colour — SIM" xmlns="http://www.w3.org/2000/svg" width="32" height="32" viewBox="0 0 32 32">
  <g id="Icon_SIM" data-name="Icon — SIM">
    <rect id="Transparent_BG" data-name="Transparent BG" width="32" height="32" opacity="0"/>
    <path id="Path_3722" data-name="Path 3722" d="M-86.333,36A.666.666,0,0,1-87,35.333V32.667A.666.666,0,0,1-86.333,32a.666.666,0,0,1,.667.667v2.667A.666.666,0,0,1-86.333,36Z" transform="translate(103.667 -10.667)"/>
    <path id="Path_3723" data-name="Path 3723" d="M-90.333,36A.666.666,0,0,1-91,35.333V32.667A.666.666,0,0,1-90.333,32a.666.666,0,0,1,.667.667v2.667A.666.666,0,0,1-90.333,36Z" transform="translate(105 -10.667)"/>
    <path id="Path_3724" data-name="Path 3724" d="M-86.333,28A.666.666,0,0,1-87,27.333V24.667A.666.666,0,0,1-86.333,24a.666.666,0,0,1,.667.667v2.667A.666.666,0,0,1-86.333,28Z" transform="translate(103.667 -8)"/>
    <path id="Path_3725" data-name="Path 3725" d="M-90.333,28A.666.666,0,0,1-91,27.333V24.667A.666.666,0,0,1-90.333,24a.666.666,0,0,1,.667.667v2.667A.666.666,0,0,1-90.333,28Z" transform="translate(105 -8)"/>
    <path id="Path_3726" data-name="Path 3726" d="M-85,31h-16a2,2,0,0,1-2-2V5a2,2,0,0,1,2-2h11.711a1.344,1.344,0,0,1,.941.389l4.958,4.958A1.324,1.324,0,0,1-83,9.29V29A2,2,0,0,1-85,31ZM-101,4.333a.667.667,0,0,0-.667.667V29a.667.667,0,0,0,.667.667h16A.667.667,0,0,0-84.333,29V9.29L-89.29,4.333Zm11.711,0h0Z" transform="translate(109 -1)"/>
    <path id="Path_3727" data-name="Path 3727" d="M-87.333,33.667H-94a2,2,0,0,1-2-2V25a2,2,0,0,1,2-2h6.667a2,2,0,0,1,2,2v6.667A2,2,0,0,1-87.333,33.667ZM-94,24.333a.667.667,0,0,0-.667.667v6.667a.667.667,0,0,0,.667.667h6.667a.667.667,0,0,0,.667-.667V25a.667.667,0,0,0-.667-.667Z" transform="translate(106.667 -7.667)"/>
    <path id="Path_3778" data-name="Path 3778" d="M-94.047,11.645a.4.4,0,0,1-.095.112.211.211,0,0,1-.125.035.309.309,0,0,1-.159-.052c-.057-.034-.123-.071-.2-.111a1.9,1.9,0,0,0-.261-.112,1.041,1.041,0,0,0-.343-.051.758.758,0,0,0-.521.155.517.517,0,0,0-.173.4.382.382,0,0,0,.095.265.829.829,0,0,0,.25.181,2.313,2.313,0,0,0,.351.137c.132.04.266.084.4.131a3.8,3.8,0,0,1,.4.169,1.392,1.392,0,0,1,.352.243,1.117,1.117,0,0,1,.25.359,1.241,1.241,0,0,1,.095.515,1.67,1.67,0,0,1-.114.619,1.477,1.477,0,0,1-.333.5,1.537,1.537,0,0,1-.535.338,1.977,1.977,0,0,1-.721.123,2.269,2.269,0,0,1-.459-.047,2.7,2.7,0,0,1-.44-.13,2.448,2.448,0,0,1-.4-.2,1.751,1.751,0,0,1-.326-.26l.293-.473a.3.3,0,0,1,.1-.089.247.247,0,0,1,.127-.035.351.351,0,0,1,.19.067c.066.044.143.093.229.147a1.884,1.884,0,0,0,.3.147,1.124,1.124,0,0,0,.411.067.822.822,0,0,0,.541-.16.585.585,0,0,0,.191-.477.445.445,0,0,0-.095-.3.762.762,0,0,0-.248-.19,2,2,0,0,0-.351-.132c-.131-.036-.265-.077-.4-.121a3.438,3.438,0,0,1-.4-.16,1.235,1.235,0,0,1-.349-.247,1.179,1.179,0,0,1-.249-.38,1.462,1.462,0,0,1-.1-.563,1.343,1.343,0,0,1,.107-.523,1.334,1.334,0,0,1,.314-.45,1.556,1.556,0,0,1,.508-.317,1.861,1.861,0,0,1,.692-.12,2.349,2.349,0,0,1,.808.135,1.816,1.816,0,0,1,.628.375Z" transform="translate(107.016 -3.555)"/>
    <path id="Path_3779" data-name="Path 3779" d="M-89.961,15.582h-1.007V10.745h1.007Z" transform="translate(104.989 -3.582)"/>
    <path id="Path_3780" data-name="Path 3780" d="M-82.6,10.745v4.837h-.883v-2.97c0-.062,0-.129.005-.2s.01-.143.018-.217l-1.383,2.623a.371.371,0,0,1-.349.217h-.14a.4.4,0,0,1-.207-.055.388.388,0,0,1-.143-.162l-1.389-2.633c.006.077.012.153.017.225s.007.14.007.2v2.97h-.884V10.745h.761c.042,0,.079,0,.113,0a.307.307,0,0,1,.088.018.2.2,0,0,1,.07.047.361.361,0,0,1,.062.088l1.353,2.58c.043.078.082.158.119.24s.072.167.1.253c.034-.089.069-.175.106-.26s.076-.165.117-.243L-83.7,10.9a.315.315,0,0,1,.063-.088.218.218,0,0,1,.071-.047.307.307,0,0,1,.087-.018c.033,0,.071,0,.115,0Z" transform="translate(103.979 -3.582)"/>
  </g>
  <path id="Path_5274" data-name="Path 5274" d="M762.333-3700.667H745V-3726h12.653l4.68,4.68v20.653ZM749-3713.333V-3704h9.334v-9.333Z" transform="translate(-737.667 3729.333)" opacity="0.2"/>
</svg>
