<svg xmlns="http://www.w3.org/2000/svg" xmlns:xlink="http://www.w3.org/1999/xlink" width="18" height="17" viewBox="0 0 18 17">
    <defs>
        <path id="a" d="M0 .004h16.606V16.34H0z"/>
    </defs>
    <g fill="none" fill-rule="evenodd">
        <g transform="translate(0 .277)">
            <mask id="b" fill="#fff">
                <use xlink:href="#a"/>
            </mask>
            <path fill="#009BDF" d="M12.104 2.717a6.732 6.732 0 0 0-2.581-1.051l.286-1.53a8.32 8.32 0 0 1 3.189 1.297l-.894 1.284zm-6.698-.514L4.724.798A8.39 8.39 0 0 1 7.236.07a8.69 8.69 0 0 1 .842-.066l.045 1.555a6.788 6.788 0 0 0-2.718.643zm-3.01 2.814l-1.39-.743a8.297 8.297 0 0 1 2.24-2.583l.963 1.234a6.713 6.713 0 0 0-1.814 2.092zm13.865 5.49l-1.515-.445a6.462 6.462 0 0 0 .222-2.74l.78-.127.785-.097-.784.097.785-.092a8.035 8.035 0 0 1-.272 3.404zM.074 9.255l-.003-.033H.07A8.068 8.068 0 0 1 .341 5.85l1.516.444a6.492 6.492 0 0 0-.22 2.727l.008.1H.942l-.868.134zm13.273 5.406l-.96-1.236a6.716 6.716 0 0 0 1.818-2.088l1.388.746a8.178 8.178 0 0 1-2.246 2.578zm-11.07-.868a8.08 8.08 0 0 1-1.803-2.897l1.491-.518a6.53 6.53 0 0 0 1.46 2.343l-1.148 1.072zm6.235 2.546l-.04-1.556a6.82 6.82 0 0 0 2.718-.637l.678 1.405a8.395 8.395 0 0 1-3.356.788zm-1.73-.134a8.316 8.316 0 0 1-3.187-1.304l.898-1.282c.781.53 1.649.886 2.578 1.056l-.29 1.53z" mask="url(#b)"/>
        </g>
        <path stroke="#009BDF" stroke-width="1.488" d="M3.164 8.838l3.558 3.5 9.883-9.725"/>
    </g>
</svg>
