<svg xmlns="http://www.w3.org/2000/svg" xmlns:xlink="http://www.w3.org/1999/xlink" width="57" height="17" viewBox="0 0 57 17">
    <defs>
        <path id="a" d="M0 .004h16.606v16.223H0z"/>
    </defs>
    <g fill="none" fill-rule="evenodd">
        <g transform="translate(0 .382)">
            <mask id="b" fill="#fff">
                <use xlink:href="#a"/>
            </mask>
            <path fill="#009ADE" d="M12.104 2.698a6.758 6.758 0 0 0-2.581-1.044l.286-1.52a8.352 8.352 0 0 1 3.189 1.29l-.894 1.274zm-6.698-.51L4.724.791A8.434 8.434 0 0 1 7.236.07c.28-.035.563-.057.842-.065l.045 1.545a6.824 6.824 0 0 0-2.718.639zm-3.01 2.794l-1.39-.738a8.257 8.257 0 0 1 2.24-2.565l.963 1.226a6.68 6.68 0 0 0-1.814 2.077zm13.865 5.453l-1.515-.442a6.379 6.379 0 0 0 .222-2.721l.78-.126.785-.096-.784.096.785-.091c.081.609.093 1.206.04 1.794a7.932 7.932 0 0 1-.313 1.586zM.074 9.192L.071 9.16H.07A7.958 7.958 0 0 1 .341 5.81l1.516.44a6.408 6.408 0 0 0-.22 2.71l.008.099H.942l-.868.133zm13.273 5.368l-.96-1.227a6.683 6.683 0 0 0 1.818-2.074l1.388.741a8.139 8.139 0 0 1-2.246 2.56zm-11.07-.862a8.016 8.016 0 0 1-1.803-2.876l1.491-.515a6.48 6.48 0 0 0 1.46 2.327l-1.148 1.064zm6.235 2.53l-.04-1.546a6.856 6.856 0 0 0 2.718-.633l.678 1.396a8.439 8.439 0 0 1-3.356.783zm-1.73-.134A8.348 8.348 0 0 1 3.595 14.8l.898-1.273c.781.527 1.649.88 2.578 1.049l-.29 1.52z" mask="url(#b)"/>
        </g>
        <path stroke="#009ADE" stroke-width="1.488" d="M3.164 8.884l3.558 3.478 9.883-9.66"/>
    </g>
</svg>
