<?xml version="1.0" encoding="utf-8"?>
<!-- Generator: Adobe Illustrator 16.0.4, SVG Export Plug-In . SVG Version: 6.00 Build 0)  -->
<!DOCTYPE svg PUBLIC "-//W3C//DTD SVG 1.1//EN" "http://www.w3.org/Graphics/SVG/1.1/DTD/svg11.dtd">
<svg version="1.1" id="Ebene_1" xmlns="http://www.w3.org/2000/svg" xmlns:xlink="http://www.w3.org/1999/xlink" x="0px" y="0px"
	 width="137.25px" height="44px" viewBox="0 0 137.25 44" enable-background="new 0 0 137.25 44" xml:space="preserve">
<g>
	<path fill="#D8D8D8" d="M135.695,6.73c0-2.39-1.944-4.334-4.334-4.334H5.893c-2.393,0-4.339,1.944-4.339,4.334v30.543
		c0,2.388,1.946,4.33,4.339,4.33h125.469c2.391,0,4.335-1.942,4.335-4.33L135.695,6.73z M131.361,40.604H5.893
		c-1.841,0-3.339-1.494-3.339-3.33V6.73c0-1.838,1.498-3.334,3.339-3.334h125.469c1.838,0,3.334,1.496,3.334,3.334l0.001,30.543
		C134.696,39.109,133.2,40.604,131.361,40.604z"/>
</g>
<g>
	<g>
		<g>
			<path fill="#D8D8D8" d="M35.044,9.51c0-1.843,1.435-3.071,3.072-3.071c1.229,0,1.843,0.614,2.457,1.229l-0.819,0.409
				c-0.409-0.409-1.023-0.818-1.638-0.818c-1.229,0-2.048,1.023-2.048,2.252c0,1.229,1.023,2.254,2.048,2.254
				c0.614,0,1.023-0.41,1.434-0.41v-1.23h-1.843V9.305h2.866v2.253c-0.409,0.614-1.434,1.024-2.457,1.024
				C36.273,12.582,35.044,11.354,35.044,9.51z"/>
			<path fill="#D8D8D8" d="M42.007,12.377V6.644h4.095v1.023H43.03v1.638h2.867v1.024H43.03v1.638h3.071v0.615L42.007,12.377
				L42.007,12.377z"/>
			<path fill="#D8D8D8" d="M48.969,12.377V7.462h-1.843V6.644h4.709v1.023h-1.843v4.915L48.969,12.377L48.969,12.377L48.969,12.377z
				"/>
			<path fill="#D8D8D8" d="M55.521,12.377V6.644h1.023v6.143L55.521,12.377L55.521,12.377z"/>
			<path fill="#D8D8D8" d="M59.411,12.377V7.462h-1.842V6.644h4.708v1.023h-1.843v4.915L59.411,12.377L59.411,12.377L59.411,12.377z
				"/>
			<path fill="#D8D8D8" d="M65.759,9.51c0-1.843,1.228-3.071,3.07-3.071S71.9,7.667,71.9,9.51c0,1.844-1.229,3.072-3.071,3.072
				S65.759,11.148,65.759,9.51z M70.877,9.51c0-1.229-0.819-2.252-2.048-2.252c-1.228,0-2.047,1.023-2.047,2.252
				c0,1.229,0.819,2.254,2.047,2.254C70.058,11.764,70.877,10.739,70.877,9.51z"/>
			<path fill="#D8D8D8" d="M77.225,12.377l-3.071-4.301v4.301h-1.022V6.644h1.022l3.071,4.3v-4.3h1.024v6.143L77.225,12.377
				L77.225,12.377z"/>
		</g>
	</g>
	<g>
		<path fill="#D8D8D8" d="M12.317,17.291c0,0.205-0.205,0.409-0.205,1.023v17.61c0,0.408,0.205,0.817,0.409,1.022l9.624-9.623
			L12.317,17.291z"/>
		<path fill="#D8D8D8" d="M22.555,26.505l2.866-2.866L13.75,17.291c-0.204-0.205-0.614-0.205-0.614-0.205L22.555,26.505z"/>
		<path fill="#D8D8D8" d="M22.555,27.324l-9.419,9.418c0.205,0,0.41,0,0.614-0.203l11.876-6.553L22.555,27.324z"/>
		<path fill="#D8D8D8" d="M29.722,26.097l-3.891-2.254l-2.867,3.072l2.867,2.867l3.891-2.254
			C30.54,27.324,30.54,26.711,29.722,26.097z"/>
	</g>
	<g>
		<path fill="#D8D8D8" d="M71.287,36.129c-0.615-0.41-1.025-1.229-1.229-1.639l1.843-0.818c0.204,0.204,0.204,0.614,0.615,0.818
			c0.409,0.409,1.022,0.819,1.843,0.819c0.615,0,1.432-0.41,1.843-0.819c0.409-0.614,0.615-1.229,0.615-1.842v-0.615
			c-1.229,1.639-4.097,1.434-5.734-0.204c-1.638-1.843-1.638-4.71,0-6.553c1.638-1.638,4.096-1.843,5.528-0.206l0,0v-0.816h2.048
			v8.395c0,2.251-0.819,3.276-1.842,4.094c-0.615,0.615-1.639,0.819-2.663,0.819C73.131,37.152,72.104,36.742,71.287,36.129
			L71.287,36.129z M118.176,36.539L118.176,36.539l1.843-4.506l-3.276-7.779h1.843l2.457,5.528l2.253-5.528h1.843l-5.119,12.285
			H118.176L118.176,36.539z M109.167,32.239L109.167,32.239c-0.613-0.615-0.819-1.229-0.819-2.049c0-0.614,0.206-1.229,0.614-1.843
			c0.82-0.819,1.844-1.229,3.071-1.229c0.819,0,1.434,0.205,2.049,0.409c0-1.432-1.025-1.843-2.049-1.843
			c-0.818,0-1.637,0.411-1.843,1.229l-1.637-0.615c0.204-0.818,1.229-2.252,3.479-2.252c1.023,0,2.253,0.409,2.866,1.229
			c0.615,0.82,1.024,1.639,1.024,2.867v4.709h-1.842v-0.819c-0.206,0.41-0.615,0.615-1.025,0.819
			c-0.408,0.204-1.023,0.409-1.638,0.409C110.601,33.262,109.782,32.853,109.167,32.239L109.167,32.239z M49.583,28.348
			L49.583,28.348c0-2.251,1.638-4.709,4.709-4.709c2.865,0,4.709,2.458,4.709,4.709c0,2.253-1.844,4.709-4.709,4.709
			C51.221,33.057,49.583,30.601,49.583,28.348L49.583,28.348z M59.614,28.348L59.614,28.348c0-2.251,1.641-4.709,4.711-4.709
			c2.866,0,4.709,2.458,4.709,4.709c0,2.253-1.843,4.709-4.709,4.709S59.614,30.601,59.614,28.348L59.614,28.348z M37.092,30.806
			L37.092,30.806c-2.866-2.866-2.661-7.372,0-10.238c1.434-1.434,3.276-2.048,5.119-2.048s3.481,0.614,4.915,2.048L45.692,22
			c-2.048-2.048-5.324-1.843-7.167,0c-2.047,2.048-2.047,5.324,0,7.372c2.048,2.047,5.324,2.252,7.372,0.204
			c0.614-0.614,0.819-1.637,1.023-2.457h-4.71V25.07h6.554c0,0.411,0.204,1.026,0.204,1.435c0,1.639-0.614,3.277-1.843,4.505
			c-1.229,1.229-3.072,2.047-4.915,1.843C40.368,32.853,38.525,32.239,37.092,30.806L37.092,30.806z M84.187,31.624L84.187,31.624
			c-1.638-1.842-1.638-4.913,0-6.554c1.637-1.842,4.505-1.842,6.143,0c0.614,0.615,0.82,1.435,1.229,2.254l-6.142,2.662
			c0.407,0.819,1.022,1.433,2.25,1.433c1.025,0,1.641-0.409,2.253-1.229l1.639,1.024l0,0c-0.206,0.204-0.408,0.409-0.614,0.614
			C89.102,33.467,85.823,33.467,84.187,31.624L84.187,31.624z M95.857,32.853L95.857,32.853V20.567h3.891
			c2.457,0,4.3,1.638,4.3,3.687c0,2.046-1.638,3.686-3.891,3.686H97.7v4.913H95.857L95.857,32.853z M105.276,32.853L105.276,32.853
			V20.567h1.843v12.285H105.276L105.276,32.853z M80.091,32.648L80.091,32.648v-13.72h2.048v13.72H80.091L80.091,32.648z
			 M114.082,29.167L114.082,29.167c-0.41-0.409-1.229-0.409-1.843-0.409c-1.434,0-2.049,0.614-2.049,1.433
			c0,0.819,0.819,1.229,1.639,1.229C112.853,31.419,114.082,30.601,114.082,29.167L114.082,29.167z M56.749,28.348L56.749,28.348
			c0-1.433-1.022-2.866-2.662-2.866c-1.638,0-2.661,1.434-2.661,2.866c0,1.435,1.228,2.662,2.866,2.662
			C55.929,31.01,56.749,29.576,56.749,28.348L56.749,28.348z M66.986,28.348L66.986,28.348c0-1.433-1.023-2.866-2.661-2.866
			c-1.639,0-2.662,1.434-2.662,2.866c0,1.435,1.023,2.867,2.662,2.867C65.963,31.01,66.986,29.576,66.986,28.348L66.986,28.348z
			 M76.816,29.167L76.816,29.167c0,0,0-0.205,0-0.409l0,0c0-0.204,0-0.41,0-0.41c0-0.204,0-0.408,0-0.408l0,0
			c0-0.206,0-0.206,0-0.411c-0.41-1.023-1.229-1.843-2.458-1.843c-1.434,0-2.458,1.229-2.458,2.868c0,1.637,1.229,2.865,2.458,2.865
			C75.588,31.01,76.406,30.19,76.816,29.167L76.816,29.167z M85.006,28.144L85.006,28.144l4.096-1.844
			c-0.41-0.818-1.024-1.023-1.64-1.023C85.823,25.276,84.801,27.119,85.006,28.144L85.006,28.144z M102,24.254L102,24.254
			c0-1.025-0.819-2.049-2.047-2.049H97.7v3.892h2.457C101.181,26.3,102,25.481,102,24.254z"/>
		<g>
			<path fill="#D8D8D8" d="M119.609,36.539L119.609,36.539L119.609,36.539L119.609,36.539L119.609,36.539L119.609,36.539
				L119.609,36.539L119.609,36.539L119.609,36.539L119.609,36.539L119.609,36.539L119.609,36.539L119.609,36.539z"/>
			<polygon fill="#D8D8D8" points="119.609,36.539 119.609,36.539 119.609,36.539 119.609,36.539 119.609,36.539 119.609,36.539 
				119.609,36.539 119.609,36.539 119.609,36.539 119.609,36.539 119.609,36.539 			"/>
			<polygon fill="#D8D8D8" points="119.609,36.539 119.609,36.539 119.609,36.539 119.609,36.539 119.609,36.539 119.609,36.539 
				119.609,36.539 			"/>
			<path fill="#D8D8D8" d="M119.609,36.539L119.609,36.539L119.609,36.539L119.609,36.539L119.609,36.539L119.609,36.539
				L119.609,36.539L119.609,36.539L119.609,36.539L119.609,36.539L119.609,36.539L119.609,36.539z"/>
			<polygon fill="#D8D8D8" points="119.814,36.539 119.609,36.539 119.609,36.539 119.609,36.539 119.609,36.539 			"/>
			<path fill="#D8D8D8" d="M119.814,36.539L119.814,36.539L119.814,36.539L119.814,36.539L119.814,36.539L119.814,36.539
				L119.814,36.539L119.814,36.539z M119.814,36.539L119.814,36.539L119.814,36.539L119.814,36.539L119.814,36.539L119.814,36.539
				L119.814,36.539L119.814,36.539z"/>
			<path fill="#D8D8D8" d="M119.814,36.539L119.814,36.539L119.814,36.539L119.814,36.539L119.814,36.539L119.814,36.539
				L119.814,36.539L119.814,36.539L119.814,36.539L119.814,36.539L119.814,36.539L119.814,36.539L119.814,36.539L119.814,36.539
				L119.814,36.539L119.814,36.539L119.814,36.539L119.814,36.539z"/>
			<path fill="#D8D8D8" d="M119.814,36.539L119.814,36.539L119.814,36.539L119.814,36.539L119.814,36.539L119.814,36.539
				L119.814,36.539L119.814,36.539z M119.814,36.539L119.814,36.539L119.814,36.539L119.814,36.539L119.814,36.539L119.814,36.539
				L119.814,36.539L119.814,36.539z"/>
			<path fill="#D8D8D8" d="M119.814,36.539L119.814,36.539L119.814,36.539L119.814,36.539L119.814,36.539L119.814,36.539
				L119.814,36.539L119.814,36.539L119.814,36.539L119.814,36.539L119.814,36.539L119.814,36.539L119.814,36.539L119.814,36.539
				L119.814,36.539L119.814,36.539z"/>
			<path fill="#D8D8D8" d="M119.814,36.539L119.814,36.539L119.814,36.539L119.814,36.539L119.814,36.539L119.814,36.539
				L119.814,36.539L119.814,36.539L119.814,36.539L119.814,36.539z M119.814,36.539L119.814,36.539L119.814,36.539L119.814,36.539
				L119.814,36.539L119.814,36.539L119.814,36.539z"/>
			<path fill="#D8D8D8" d="M119.814,36.539L119.814,36.539L119.814,36.539L119.814,36.539L119.814,36.539L119.814,36.539
				L119.814,36.539L119.814,36.539L119.814,36.539L119.814,36.539L119.814,36.539L119.814,36.539L119.814,36.539L119.814,36.539
				L119.814,36.539z"/>
			<polygon fill="#D8D8D8" points="119.814,36.539 119.814,36.539 119.814,36.539 119.814,36.539 119.814,36.539 119.814,36.539 			
				"/>
			<polygon fill="#D8D8D8" points="120.019,36.539 120.019,36.539 120.019,36.539 120.019,36.539 120.019,36.539 120.019,36.539 
				120.019,36.539 120.019,36.539 120.019,36.539 119.814,36.539 119.814,36.539 			"/>
			<path fill="#D8D8D8" d="M120.019,36.539L120.019,36.539L120.019,36.539L120.019,36.539L120.019,36.539L120.019,36.539
				L120.019,36.539L120.019,36.539L120.019,36.539L120.019,36.539L120.019,36.539L120.019,36.539L120.019,36.539z M120.019,36.539
				L120.019,36.539L120.019,36.539L120.019,36.539L120.019,36.539L120.019,36.539L120.019,36.539L120.019,36.539z"/>
		</g>
	</g>
</g>
</svg>
