<?xml version="1.0" encoding="utf-8"?>
<!-- Generator: Adobe Illustrator 16.0.4, SVG Export Plug-In . SVG Version: 6.00 Build 0)  -->
<!DOCTYPE svg PUBLIC "-//W3C//DTD SVG 1.1//EN" "http://www.w3.org/Graphics/SVG/1.1/DTD/svg11.dtd">
<svg version="1.1" id="Ebene_1" xmlns="http://www.w3.org/2000/svg" xmlns:xlink="http://www.w3.org/1999/xlink" x="0px" y="0px"
	 width="137.25px" height="44px" viewBox="0 0 137.25 44" enable-background="new 0 0 137.25 44" xml:space="preserve">
<g>
	<path fill="#D8D8D8" d="M135.695,6.73c0-2.39-1.944-4.334-4.334-4.334H5.893c-2.393,0-4.339,1.944-4.339,4.334v30.543
		c0,2.388,1.946,4.33,4.339,4.33h125.469c2.391,0,4.335-1.942,4.335-4.33L135.695,6.73z M131.361,40.604H5.893
		c-1.841,0-3.339-1.494-3.339-3.33V6.73c0-1.838,1.498-3.334,3.339-3.334h125.469c1.838,0,3.334,1.496,3.334,3.334l0.001,30.543
		C134.696,39.109,133.2,40.604,131.361,40.604z"/>
	<g>
		<g>
			<path fill="#D8D8D8" d="M31.292,21.79c-0.029-3.224,2.639-4.791,2.761-4.864c-1.511-2.203-3.853-2.504-4.676-2.527
				c-1.967-0.207-3.875,1.176-4.877,1.176c-1.022,0-2.565-1.156-4.229-1.123c-2.14,0.033-4.142,1.273-5.239,3.197
				c-2.267,3.922-0.576,9.688,1.595,12.858c1.086,1.554,2.354,3.287,4.016,3.226c1.625-0.066,2.232-1.035,4.193-1.035
				c1.943,0,2.513,1.035,4.207,0.996c1.744-0.027,2.842-1.56,3.89-3.127c1.255-1.779,1.759-3.533,1.779-3.623
				C34.671,26.93,31.325,25.652,31.292,21.79z"/>
			<path fill="#D8D8D8" d="M28.092,12.312c0.874-1.094,1.472-2.58,1.306-4.09c-1.265,0.057-2.847,0.875-3.758,1.944
				c-0.806,0.942-1.525,2.485-1.34,3.938C25.721,14.211,27.18,13.388,28.092,12.312z"/>
		</g>
	</g>
	<g>
		<path fill="#D8D8D8" d="M54.809,33.51h-2.271l-1.244-3.908H46.97l-1.185,3.908h-2.211l4.283-13.309h2.646L54.809,33.51z
			 M50.919,27.961l-1.125-3.475c-0.119-0.355-0.342-1.191-0.671-2.508h-0.04c-0.131,0.566-0.342,1.402-0.632,2.508l-1.105,3.475
			H50.919z"/>
		<path fill="#D8D8D8" d="M65.826,28.594c0,1.633-0.441,2.922-1.323,3.869c-0.79,0.843-1.771,1.264-2.942,1.264
			c-1.264,0-2.172-0.453-2.725-1.361h-0.04v5.055h-2.132V27.072c0-1.025-0.027-2.078-0.079-3.158h1.875l0.119,1.521h0.04
			c0.711-1.146,1.79-1.719,3.238-1.719c1.132,0,2.076,0.447,2.832,1.342C65.448,25.955,65.826,27.133,65.826,28.594z M63.654,28.672
			c0-0.934-0.211-1.704-0.633-2.311c-0.461-0.631-1.08-0.947-1.855-0.947c-0.525,0-1.004,0.176-1.432,0.523
			c-0.428,0.35-0.707,0.807-0.838,1.373c-0.066,0.264-0.1,0.479-0.1,0.649v1.601c0,0.697,0.215,1.286,0.643,1.768
			c0.428,0.48,0.983,0.721,1.668,0.721c0.803,0,1.428-0.311,1.875-0.928C63.43,30.502,63.654,29.686,63.654,28.672z"/>
		<path fill="#D8D8D8" d="M76.863,28.594c0,1.633-0.441,2.922-1.324,3.869c-0.789,0.843-1.77,1.264-2.941,1.264
			c-1.264,0-2.172-0.453-2.724-1.361h-0.04v5.055h-2.132V27.072c0-1.025-0.026-2.078-0.079-3.158h1.875l0.119,1.521h0.04
			c0.71-1.146,1.789-1.719,3.237-1.719c1.131,0,2.076,0.447,2.834,1.342C76.484,25.955,76.863,27.133,76.863,28.594z M74.691,28.672
			c0-0.934-0.211-1.704-0.633-2.311c-0.461-0.631-1.078-0.947-1.855-0.947c-0.527,0-1.004,0.176-1.432,0.523
			c-0.428,0.35-0.707,0.807-0.838,1.373c-0.065,0.264-0.1,0.479-0.1,0.649v1.601c0,0.697,0.214,1.286,0.641,1.768
			c0.428,0.48,0.983,0.721,1.67,0.721c0.803,0,1.428-0.311,1.875-0.928C74.467,30.502,74.691,29.686,74.691,28.672z"/>
		<path fill="#D8D8D8" d="M89.203,29.777c0,1.133-0.393,2.054-1.182,2.765c-0.867,0.776-2.074,1.165-3.625,1.165
			c-1.433,0-2.58-0.276-3.449-0.829l0.494-1.776c0.936,0.565,1.963,0.85,3.082,0.85c0.803,0,1.428-0.182,1.877-0.545
			c0.447-0.361,0.67-0.848,0.67-1.453c0-0.541-0.184-0.995-0.553-1.364c-0.367-0.369-0.98-0.712-1.836-1.028
			c-2.33-0.869-3.494-2.143-3.494-3.816c0-1.094,0.408-1.991,1.225-2.689c0.814-0.699,1.9-1.048,3.258-1.048
			c1.211,0,2.217,0.211,3.02,0.632l-0.532,1.738c-0.75-0.408-1.599-0.612-2.548-0.612c-0.75,0-1.336,0.185-1.756,0.554
			c-0.354,0.328-0.532,0.729-0.532,1.205c0,0.525,0.202,0.961,0.61,1.303c0.355,0.316,1,0.658,1.937,1.027
			c1.146,0.461,1.985,1,2.526,1.617C88.934,28.087,89.203,28.857,89.203,29.777z"/>
		<path fill="#D8D8D8" d="M96.252,25.514h-2.35v4.659c0,1.185,0.414,1.776,1.244,1.776c0.381,0,0.697-0.032,0.947-0.098l0.059,1.618
			c-0.42,0.157-0.973,0.236-1.658,0.236c-0.842,0-1.5-0.257-1.975-0.771c-0.474-0.514-0.711-1.375-0.711-2.586v-4.838h-1.4v-1.6h1.4
			v-1.758l2.094-0.631v2.389h2.35V25.514z"/>
		<path fill="#D8D8D8" d="M106.855,28.633c0,1.475-0.422,2.686-1.264,3.633c-0.884,0.975-2.056,1.461-3.517,1.461
			c-1.408,0-2.529-0.467-3.365-1.4s-1.254-2.113-1.254-3.534c0-1.487,0.431-2.705,1.293-3.652c0.86-0.948,2.022-1.422,3.483-1.422
			c1.408,0,2.541,0.468,3.396,1.401C106.447,26.027,106.855,27.197,106.855,28.633z M104.643,28.701
			c0-0.885-0.188-1.643-0.571-2.276c-0.447-0.767-1.087-1.147-1.914-1.147c-0.856,0-1.509,0.383-1.955,1.147
			c-0.384,0.634-0.572,1.405-0.572,2.317c0,0.885,0.188,1.644,0.572,2.275c0.461,0.766,1.104,1.148,1.937,1.148
			c0.813,0,1.452-0.391,1.914-1.168C104.445,30.354,104.643,29.586,104.643,28.701z"/>
		<path fill="#D8D8D8" d="M113.785,25.789c-0.211-0.039-0.436-0.059-0.672-0.059c-0.75,0-1.33,0.282-1.738,0.85
			c-0.355,0.5-0.533,1.132-0.533,1.895v5.035h-2.131l0.02-6.574c0-1.105-0.026-2.113-0.08-3.021h1.857l0.078,1.836h0.059
			c0.226-0.632,0.58-1.14,1.066-1.521c0.475-0.343,0.988-0.514,1.541-0.514c0.197,0,0.375,0.014,0.533,0.039V25.789z"/>
		<path fill="#D8D8D8" d="M123.32,28.258c0,0.382-0.025,0.704-0.078,0.967h-6.396c0.025,0.948,0.334,1.674,0.928,2.174
			c0.539,0.446,1.236,0.67,2.093,0.67c0.946,0,1.812-0.15,2.588-0.453l0.334,1.479c-0.908,0.396-1.979,0.593-3.218,0.593
			c-1.487,0-2.655-0.438-3.506-1.312c-0.848-0.875-1.272-2.051-1.272-3.523c0-1.447,0.396-2.652,1.187-3.613
			c0.828-1.026,1.947-1.539,3.354-1.539c1.384,0,2.431,0.513,3.142,1.539C123.037,26.053,123.32,27.061,123.32,28.258z
			 M121.287,27.705c0.014-0.633-0.125-1.178-0.414-1.639c-0.369-0.594-0.936-0.89-1.699-0.89c-0.697,0-1.264,0.289-1.697,0.869
			c-0.354,0.461-0.565,1.015-0.631,1.657h4.441V27.705z"/>
	</g>
	<g>
		<g>
			<path fill="#D8D8D8" d="M50.214,12.015c0,1.177-0.354,2.063-1.058,2.658c-0.653,0.549-1.581,0.824-2.783,0.824
				c-0.597,0-1.106-0.026-1.533-0.078V8.988c0.557-0.09,1.157-0.137,1.805-0.137c1.146,0,2.008,0.25,2.59,0.748
				C49.887,10.162,50.214,10.967,50.214,12.015z M49.108,12.044c0-0.763-0.201-1.349-0.605-1.757
				c-0.404-0.406-0.994-0.61-1.771-0.61c-0.33,0-0.61,0.022-0.844,0.067v4.89c0.129,0.021,0.365,0.028,0.708,0.028
				c0.802,0,1.421-0.223,1.857-0.668C48.889,13.548,49.108,12.898,49.108,12.044z"/>
			<path fill="#D8D8D8" d="M56.073,13.043c0,0.725-0.207,1.318-0.621,1.785c-0.435,0.479-1.01,0.718-1.728,0.718
				c-0.691,0-1.243-0.229-1.653-0.688s-0.615-1.039-0.615-1.736c0-0.73,0.211-1.329,0.635-1.795
				c0.424-0.465,0.994-0.697,1.712-0.697c0.692,0,1.248,0.229,1.67,0.688C55.872,11.763,56.073,12.339,56.073,13.043z
				 M54.986,13.076c0-0.434-0.094-0.807-0.281-1.118c-0.221-0.376-0.533-0.563-0.94-0.563c-0.421,0-0.741,0.188-0.961,0.563
				c-0.188,0.312-0.281,0.69-0.281,1.138c0,0.436,0.095,0.809,0.281,1.119c0.228,0.376,0.543,0.564,0.951,0.564
				c0.4,0,0.714-0.191,0.94-0.574C54.889,13.888,54.986,13.512,54.986,13.076z"/>
			<path fill="#D8D8D8" d="M63.93,10.725l-1.476,4.715h-0.96l-0.611-2.047c-0.154-0.512-0.281-1.02-0.379-1.523h-0.02
				c-0.09,0.518-0.217,1.025-0.379,1.523l-0.648,2.047h-0.971L57.1,10.725h1.076l0.533,2.241c0.129,0.53,0.234,1.035,0.32,1.513
				h0.019c0.078-0.394,0.207-0.896,0.39-1.502l0.668-2.25h0.854l0.642,2.201c0.154,0.537,0.28,1.055,0.377,1.553h0.029
				c0.071-0.486,0.178-1.002,0.32-1.553l0.572-2.201h1.029V10.725z"/>
			<path fill="#D8D8D8" d="M69.361,15.439h-1.047v-2.701c0-0.832-0.316-1.248-0.95-1.248c-0.312,0-0.562,0.115-0.757,0.344
				c-0.193,0.229-0.291,0.499-0.291,0.809v2.795h-1.049v-3.365c0-0.414-0.013-0.863-0.037-1.35h0.92l0.05,0.737h0.028
				c0.123-0.229,0.305-0.418,0.543-0.569c0.285-0.176,0.603-0.265,0.951-0.265c0.439,0,0.805,0.142,1.096,0.427
				c0.363,0.35,0.543,0.87,0.543,1.562V15.439z"/>
			<path fill="#D8D8D8" d="M72.252,15.439h-1.047V8.562h1.047V15.439z"/>
			<path fill="#D8D8D8" d="M78.422,13.043c0,0.725-0.207,1.318-0.621,1.785c-0.434,0.479-1.01,0.718-1.727,0.718
				c-0.693,0-1.244-0.229-1.654-0.688s-0.615-1.039-0.615-1.736c0-0.73,0.211-1.329,0.635-1.795
				c0.425-0.465,0.994-0.697,1.711-0.697c0.693,0,1.248,0.229,1.671,0.688C78.221,11.763,78.422,12.339,78.422,13.043z
				 M77.334,13.076c0-0.434-0.094-0.807-0.281-1.118c-0.219-0.376-0.533-0.563-0.938-0.563c-0.423,0-0.742,0.188-0.962,0.563
				c-0.188,0.312-0.28,0.69-0.28,1.138c0,0.436,0.095,0.809,0.28,1.119c0.228,0.376,0.544,0.564,0.951,0.564
				c0.4,0,0.713-0.191,0.939-0.574C77.238,13.888,77.334,13.512,77.334,13.076z"/>
			<path fill="#D8D8D8" d="M83.494,15.439h-0.941l-0.078-0.543h-0.028c-0.322,0.432-0.781,0.649-1.378,0.649
				c-0.444,0-0.805-0.144-1.075-0.427c-0.246-0.258-0.369-0.579-0.369-0.961c0-0.575,0.24-1.014,0.724-1.318
				c0.481-0.305,1.159-0.453,2.032-0.445v-0.089c0-0.62-0.325-0.931-0.979-0.931c-0.465,0-0.875,0.117-1.229,0.35l-0.213-0.689
				c0.438-0.271,0.979-0.406,1.617-0.406c1.232,0,1.85,0.65,1.85,1.949v1.736C83.426,14.785,83.449,15.16,83.494,15.439z
				 M82.406,13.818v-0.727c-1.156-0.02-1.734,0.297-1.734,0.95c0,0.245,0.066,0.43,0.201,0.553s0.307,0.185,0.512,0.185
				c0.23,0,0.445-0.073,0.641-0.219c0.197-0.146,0.318-0.33,0.363-0.558C82.4,13.951,82.406,13.89,82.406,13.818z"/>
			<path fill="#D8D8D8" d="M89.449,15.439h-0.93l-0.049-0.758h-0.029c-0.297,0.576-0.803,0.864-1.514,0.864
				c-0.568,0-1.041-0.224-1.416-0.669c-0.375-0.446-0.562-1.025-0.562-1.736c0-0.763,0.203-1.381,0.611-1.854
				c0.395-0.439,0.879-0.659,1.455-0.659c0.633,0,1.076,0.213,1.328,0.64h0.02V8.562h1.049v5.606
				C89.412,14.628,89.424,15.051,89.449,15.439z M88.363,13.451v-0.786c0-0.136-0.01-0.246-0.029-0.33
				c-0.059-0.252-0.186-0.464-0.379-0.636c-0.195-0.17-0.43-0.256-0.701-0.256c-0.391,0-0.697,0.154-0.922,0.465
				c-0.223,0.312-0.336,0.709-0.336,1.193c0,0.467,0.107,0.844,0.322,1.135c0.227,0.311,0.533,0.465,0.916,0.465
				c0.344,0,0.619-0.129,0.828-0.387C88.264,14.074,88.363,13.787,88.363,13.451z"/>
			<path fill="#D8D8D8" d="M98.412,13.043c0,0.725-0.207,1.318-0.621,1.785c-0.434,0.479-1.008,0.718-1.727,0.718
				c-0.691,0-1.242-0.229-1.654-0.688c-0.41-0.459-0.615-1.039-0.615-1.736c0-0.73,0.211-1.329,0.635-1.795
				c0.424-0.465,0.994-0.697,1.713-0.697c0.691,0,1.248,0.229,1.668,0.688C98.211,11.763,98.412,12.339,98.412,13.043z
				 M97.326,13.076c0-0.434-0.094-0.807-0.281-1.118c-0.221-0.376-0.533-0.563-0.941-0.563c-0.42,0-0.739,0.188-0.961,0.563
				c-0.188,0.312-0.28,0.69-0.28,1.138c0,0.436,0.094,0.809,0.28,1.119c0.228,0.376,0.543,0.564,0.951,0.564
				c0.4,0,0.715-0.191,0.941-0.574C97.229,13.888,97.326,13.512,97.326,13.076z"/>
			<path fill="#D8D8D8" d="M104.047,15.439H103v-2.701c0-0.832-0.316-1.248-0.951-1.248c-0.311,0-0.562,0.115-0.756,0.344
				c-0.193,0.229-0.291,0.499-0.291,0.809v2.795h-1.049v-3.365c0-0.414-0.012-0.863-0.037-1.35h0.92l0.049,0.737h0.029
				c0.123-0.229,0.305-0.418,0.543-0.569c0.285-0.176,0.602-0.265,0.951-0.265c0.439,0,0.805,0.142,1.096,0.427
				c0.363,0.35,0.543,0.87,0.543,1.562V15.439z"/>
			<path fill="#D8D8D8" d="M111.1,11.51h-1.153v2.29c0,0.582,0.204,0.873,0.61,0.873c0.188,0,0.344-0.017,0.467-0.049l0.027,0.795
				c-0.207,0.078-0.479,0.116-0.814,0.116c-0.413,0-0.735-0.125-0.969-0.377s-0.35-0.676-0.35-1.271V11.51h-0.689v-0.785h0.689
				V9.861l1.027-0.311v1.174h1.154V11.51L111.1,11.51z"/>
			<path fill="#D8D8D8" d="M116.648,15.439H115.6v-2.681c0-0.845-0.316-1.269-0.949-1.269c-0.486,0-0.818,0.246-1,0.736
				c-0.031,0.102-0.049,0.229-0.049,0.377v2.834h-1.047V8.562h1.047v2.84h0.02c0.33-0.517,0.803-0.774,1.416-0.774
				c0.434,0,0.793,0.142,1.078,0.427c0.355,0.355,0.533,0.883,0.533,1.581V15.439L116.648,15.439z"/>
			<path fill="#D8D8D8" d="M122.371,12.859c0,0.188-0.014,0.346-0.039,0.475h-3.143c0.014,0.466,0.164,0.82,0.455,1.066
				c0.266,0.221,0.608,0.33,1.028,0.33c0.466,0,0.89-0.074,1.271-0.223l0.164,0.729c-0.446,0.193-0.973,0.291-1.582,0.291
				c-0.729,0-1.305-0.215-1.721-0.646c-0.418-0.431-0.625-1.007-0.625-1.731c0-0.711,0.193-1.303,0.582-1.774
				c0.406-0.504,0.955-0.757,1.648-0.757c0.678,0,1.193,0.253,1.541,0.757C122.232,11.775,122.371,12.271,122.371,12.859z
				 M121.371,12.588c0.008-0.311-0.061-0.579-0.203-0.805c-0.182-0.291-0.459-0.438-0.834-0.438c-0.342,0-0.621,0.143-0.834,0.428
				c-0.174,0.227-0.277,0.498-0.311,0.814H121.371z"/>
		</g>
	</g>
</g>
</svg>
