<svg id="Icon_Privileges" data-name="Icon — Privileges" xmlns="http://www.w3.org/2000/svg" width="39" height="39" viewBox="0 0 39 39">
  <rect id="Rectangle_1631" data-name="Rectangle 1631" width="39" height="39" fill="#fdb934" opacity="0"/>
  <path id="Path_4810" data-name="Path 4810" d="M-175.332,5.817l.011.007,3.193,6.47a3.262,3.262,0,0,0,2.457,1.785l7.147,1.059-5.167,5.037a3.262,3.262,0,0,0-.938,2.888l1.2,7.125-6.386-3.357a3.276,3.276,0,0,0-1.519-.375,3.285,3.285,0,0,0-1.519.375l-6.4,3.344,1.22-7.111a3.262,3.262,0,0,0-.938-2.888l-5.159-5.058,7.139-1.038a3.263,3.263,0,0,0,2.457-1.785l3.191-6.476.014,0m0-1.625a1.618,1.618,0,0,0-1.468.913l-3.194,6.47a1.635,1.635,0,0,1-1.233.9l-7.14,1.038a1.638,1.638,0,0,0-.908,2.793l5.167,5.037a1.638,1.638,0,0,1,.471,1.45l-1.22,7.111a1.642,1.642,0,0,0,1.614,1.918,1.635,1.635,0,0,0,.762-.192l6.386-3.357a1.633,1.633,0,0,1,.762-.189,1.632,1.632,0,0,1,.762.189l6.386,3.357a1.633,1.633,0,0,0,.762.192,1.642,1.642,0,0,0,1.614-1.918l-1.22-7.111a1.638,1.638,0,0,1,.471-1.45l5.167-5.037a1.638,1.638,0,0,0-.908-2.793l-7.14-1.038a1.635,1.635,0,0,1-1.233-.9l-3.194-6.47a1.618,1.618,0,0,0-1.468-.913Z" transform="translate(194.832 -0.942)" fill="#fdb934"/>
  <path id="Path_4811" data-name="Path 4811" d="M-172,22.773" transform="translate(191.5 -4.426)" fill="#fdb934" stroke="#000" stroke-linecap="round" stroke-linejoin="round" stroke-width="2"/>
  <path id="Path_4812" data-name="Path 4812" d="M-161.919,8.728a.807.807,0,0,1-.477-.155.813.813,0,0,1-.18-1.135l1.692-2.33a.811.811,0,0,1,1.135-.18.813.813,0,0,1,.18,1.135l-1.692,2.331A.813.813,0,0,1-161.919,8.728Z" transform="translate(189.762 -1.051)" fill="#fdb934"/>
  <path id="Path_4813" data-name="Path 4813" d="M-182.846,8.728a.813.813,0,0,1-.658-.335L-185.2,6.062a.813.813,0,0,1,.18-1.135.812.812,0,0,1,1.135.18l1.692,2.33a.813.813,0,0,1-.18,1.135A.807.807,0,0,1-182.846,8.728Z" transform="translate(194.004 -1.051)" fill="#fdb934"/>
  <path id="Path_4814" data-name="Path 4814" d="M-192.188,29.692a.813.813,0,0,1-.773-.561.813.813,0,0,1,.522-1.024l2.727-.886a.814.814,0,0,1,1.024.522.813.813,0,0,1-.522,1.024l-2.726.886A.817.817,0,0,1-192.188,29.692Z" transform="translate(195.438 -5.253)" fill="#fdb934"/>
  <path id="Path_4815" data-name="Path 4815" d="M-172.187,43.773a.812.812,0,0,1-.812-.812V40.1a.812.812,0,0,1,.813-.812.812.812,0,0,1,.813.813v2.858A.812.812,0,0,1-172.187,43.773Z" transform="translate(191.688 -7.523)" fill="#fdb934"/>
  <path id="Path_4816" data-name="Path 4816" d="M-172,22.29" transform="translate(191.5 -4.336)" fill="#fdb934" stroke="#000" stroke-linecap="round" stroke-linejoin="round" stroke-width="2"/>
  <path id="Path_4817" data-name="Path 4817" d="M-152.817,29.692a.817.817,0,0,1-.251-.039l-2.726-.886a.813.813,0,0,1-.522-1.024.814.814,0,0,1,1.024-.522l2.727.886a.813.813,0,0,1,.522,1.024A.813.813,0,0,1-152.817,29.692Z" transform="translate(188.567 -5.253)" fill="#fdb934"/>
</svg>
