<svg xmlns="http://www.w3.org/2000/svg" xmlns:xlink="http://www.w3.org/1999/xlink" width="9" height="9" viewBox="0 0 9 9">
    <defs>
        <path id="a" d="M0 .087h8.913V9H0z"/>
    </defs>
    <g fill="none" fill-rule="evenodd">
        <g>
            <mask id="b" fill="#fff">
                <use xlink:href="#a"/>
            </mask>
            <path fill="#000" d="M4.457 8.415A3.876 3.876 0 0 1 .585 4.543 3.876 3.876 0 0 1 4.457.672a3.876 3.876 0 0 1 3.871 3.871 3.876 3.876 0 0 1-3.871 3.872m0-8.328C1.999.087 0 2.087 0 4.543 0 7.001 2 9 4.457 9s4.456-2 4.456-4.457-2-4.456-4.456-4.456" mask="url(#b)"/>
        </g>
        <path fill="#000" d="M4.33 6.15c-1.087 0-1.507-.828-1.513-1.622-.007-.802.452-1.665 1.513-1.665.383 0 .772.144 1.06.452l.553-.582C5.491 2.247 4.926 2 4.33 2 2.74 2 1.994 3.274 2 4.528 2.006 5.774 2.697 7 4.33 7c.634 0 1.218-.226 1.67-.712l-.565-.624a1.55 1.55 0 0 1-1.105.487"/>
    </g>
</svg>
