<svg xmlns="http://www.w3.org/2000/svg" xmlns:xlink="http://www.w3.org/1999/xlink" width="48" height="48" viewBox="0 0 48 48">
    <defs>
        <path id="a" d="M41.042 32h-1.303A4.499 4.499 0 0 0 36 30a4.499 4.499 0 0 0-3.738 2H31V18.917h4.172l5.87 5.869V32zM36 36c-.827 0-1.5-.673-1.5-1.5S35.173 33 36 33a1.501 1.501 0 0 1 0 3zm-15 0c-.827 0-1.5-.673-1.5-1.5S20.173 33 21 33a1.501 1.501 0 0 1 0 3zm24.042-12.87V36h-4.818c-.621 1.742-2.27 3-4.224 3-1.953 0-3.602-1.258-4.223-3h-6.553c-.621 1.742-2.27 3-4.224 3-1.953 0-3.602-1.258-4.223-3h-5.693v-8h4v4h2.178A4.499 4.499 0 0 1 21 30c1.557 0 2.93.795 3.739 2H27V13H2V9h29v5.917h5.829l8.213 8.213zM5.001 19v-3h15v3H5zm4 6v-3h10v3H9z"/>
    </defs>
    <g fill="none" fill-rule="evenodd">
        <mask id="b" fill="#fff">
            <use xlink:href="#a"/>
        </mask>
        <use fill="#fff" xlink:href="#a"/>
        <g fill="#009ade" mask="url(#b)">
            <path d="M0 0h48v48H0z"/>
        </g>
    </g>
</svg>
