<svg xmlns="http://www.w3.org/2000/svg" xmlns:xlink="http://www.w3.org/1999/xlink" width="20" height="20" viewBox="0 0 20 20">
    <defs>
        <path id="a" d="M9.674 0a9.63 9.63 0 0 1 6.582 2.599l-1.305 1.305a7.792 7.792 0 0 0-5.277-2.061c-4.318 0-7.831 3.513-7.831 7.831 0 4.319 3.513 7.832 7.831 7.832 4.319 0 7.832-3.513 7.832-7.832 0-.661-.091-1.3-.247-1.915l1.5-1.386c.374 1.031.59 2.14.59 3.301 0 5.343-4.332 9.674-9.675 9.674C4.332 19.348 0 15.018 0 9.674 0 4.331 4.332 0 9.674 0zm9.023 2.113L20 3.415 7.832 15.585l-4.798-4.799 1.303-1.303 3.495 3.495L18.697 2.113z"/>
    </defs>
    <use fill="#4BAE50" fill-rule="evenodd" xlink:href="#a"/>
</svg>
