<svg id="Icon_Expressive_Device" data-name="Icon Expressive —  Device" xmlns="http://www.w3.org/2000/svg" width="80" height="80" viewBox="0 0 80 80">
  <rect id="Rectangle_2321" data-name="Rectangle 2321" width="80" height="80" fill="#f4f4f4" opacity="0.001"/>
  <path id="Path_5571" data-name="Path 5571" d="M20.985,0H2.469A2.476,2.476,0,0,0,0,2.469V14.2a2.476,2.476,0,0,0,2.469,2.469H6.851a2.192,2.192,0,0,1,.555.247L11.789,20a.4.4,0,0,0,.555-.123V16.664h8.641A2.476,2.476,0,0,0,23.454,14.2V2.469A2.476,2.476,0,0,0,20.985,0Z" transform="translate(15.145 4.366) rotate(14)" fill="#82cdef"/>
  <path id="Path_5568" data-name="Path 5568" d="M-126.809,89.148l-1.353-10.317-.063-.6-.6-.22a39.042,39.042,0,0,0-12.047-2.076,39.036,39.036,0,0,0-12.047,2.076l-.6.22-.063.6-1.353,10.317a5.277,5.277,0,0,0,4.53,5.882,5.194,5.194,0,0,0,5.662-3.995H-137a5.2,5.2,0,0,0,5.662,3.995A5.278,5.278,0,0,0-126.809,89.148ZM-144.9,84.5h-1.679v1.679a.672.672,0,0,1-.672.672.672.672,0,0,1-.672-.672V84.5H-149.6a.672.672,0,0,1-.672-.672.671.671,0,0,1,.672-.672h1.679V81.475a.671.671,0,0,1,.672-.672.671.671,0,0,1,.672.672v1.679h1.679a.671.671,0,0,1,.672.672A.672.672,0,0,1-144.9,84.5Zm9.738-3.694a1.007,1.007,0,0,1,1.007,1.007,1.008,1.008,0,0,1-1.007,1.007,1.007,1.007,0,0,1-1.007-1.007A1.007,1.007,0,0,1-135.161,80.8Zm-2.015,4.029a1.007,1.007,0,0,1-1.007-1.007,1.007,1.007,0,0,1,1.007-1.007,1.007,1.007,0,0,1,1.007,1.007A1.008,1.008,0,0,1-137.176,84.833Zm2.015,2.015a1.007,1.007,0,0,1-1.007-1.007,1.007,1.007,0,0,1,1.007-1.007,1.007,1.007,0,0,1,1.007,1.007A1.008,1.008,0,0,1-135.161,86.848Zm2.015-2.015a1.007,1.007,0,0,1-1.007-1.007,1.007,1.007,0,0,1,1.007-1.007,1.007,1.007,0,0,1,1.007,1.007A1.008,1.008,0,0,1-133.146,84.833Z" transform="matrix(0.899, 0.438, -0.438, 0.899, 225.872, 24.505)" fill="#82cdef"/>
  <path id="Path_5569" data-name="Path 5569" d="M66.531,77.932a3.966,3.966,0,0,0-3.349-3.187,61.123,61.123,0,0,0-18.275,0,3.965,3.965,0,0,0-3.348,3.187,35.507,35.507,0,0,0,0,12.245,3.959,3.959,0,0,0,3.348,3.186,64.791,64.791,0,0,0,9.138.687,64.788,64.788,0,0,0,9.137-.687,3.96,3.96,0,0,0,3.349-3.186,34.135,34.135,0,0,0,.532-6.123A33.73,33.73,0,0,0,66.531,77.932Zm-8.409,7-7.01,4-1.5.844V78.338l1.5.843,7.01,4,1.5.875Z" transform="matrix(0.921, -0.391, 0.391, 0.921, -61.965, -9.729)" fill="#82cdef"/>
  <g id="Icon_Device_Phone" data-name="Icon — Device / Phone" transform="translate(16 16)">
    <rect id="Rectangle_1027" data-name="Rectangle 1027" width="48" height="48" fill="#fff" opacity="0"/>
    <path id="Path_4031" data-name="Path 4031" d="M371-107a1,1,0,0,1,1,1v36a1,1,0,0,1-1,1H349a1,1,0,0,1-1-1v-36a1,1,0,0,1,1-1h22m0-2H349a3,3,0,0,0-3,3v36a3,3,0,0,0,3,3h22a3,3,0,0,0,3-3v-36a3,3,0,0,0-3-3Z" transform="translate(-336 112)" fill="#333"/>
    <path id="Path_4032" data-name="Path 4032" d="M363-103h-6a1,1,0,0,1-1-1,1,1,0,0,1,1-1h6a1,1,0,0,1,1,1A1,1,0,0,1,363-103Z" transform="translate(-336 112)" fill="#333"/>
  </g>
</svg>
