<svg id="Icon_Expressive_SIM" data-name="Icon Expressive —  SIM" xmlns="http://www.w3.org/2000/svg" width="80" height="80" viewBox="0 0 80 80">
  <rect id="Rectangle_1623" data-name="Rectangle 1623" width="80" height="80" fill="none"/>
  <path id="Path_4413" data-name="Path 4413" d="M22.977,5.35H47.753l-27.224,50H-4.247Z" transform="translate(18.247 9.649)" fill="#80cdef"/>
  <g id="Icon_SIM" data-name="Icon — SIM" transform="translate(16 16)">
    <rect id="Transparent_BG" data-name="Transparent BG" width="48" height="48" fill="#333" opacity="0"/>
    <path id="Path_3722" data-name="Path 3722" d="M-86,38a1,1,0,0,1-1-1V33a1,1,0,0,1,1-1,1,1,0,0,1,1,1v4A1,1,0,0,1-86,38Z" transform="translate(112)" fill="#333"/>
    <path id="Path_3723" data-name="Path 3723" d="M-90,38a1,1,0,0,1-1-1V33a1,1,0,0,1,1-1,1,1,0,0,1,1,1v4A1,1,0,0,1-90,38Z" transform="translate(112)" fill="#333"/>
    <path id="Path_3724" data-name="Path 3724" d="M-86,30a1,1,0,0,1-1-1V25a1,1,0,0,1,1-1,1,1,0,0,1,1,1v4A1,1,0,0,1-86,30Z" transform="translate(112)" fill="#333"/>
    <path id="Path_3725" data-name="Path 3725" d="M-90,30a1,1,0,0,1-1-1V25a1,1,0,0,1,1-1,1,1,0,0,1,1,1v4A1,1,0,0,1-90,30Z" transform="translate(112)" fill="#333"/>
    <path id="Path_3726" data-name="Path 3726" d="M-76,45h-24a3,3,0,0,1-3-3V6a3,3,0,0,1,3-3h17.566a2.016,2.016,0,0,1,1.412.584l7.437,7.437A1.986,1.986,0,0,1-73,12.435V42A3,3,0,0,1-76,45ZM-100,5a1,1,0,0,0-1,1V42a1,1,0,0,0,1,1h24a1,1,0,0,0,1-1V12.435L-82.435,5Zm17.566,0h0Z" transform="translate(112)" fill="#333"/>
    <path id="Path_3727" data-name="Path 3727" d="M-83,39H-93a3,3,0,0,1-3-3V26a3,3,0,0,1,3-3h10a3,3,0,0,1,3,3V36A3,3,0,0,1-83,39ZM-93,25a1,1,0,0,0-1,1V36a1,1,0,0,0,1,1h10a1,1,0,0,0,1-1V26a1,1,0,0,0-1-1Z" transform="translate(112)" fill="#333"/>
    <path id="Path_3778" data-name="Path 3778" d="M-92.547,12.135a.593.593,0,0,1-.142.168.316.316,0,0,1-.188.052.463.463,0,0,1-.238-.078c-.085-.051-.184-.107-.3-.167a2.848,2.848,0,0,0-.391-.168,1.562,1.562,0,0,0-.514-.077,1.137,1.137,0,0,0-.781.233.776.776,0,0,0-.259.607.573.573,0,0,0,.142.4,1.243,1.243,0,0,0,.375.272,3.47,3.47,0,0,0,.527.2c.2.06.4.126.606.2a5.705,5.705,0,0,1,.6.253,2.088,2.088,0,0,1,.528.365,1.675,1.675,0,0,1,.375.538,1.861,1.861,0,0,1,.142.772,2.5,2.5,0,0,1-.171.928,2.216,2.216,0,0,1-.5.755,2.306,2.306,0,0,1-.8.507,2.965,2.965,0,0,1-1.082.185,3.4,3.4,0,0,1-.688-.07,4.049,4.049,0,0,1-.66-.195,3.673,3.673,0,0,1-.6-.3,2.627,2.627,0,0,1-.489-.39l.44-.71a.442.442,0,0,1,.145-.133.37.37,0,0,1,.19-.052.526.526,0,0,1,.285.1c.1.066.215.14.344.22a2.826,2.826,0,0,0,.454.22,1.687,1.687,0,0,0,.617.1,1.233,1.233,0,0,0,.812-.24.878.878,0,0,0,.287-.715.668.668,0,0,0-.142-.445,1.143,1.143,0,0,0-.372-.285,3,3,0,0,0-.526-.2c-.2-.054-.4-.115-.6-.182a5.157,5.157,0,0,1-.606-.24,1.852,1.852,0,0,1-.524-.37,1.768,1.768,0,0,1-.373-.57,2.193,2.193,0,0,1-.143-.845,2.015,2.015,0,0,1,.16-.785,2,2,0,0,1,.471-.675,2.334,2.334,0,0,1,.762-.475,2.791,2.791,0,0,1,1.038-.18,3.523,3.523,0,0,1,1.212.2,2.723,2.723,0,0,1,.942.563Z" transform="translate(112)" fill="#333"/>
    <path id="Path_3779" data-name="Path 3779" d="M-89.458,18h-1.51V10.745h1.51Z" transform="translate(112)" fill="#333"/>
    <path id="Path_3780" data-name="Path 3780" d="M-79.938,10.745V18h-1.325V13.545c0-.093,0-.193.008-.3s.015-.215.027-.325L-83.3,16.855a.557.557,0,0,1-.524.325h-.21a.6.6,0,0,1-.311-.082.582.582,0,0,1-.215-.243l-2.084-3.95c.009.116.018.229.025.337s.01.21.01.3V18h-1.326V10.745H-86.8c.063,0,.119,0,.17.005a.46.46,0,0,1,.132.027.3.3,0,0,1,.105.071.541.541,0,0,1,.093.132l2.029,3.87c.064.117.123.237.178.36s.108.25.157.38c.051-.133.1-.263.159-.39s.114-.248.176-.365l2.016-3.855a.473.473,0,0,1,.1-.132.328.328,0,0,1,.107-.071.46.46,0,0,1,.13-.027c.049,0,.106-.005.173-.005Z" transform="translate(112)" fill="#333"/>
  </g>
</svg>
