<svg id="Icon_Plus" data-name="Icon — Plus" xmlns="http://www.w3.org/2000/svg" width="32" height="32" viewBox="0 0 32 32">
  <rect id="Transparent_BG" data-name="Transparent BG" width="32" height="32" fill="#333" opacity="0"/>
  <path id="Path_3224" data-name="Path 3224" d="M-309.667-269.2h-26.667a.667.667,0,0,1-.667-.667.666.666,0,0,1,.667-.667h26.667a.666.666,0,0,1,.667.667A.667.667,0,0,1-309.667-269.2Z" transform="translate(339 285.863)" fill="#333"/>
  <path id="Path_3225" data-name="Path 3225" d="M-316.334-262.529A.666.666,0,0,1-317-263.2v-26.667a.666.666,0,0,1,.667-.667.667.667,0,0,1,.667.667V-263.2A.667.667,0,0,1-316.334-262.529Z" transform="translate(332.334 292.529)" fill="#333"/>
</svg>
