<svg xmlns="http://www.w3.org/2000/svg" xmlns:xlink="http://www.w3.org/1999/xlink" width="23" height="31" viewBox="0 0 23 31">
    <defs>
        <path id="a" d="M0 36h36V0H0z"/>
    </defs>
    <g fill="none" fill-rule="evenodd" transform="translate(-6 -2)">
        <path fill="#020303" d="M13.375 27.607v-1.393h1.833v-1.393h-1.833v-.417h1.833V23.01h-1.833v-.975h1.833v-1.393h-1.833v-.418h1.833v-1.392h-1.833v-1.44h8.25v1.44h-1.833v1.392h1.833v.418h-1.833v1.393h1.833v.975h-1.833v1.393h1.833v.417h-1.833v1.393h1.833v1.393h-8.25zM21.625 16h-8.25c-.76 0-1.375.624-1.375 1.394v10.213c0 .77.615 1.393 1.375 1.393h8.25c.759 0 1.375-.623 1.375-1.393V17.394c0-.77-.616-1.394-1.375-1.394zM15.491 14.101a.83.83 0 0 1-.345-.064 1.464 1.464 0 0 1-.256-.14l-.203-.143a.318.318 0 0 0-.177-.064.24.24 0 0 0-.126.039.307.307 0 0 0-.09.1l-.294.525c.09.101.19.19.298.264a2.258 2.258 0 0 0 .76.337c.133.03.268.045.403.045.221.005.44-.037.649-.124.179-.076.342-.195.48-.348.128-.14.229-.309.298-.496.073-.2.11-.414.112-.63a1.436 1.436 0 0 0-.126-.547 1.195 1.195 0 0 0-.211-.368c-.09-.1-.194-.184-.307-.248a3.212 3.212 0 0 0-.346-.168l-.35-.13a2.227 2.227 0 0 1-.303-.129.698.698 0 0 1-.216-.168.365.365 0 0 1-.082-.244.493.493 0 0 1 .134-.367.55.55 0 0 1 .433-.14.74.74 0 0 1 .284.05c.078.03.153.067.225.11l.19.114c.043.031.092.048.143.05a.208.208 0 0 0 .125-.04.555.555 0 0 0 .092-.124l.26-.532a1.465 1.465 0 0 0-.26-.213 2.008 2.008 0 0 0-.312-.168 2.055 2.055 0 0 0-.35-.105 2.32 2.32 0 0 0-.385-.035 1.543 1.543 0 0 0-.623.124 1.371 1.371 0 0 0-.739.795c-.064.169-.098.35-.099.536a1.83 1.83 0 0 0 .082.576c.05.145.123.278.216.392.087.102.19.186.303.248a2.5 2.5 0 0 0 .345.165l.351.119c.104.03.205.071.303.124.082.039.154.1.211.179a.425.425 0 0 1 .082.277.57.57 0 0 1-.146.432.598.598 0 0 1-.433.134"/>
        <mask id="b" fill="#fff">
            <use xlink:href="#a"/>
        </mask>
        <path fill="#020303" d="M17 15h1v-5h-1zM20.06 10.065a.247.247 0 0 0-.072-.05.259.259 0 0 0-.09 0H19V15h.898v-3.316l1.175 2.564a.423.423 0 0 0 .144.182c.065.04.137.061.211.06h.144c.074.001.146-.02.21-.06a.421.421 0 0 0 .144-.182l1.176-2.559v3.295H24v-4.97l-.036-.01h-.897a.263.263 0 0 0-.091 0 .234.234 0 0 0-.071.05.51.51 0 0 0-.058.101l-1.136 2.523c-.046.088-.087.18-.12.273l-.11.292-.107-.287a4.49 4.49 0 0 0-.116-.268l-1.14-2.522a.66.66 0 0 0-.058-.101M12.102 11.94a.609.609 0 0 1 .486-.205.655.655 0 0 1 .288.061.665.665 0 0 1 .31.44c.025.1.037.205.037.31h-1.347c.02-.225.1-.438.226-.605m.861 3.032a1.517 1.517 0 0 0 1.01-.618l-.25-.378a.175.175 0 0 0-.158-.09.299.299 0 0 0-.157.05l-.18.112a1.144 1.144 0 0 1-.228.117.877.877 0 0 1-.31.05.708.708 0 0 1-.57-.25 1.425 1.425 0 0 1-.259-.802h1.95a.238.238 0 0 0 .097 0 .126.126 0 0 0 .056-.061.311.311 0 0 0 .032-.122c.005-.064.005-.13 0-.195a2.519 2.519 0 0 0-.093-.762 1.737 1.737 0 0 0-.296-.556 1.173 1.173 0 0 0-.463-.345 1.29 1.29 0 0 0-.57-.123 1.353 1.353 0 0 0-.657.157c-.376.19-.668.558-.81 1.018-.072.24-.107.494-.107.75-.004.305.038.609.125.896.075.243.192.466.343.65.144.176.318.31.509.396.204.09.418.135.634.133.118.002.236-.008.352-.027" mask="url(#b)"/>
        <path fill="#020303" d="M25.933 30.048H9.067V4.952h10.89l5.976 5.397v19.699zM21.834 2.599C21.408 2.215 20.844 2 20.26 2H8.3C7.03 2 6 2.992 6 4.215v26.57C6 32.008 7.03 33 8.3 33h18.4c1.27 0 2.3-.992 2.3-2.215V10.029c0-.612-.263-1.196-.727-1.615l-6.439-5.815z" mask="url(#b)"/>
    </g>
</svg>
