<svg xmlns="http://www.w3.org/2000/svg" xmlns:xlink="http://www.w3.org/1999/xlink" width="72" height="72" viewBox="0 0 72 72">
    <defs>
        <path id="a" d="M0 0h72v72H0z"/>
    </defs>
    <g fill="none" fill-rule="evenodd">
        <path fill="#009ADE" d="M51.577 39c-4.162-4.193-9.695-6.501-15.58-6.501-5.883 0-11.414 2.306-15.57 6.497L18 36.511C22.807 31.666 29.2 29 35.997 29c6.8 0 13.193 2.668 18.003 7.514L51.577 39z"/>
        <path fill="#009ADE" d="M46.625 44c-2.704-2.847-6.3-4.416-10.127-4.416-3.825 0-7.42 1.568-10.121 4.414L24 41.454C27.335 37.936 31.774 36 36.498 36c4.725 0 9.165 1.938 12.502 5.454L46.625 44zM40.578 50c-1.354-1.46-3.158-2.265-5.078-2.265-1.922 0-3.724.804-5.076 2.263L28 47.347C30.001 45.189 32.665 44 35.5 44s5.499 1.19 7.5 3.349L40.578 50zM35.5 55a2.5 2.5 0 1 1-.001-5 2.5 2.5 0 0 1 .002 5"/>
        <g>
            <mask id="b" fill="#fff">
                <use xlink:href="#a"/>
            </mask>
            <path fill="#009ADE" d="M36 0L0 25.716h6.857V72h58.286V25.715H72L36 0zm0 8.426l22.286 15.92v40.797H13.715V24.345L36 8.426z" mask="url(#b)"/>
        </g>
    </g>
</svg>
