<svg xmlns="http://www.w3.org/2000/svg" xmlns:xlink="http://www.w3.org/1999/xlink" width="81" height="81" viewBox="0 0 81 81">
    <defs>
        <path id="a" d="M0 83.9h82.99V0H0z"/>
    </defs>
    <g fill="none" fill-rule="evenodd">
        <path fill="#009ADE" d="M73.007 38.28c-1.809 0-3.615.702-5.018 2.107L40.693 67.702l-.11.54-1.888 9.502-.54 2.537 2.538-.54 9.493-1.888.54-.11 27.297-27.316c2.806-2.807 2.806-7.234 0-10.04a7.058 7.058 0 0 0-5.016-2.106m0 5.727c.246 0 .616.075.97.43.352.351.426.721.426.968 0 .248-.074.618-.427.971l-26.07 26.088-2.423.483.483-2.423 26.07-26.087c.355-.355.723-.43.97-.43"/>
        <path stroke="#009ADE" stroke-width="6" d="M13.355 47.826L24.8 59.281"/>
        <path fill="#009ADE" d="M38.078 63.097l-32.355-.003.006-57.267h30.082l.004.001 15.696 15.708-.004 28.125 5.727-5.733V21.536c0-1.52-.603-2.978-1.677-4.054L39.863 1.779A5.728 5.728 0 0 0 35.811.1H5.73A5.731 5.731 0 0 0 0 5.832v57.262a5.731 5.731 0 0 0 5.73 5.733H32.353l5.724-5.73z"/>
        <path stroke="#009ADE" stroke-width="6" d="M24.801 47.826L13.355 59.281"/>
        <mask id="b" fill="#fff">
            <use xlink:href="#a"/>
        </mask>
        <path fill="#009ADE" d="M11.447 34.463h34.34v-3.818h-34.34zM11.447 42.1h34.34V38.28h-34.34z" mask="url(#b)"/>
    </g>
</svg>
