<svg xmlns="http://www.w3.org/2000/svg" width="42" height="37" viewBox="0 0 42 37">
    <g fill="#F7941E" fill-rule="evenodd">
        <path d="M0 36.373h42L21 0 0 36.373zM21 8l14.072 24.373H6.928L21 8z"/>
        <path d="M22.57 14.22v6.293c0 .675-.04 1.345-.122 2.008-.08.664-.187 1.34-.318 2.029h-2.31c-.133-.69-.239-1.365-.319-2.03-.08-.662-.12-1.332-.12-2.007V14.22h3.188zm-3.564 14.302c0-.265.048-.51.148-.738.1-.227.234-.425.407-.593.172-.17.375-.303.611-.403.234-.098.491-.148.77-.148.271 0 .523.05.758.148.235.1.44.234.616.403.176.168.314.366.413.593.1.228.15.473.15.738 0 .263-.05.51-.15.742-.099.23-.237.43-.413.6-.176.169-.38.3-.616.395-.235.096-.487.144-.759.144-.278 0-.535-.048-.769-.144-.236-.095-.439-.226-.61-.395-.174-.17-.309-.37-.408-.6-.1-.231-.148-.48-.148-.742z"/>
    </g>
</svg>
