<svg xmlns="http://www.w3.org/2000/svg" width="20" height="21" viewBox="0 0 20 21">
    <g fill="#000" fill-rule="evenodd">
        <path d="M10 0L7.219 5.773l-6.22.925 4.5 4.493-1.062 6.345L10 14.541l5.562 2.995-1.062-6.345L19 6.698l-6.219-.925L10 0zM6.978 11.452l.134-.796-.565-.564-2.323-2.32 3.21-.479.78-.116.35-.724L10 3.473l1.436 2.98.349.724.78.116 3.211.478-2.323 2.32-.565.565.134.796.548 3.276-2.872-1.547-.698-.376-.698.376-2.873 1.547.55-3.276z"/>
        <path d="M10 16.45s-1 2.508-1 3.073c0 .566.448 1.024 1 1.024s1-.458 1-1.024c0-.565-1-3.073-1-3.073M4.427.736a.981.981 0 0 0-.587.196 1.04 1.04 0 0 0-.221 1.431c.324.458 2.572 1.884 2.572 1.884s-.63-2.63-.954-3.088a.991.991 0 0 0-.81-.423M15.662.83a.94.94 0 0 0-.769.4c-.308.435-.906 2.934-.906 2.934s2.135-1.355 2.443-1.79a.988.988 0 0 0-.21-1.359.93.93 0 0 0-.558-.186M18.375 11.794c-.953 0-2.229.096-2.229.096s2.02 1.75 2.545 1.924c.103.034.207.05.309.05.422 0 .814-.275.95-.708a1.03 1.03 0 0 0-.642-1.29c-.16-.054-.515-.072-.933-.072M1.625 11.794c-.417 0-.773.018-.933.072a1.03 1.03 0 0 0-.642 1.29c.137.433.528.709.95.709a.971.971 0 0 0 .309-.051c.526-.175 2.545-1.924 2.545-1.924s-1.276-.096-2.229-.096"/>
    </g>
</svg>
