<svg xmlns="http://www.w3.org/2000/svg" xmlns:xlink="http://www.w3.org/1999/xlink" width="48" height="48" viewBox="0 0 48 48">
    <defs>
        <path id="a" d="M44.926 23.038c.04.483.074.97.074 1.462C45 34.165 37.165 42 27.5 42c-.17 0-.332-.02-.5-.025V42h-4v-4h4v-.025c.167.005.33.025.5.025 5.904 0 10.935-3.81 12.764-9.1-.582.067-1.171.1-1.764.1C29.953 29 23 22.047 23 13.5c0-.593.033-1.182.1-1.764-5.14 1.778-8.87 6.578-9.08 12.264H21v4H3v-4h7.026c.266-9.432 7.978-17 17.474-17 .493 0 .979.033 1.462.074A11.449 11.449 0 0 0 27 13.5C27 19.851 32.149 25 38.5 25c2.38 0 4.592-.724 6.426-1.962zM8 35v-4h18v4H8zm-5 7v-4h16v4H3z"/>
    </defs>
    <g fill="none" fill-rule="evenodd">
        <mask id="b" fill="#fff">
            <use xlink:href="#a"/>
        </mask>
        <use fill="#000" xlink:href="#a"/>
        <g fill="#666" mask="url(#b)">
            <path d="M0 0h48v48H0z"/>
        </g>
    </g>
</svg>
