<svg xmlns="http://www.w3.org/2000/svg" xmlns:xlink="http://www.w3.org/1999/xlink" width="67" height="70" viewBox="0 0 67 70">
    <defs>
        <path id="a" d="M0 0h66.872v70H0z"/>
    </defs>
    <g fill="none" fill-rule="evenodd">
        <g>
            <mask id="b" fill="#fff">
                <use xlink:href="#a"/>
            </mask>
            <path fill="#009ADE" d="M33.436 0c-8.36 0-18.244 5-18.244 5l6.634 10c-4.21 2.497-13.394 8.99-18.4 18.828-.16.315-.316.637-.47.959-.16.338-.324.668-.472 1.013a30.459 30.459 0 0 0-1.071 2.875 30.312 30.312 0 0 0-.693 2.51c-.009.042-.02.082-.03.123a28.938 28.938 0 0 0-.528 3.382A28.773 28.773 0 0 0 0 47.6c0 8.268 2.665 14.547 8.447 18.025C14.225 69.103 22.324 70 33.436 70s19.21-.897 24.99-4.375c5.78-3.478 8.446-9.757 8.446-18.025 0-.995-.066-1.958-.163-2.91a28.938 28.938 0 0 0-.527-3.382c-.01-.041-.021-.081-.03-.123a30.312 30.312 0 0 0-.693-2.51 30.322 30.322 0 0 0-1.071-2.875c-.148-.345-.312-.675-.471-1.013-.155-.322-.31-.644-.472-.959C58.44 23.99 49.257 17.497 45.045 15L51.68 5s-9.885-5-18.244-5m0 6.667c2.55 0 5.503.663 8.173 1.495l-2.083 3.14-3.89 5.861 6.04 3.579c2.574 1.525 11.32 7.195 15.88 16.156.13.252.252.51.362.737l.16.34c.075.155.151.308.23.493.232.53.455 1.117.684 1.782l.106.327.045.143c.227.705.403 1.342.543 1.958.013.059.026.115.041.172.13.603.239 1.27.332 2.033.018.155.033.31.051.475.088.874.128 1.587.128 2.242 0 9.165-3.93 11.528-5.22 12.305-4.046 2.435-10.299 3.428-21.582 3.428-11.283 0-17.536-.993-21.583-3.428-1.29-.777-5.219-3.14-5.219-12.305 0-.655.04-1.368.13-2.248.016-.157.03-.314.05-.467a22.71 22.71 0 0 1 .33-2.027l.017-.071.03-.125c.135-.6.31-1.237.54-1.952l.042-.133.103-.315c.232-.677.456-1.264.698-1.82.068-.159.145-.312.22-.467l.145-.308c.125-.259.247-.517.395-.804 4.541-8.926 13.288-14.596 15.862-16.121l6.04-3.579-3.89-5.861-2.083-3.14c2.672-.832 5.622-1.495 8.173-1.495" mask="url(#b)"/>
        </g>
        <path stroke="#009ADE" stroke-width="4" d="M25 16.14h16.522S56.392 14.425 63 23"/>
        <path fill="#009ADE" d="M22.403 41.052h1.369c.463 0 .857-.06 1.183-.18a2.13 2.13 0 0 0 .8-.5c.208-.214.36-.46.453-.746.094-.285.141-.592.141-.921 0-.659-.21-1.174-.63-1.546-.419-.369-1.068-.554-1.947-.554h-1.37v4.447zm0 2.397V49H19V34h4.772c1.06 0 1.965.112 2.713.335.748.223 1.359.533 1.832.931.473.398.817.869 1.032 1.41.215.543.322 1.131.322 1.77 0 .489-.064.949-.191 1.381a4.186 4.186 0 0 1-.569 1.198c-.252.369-.56.696-.926.985a4.887 4.887 0 0 1-1.264.71c.229.117.442.26.64.432s.37.381.518.628L31 49h-3.08c-.571 0-.98-.22-1.229-.659l-2.436-4.355a1.04 1.04 0 0 0-.377-.412c-.145-.082-.348-.125-.61-.125h-.865zM39.653 42.953c.12.281.238.57.347.867.11-.304.23-.598.352-.883.123-.285.25-.561.38-.83l3.654-7.59c.065-.13.132-.234.2-.306a.677.677 0 0 1 .23-.16.796.796 0 0 1 .288-.051H48v15h-2.91v-8.633c0-.417.02-.872.058-1.36l-3.77 7.716a1.314 1.314 0 0 1-.473.548c-.2.124-.426.184-.679.184h-.45c-.255 0-.48-.06-.68-.184a1.292 1.292 0 0 1-.473-.548l-3.79-7.726a13.852 13.852 0 0 1 .078 1.37V49H32V34h2.896a.79.79 0 0 1 .288.052.677.677 0 0 1 .23.16c.068.071.135.174.202.305l3.663 7.62c.128.263.254.534.374.816"/>
    </g>
</svg>
