<svg xmlns="http://www.w3.org/2000/svg" xmlns:xlink="http://www.w3.org/1999/xlink" width="53" height="70" viewBox="0 0 53 70">
    <defs>
        <path id="a" d="M0 70h53V0H0z"/>
    </defs>
    <g fill="none" fill-rule="evenodd">
        <path fill="#009ADE" d="M40.56 45.102c-.287-.058-.573-.079-.86-.102v19.695L27.977 58.87l-1.477-.733-1.475.733L13.3 64.695V45c-.285.023-.57.044-.858.102a7.191 7.191 0 0 1-2.442.064V70l16.5-8.197L43 70V45.166a7.183 7.183 0 0 1-2.44-.064"/>
        <mask id="b" fill="#fff">
            <use xlink:href="#a"/>
        </mask>
        <path fill="#23A8E3" d="M17 63h3V41h-3z" mask="url(#b)"/>
        <path fill="#009ADE" d="M33 63h3V41h-3z" mask="url(#b)"/>
        <path fill="#009ADE" d="M35.092 0c-1.461 0-2.955.455-4.282 1.462a7.11 7.11 0 0 1-4.31 1.451 7.112 7.112 0 0 1-4.31-1.451C20.863.455 19.369 0 17.908 0c-3.632 0-7.055 2.82-7.152 6.965A7.123 7.123 0 0 1 5.382 13.7c-5.638 1.427-7.284 8.637-2.826 12.366a7.116 7.116 0 0 1 1.92 8.399c-2.19 4.83 1.46 10.065 6.443 10.065.478 0 .969-.048 1.469-.149a7.13 7.13 0 0 1 7.766 3.737C21.477 50.707 23.988 52 26.501 52c2.51 0 5.022-1.294 6.345-3.881a7.13 7.13 0 0 1 7.766-3.738c.5.101.99.149 1.47.149 4.983 0 8.632-5.235 6.442-10.065a7.116 7.116 0 0 1 1.92-8.399c4.458-3.729 2.812-10.94-2.826-12.366a7.123 7.123 0 0 1-5.374-6.735C42.147 2.82 38.724 0 35.092 0m0 4.966c.886 0 2.151.657 2.184 2.117.128 5.404 3.88 10.105 9.123 11.432 1.115.282 1.464 1.129 1.574 1.609.11.482.162 1.397-.718 2.134-4.149 3.469-5.488 9.33-3.256 14.256.401.884.144 1.599-.142 2.042-.154.237-.732 1.008-1.776 1.008-.154 0-.314-.016-.477-.05a12.097 12.097 0 0 0-2.415-.243 12.04 12.04 0 0 0-10.767 6.588c-.523 1.023-1.43 1.175-1.921 1.175-.494 0-1.4-.152-1.923-1.175a12.044 12.044 0 0 0-10.767-6.588c-.807 0-1.62.082-2.415.244-.163.033-.323.05-.477.05-1.044 0-1.623-.772-1.776-1.009a2.05 2.05 0 0 1-.142-2.042c2.232-4.926.893-10.787-3.256-14.256-.88-.737-.829-1.652-.718-2.134.11-.48.46-1.327 1.574-1.609 5.244-1.327 8.995-6.028 9.123-11.432.033-1.46 1.3-2.117 2.186-2.117.457 0 .874.147 1.275.45a12.168 12.168 0 0 0 7.316 2.463c2.625 0 5.224-.876 7.314-2.463.396-.298.825-.45 1.277-.45" mask="url(#b)"/>
    </g>
</svg>
