<svg xmlns="http://www.w3.org/2000/svg" xmlns:xlink="http://www.w3.org/1999/xlink" width="47" height="52" viewBox="0 0 47 52">
    <defs>
        <path id="a" d="M0 0h46.881v14.857H.001z"/>
        <path id="c" d="M0 0h46.88v14.857H0z"/>
    </defs>
    <g fill="none" fill-rule="evenodd">
        <g>
            <mask id="b" fill="#fff">
                <use xlink:href="#a"/>
            </mask>
            <path fill="#F15A22" d="M16.215 6.249c-1.179 2.363-2.145 5.292-2.82 8.608h3.787c1.054-4.695 2.666-8.053 4.16-9.788.69-.07 1.389-.117 2.099-.117.71 0 1.407.047 2.099.117 1.494 1.735 3.105 5.093 4.158 9.788h3.788c-.675-3.316-1.64-6.245-2.82-8.608a21.168 21.168 0 0 1 10.58 8.608h5.635C42.71 6.081 33.796 0 23.441 0S4.172 6.08 0 14.857h5.634a21.171 21.171 0 0 1 10.58-8.608" mask="url(#b)"/>
        </g>
        <g transform="translate(0 37.143)">
            <mask id="d" fill="#fff">
                <use xlink:href="#c"/>
            </mask>
            <path fill="#F15A22" d="M30.666 8.608C31.845 6.244 32.81 3.316 33.486 0h-3.787c-1.054 4.696-2.666 8.052-4.16 9.79-.69.068-1.389.114-2.099.114-.71 0-1.407-.046-2.099-.115-1.494-1.737-3.105-5.093-4.158-9.79h-3.788c.675 3.317 1.64 6.245 2.82 8.609A21.168 21.168 0 0 1 5.635 0H0C4.17 8.776 13.085 14.857 23.44 14.857S42.71 8.777 46.88 0h-5.634a21.171 21.171 0 0 1-10.58 8.608L63 0" mask="url(#d)"/>
        </g>
        <text font-family="Lato-Black, Lato" font-size="20" font-weight="700">
            <tspan x="2" y="33" fill="#F15A22">4</tspan> <tspan x="13.6" y="33" fill="#FDB934"> </tspan> <tspan x="17.46" y="33" fill="#F15A22">GB</tspan>
        </text>
    </g>
</svg>
