<svg xmlns="http://www.w3.org/2000/svg" width="20" height="21" viewBox="0 0 20 21">
    <g fill="#FFF" fill-rule="evenodd">
        <path d="M10 0L7.219 5.926 1 6.876l4.5 4.611L4.437 18 10 14.926 15.563 18 14.5 11.487 19 6.876l-6.219-.95L10 0zM6.979 11.754l.133-.817-.565-.579-2.323-2.381 3.21-.491.781-.119.349-.744L10 3.563l1.436 3.06.349.744.78.119 3.212.49-2.323 2.382-.566.58.134.816.548 3.363-2.872-1.587-.698-.387-.698.387-2.872 1.587.549-3.363z"/>
        <path d="M10 16.897s-1 2.511-1 3.077C9 20.541 9.448 21 10 21s1-.46 1-1.026c0-.566-1-3.077-1-3.077M4.427 1.165a.98.98 0 0 0-.587.196 1.043 1.043 0 0 0-.221 1.432C3.943 3.251 6.19 4.68 6.19 4.68s-.63-2.634-.954-3.092a.99.99 0 0 0-.81-.423M15.662 1.258a.94.94 0 0 0-.769.401c-.308.436-.906 2.937-.906 2.937s2.135-1.356 2.443-1.79a.99.99 0 0 0-.21-1.362.93.93 0 0 0-.558-.186M18.375 12.236c-.953 0-2.229.096-2.229.096s2.02 1.751 2.545 1.926a.97.97 0 0 0 .309.051c.422 0 .814-.276.95-.71a1.03 1.03 0 0 0-.642-1.291c-.16-.054-.515-.072-.933-.072M1.625 12.236c-.417 0-.773.018-.933.072A1.03 1.03 0 0 0 .05 13.6c.137.433.528.71.95.71a.97.97 0 0 0 .309-.052c.526-.175 2.545-1.926 2.545-1.926s-1.276-.096-2.229-.096"/>
    </g>
</svg>
