<?xml version="1.0" encoding="UTF-8"?>
<svg width="27px" height="25px" viewBox="0 0 27 25" version="1.1" xmlns="http://www.w3.org/2000/svg" xmlns:xlink="http://www.w3.org/1999/xlink">
    <title>Atoms/Icons/Interface/Yes</title>
    <defs>
        <path d="M16.4995563,12.8138667 L16.4995563,17.0085333 C16.4995563,17.4585333 16.4730771,17.9052 16.4214104,18.3472 C16.3690979,18.7898667 16.2999938,19.2405333 16.2153896,19.6998667 L14.7235146,19.6998667 C14.6376188,19.2405333 14.5698063,18.7898667 14.5174938,18.3472 C14.4651813,17.9052 14.4393479,17.4585333 14.4393479,17.0085333 L14.4393479,12.8138667 L16.4995563,12.8138667 Z M14.1978062,22.3478667 C14.1978062,22.1712 14.2294521,22.0078667 14.2933896,21.8558667 C14.3579729,21.7045333 14.4445146,21.5725333 14.5562437,21.4605333 C14.6673271,21.3478667 14.7990771,21.2585333 14.9508479,21.1918667 C15.1019729,21.1265333 15.2679521,21.0932 15.4481396,21.0932 C15.6231604,21.0932 15.7865563,21.1265333 15.9383271,21.1918667 C16.0894521,21.2585333 16.2218479,21.3478667 16.3361604,21.4605333 C16.4498271,21.5725333 16.5389521,21.7045333 16.6022437,21.8558667 C16.6661813,22.0078667 16.6984729,22.1712 16.6984729,22.3478667 C16.6984729,22.5232 16.6661813,22.6885333 16.6022437,22.8425333 C16.5389521,22.9958667 16.4498271,23.1298667 16.3361604,23.2425333 C16.2218479,23.3552 16.0894521,23.4425333 15.9383271,23.5058667 C15.7865563,23.5698667 15.6231604,23.6018667 15.4481396,23.6018667 C15.2679521,23.6018667 15.1019729,23.5698667 14.9508479,23.5058667 C14.7990771,23.4425333 14.6673271,23.3552 14.5562437,23.2425333 C14.4445146,23.1298667 14.3579729,22.9958667 14.2933896,22.8425333 C14.2294521,22.6885333 14.1978062,22.5232 14.1978062,22.3478667 L14.1978062,22.3478667 Z M1.9375,27.5820667 L29.0625,27.5820667 L15.5,3.3334 L1.9375,27.5820667 Z M15.5,8.66673333 L24.5881667,24.9154 L6.41183333,24.9154 L15.5,8.66673333 Z" id="path-1"></path>
    </defs>
    <g id="Symbols" stroke="none" stroke-width="1" fill="none" fill-rule="evenodd">
        <g id="DSK/Prin/Errorexceedamount" transform="translate(-45.000000, -165.000000)">
            <g id="Group" transform="translate(43.000000, 162.000000)">
                <g id="Atoms/Icons/Alerts/Alert">
                    <mask id="mask-2" fill="white">
                        <use xlink:href="#path-1"></use>
                    </mask>
                    <use id="Mask" fill="#000000" fill-rule="evenodd" xlink:href="#path-1"></use>
                    <g id="↳🎨Icon-Colour" stroke-width="1" fill-rule="evenodd" mask="url(#mask-2)" fill="#FF9700">
                        <g id="Atoms/Colours/4_Utility/Orange-#FF9700">
                            <rect x="0" y="0" width="31" height="32"></rect>
                        </g>
                    </g>
                </g>
            </g>
        </g>
    </g>
</svg>