<svg xmlns="http://www.w3.org/2000/svg" xmlns:xlink="http://www.w3.org/1999/xlink" width="32" height="32" viewBox="0 0 32 32">
    <defs>
        <path id="prefix__a" d="M14 2.667C7.75 2.667 2.667 7.75 2.667 14c0 6.25 5.084 11.333 11.333 11.333 6.25 0 11.333-5.084 11.333-11.333C25.333 7.75 20.25 2.667 14 2.667M14 28C6.28 28 0 21.72 0 14S6.28 0 14 0s14 6.28 14 14-6.28 14-14 14m-3.3-6.15c-.683 0-1.365-.26-1.885-.778L6.93 19.186c-1.04-1.04-1.04-2.732 0-3.771l.943-.943 1.885 1.885-.942.943 1.885 1.886 4.714-4.714-.943-.943 1.886-1.886.942.943c.503.502.78 1.172.78 1.886 0 .713-.277 1.383-.78 1.886l-4.713 4.713c-.52.52-1.203.78-1.886.78m.943-5.494l-.942-.943c-.503-.502-.78-1.172-.78-1.885 0-.714.277-1.384.78-1.886l4.713-4.714c1.04-1.039 2.732-1.038 3.771 0l1.886 1.886c1.039 1.04 1.039 2.731 0 3.77l-.942.944-1.886-1.886.942-.942L17.3 8.815l-4.714 4.714.943.942-1.886 1.886z"/>
    </defs>
    <g fill="none" fill-rule="evenodd" transform="translate(2 2)">
        <mask id="prefix__b" fill="#fff">
            <use xlink:href="#prefix__a"/>
        </mask>
        <use fill="#000" xlink:href="#prefix__a"/>
        <g fill="#CCC" mask="url(#prefix__b)">
            <path d="M0 0H32V32H0z" transform="translate(-2 -2)"/>
        </g>
    </g>
</svg>
