<svg id="Icon_Emoji_2" data-name="Icon — Emoji 2" xmlns="http://www.w3.org/2000/svg" viewBox="0 0 100 100">
  <path id="Path_3275" data-name="Path 3275" d="M-390.918-52.029a2.066,2.066,0,0,1-1.073-.3,2.081,2.081,0,0,1-.71-2.858c3.467-5.763,10.54-9.342,18.458-9.342,7.9,0,14.967,3.571,18.442,9.315a2.081,2.081,0,0,1-.7,2.86,2.082,2.082,0,0,1-2.86-.7c-2.685-4.438-8.525-7.306-14.879-7.306s-12.21,2.875-14.888,7.323A2.085,2.085,0,0,1-390.918-52.029Z" transform="translate(424.25 124.946)"/>
  <path id="Path_3325" data-name="Path 3325" d="M-361.25-3.029A43.8,43.8,0,0,1-405-46.779a43.8,43.8,0,0,1,43.75-43.75,43.8,43.8,0,0,1,43.75,43.75A43.8,43.8,0,0,1-361.25-3.029Zm0-83.333a39.627,39.627,0,0,0-39.583,39.583A39.629,39.629,0,0,0-361.25-7.2a39.629,39.629,0,0,0,39.583-39.583A39.627,39.627,0,0,0-361.25-86.362Z" transform="translate(411.25 96.78)"/>
  <circle id="Ellipse_169" data-name="Ellipse 169" cx="5.198" cy="5.198" r="5.198" transform="translate(29.167 35.417)"/>
  <circle id="Ellipse_169-2" data-name="Ellipse 169" cx="5.198" cy="5.198" r="5.198" transform="translate(60.417 35.417)"/>
</svg>
