<?xml version="1.0" encoding="UTF-8"?>
<svg viewBox="0 0 48 48" version="1.1" xmlns="http://www.w3.org/2000/svg" xmlns:xlink="http://www.w3.org/1999/xlink">
    <rect id="Rectangle_1115" data-name="Rectangle 1115" width="48" height="48" fill="#333" opacity="0"/>
  <path id="Path_3540" data-name="Path 3540" d="M-2092,232a4,4,0,0,1,4,4,4,4,0,0,1-4,4,4,4,0,0,1-4-4,4,4,0,0,1,4-4m0-2a6,6,0,0,0-6,6,6,6,0,0,0,6,6,6,6,0,0,0,6-6,6,6,0,0,0-6-6Z" transform="translate(2127 -224)"/>
  <path id="Path_3541" data-name="Path 3541" d="M-2092,256a4,4,0,0,1,4,4,4,4,0,0,1-4,4,4,4,0,0,1-4-4,4,4,0,0,1,4-4m0-2a6,6,0,0,0-6,6,6,6,0,0,0,6,6,6,6,0,0,0,6-6,6,6,0,0,0-6-6Z" transform="translate(2127 -224)"/>
  <path id="Path_3542" data-name="Path 3542" d="M-2111,246a1,1,0,0,1-.881-.526,1,1,0,0,1,.406-1.354l14.17-7.631a1,1,0,0,1,1.355.407,1,1,0,0,1-.406,1.354l-14.171,7.63A.988.988,0,0,1-2111,246Z" transform="translate(2127 -224)" />
  <path id="Path_3543" data-name="Path 3543" d="M-2097.095,259.5a.988.988,0,0,1-.473-.12l-13.912-7.491a1,1,0,0,1-.406-1.354,1,1,0,0,1,1.354-.407l13.912,7.492a1,1,0,0,1,.406,1.354A1,1,0,0,1-2097.095,259.5Z" transform="translate(2127 -224)"/>
  <path id="Path_3544" data-name="Path 3544" d="M-2116,244a4,4,0,0,1,4,4,4,4,0,0,1-4,4,4,4,0,0,1-4-4,4,4,0,0,1,4-4m0-2a6,6,0,0,0-6,6,6,6,0,0,0,6,6,6,6,0,0,0,6-6,6,6,0,0,0-6-6Z" transform="translate(2127 -224)"/>
</svg>