<svg id="Icon_Emoji_3" data-name="Icon — Emoji 3" xmlns="http://www.w3.org/2000/svg" viewBox="0 0 100 100">
  <path id="Path_3276" data-name="Path 3276" d="M-292.75-58.362h-29.167A2.084,2.084,0,0,1-324-60.446a2.083,2.083,0,0,1,2.083-2.083h29.167a2.083,2.083,0,0,1,2.083,2.083A2.084,2.084,0,0,1-292.75-58.362Z" transform="translate(357.333 127.113)"/>
  <path id="Path_3326" data-name="Path 3326" d="M-293.25-3.029A43.8,43.8,0,0,1-337-46.779a43.8,43.8,0,0,1,43.75-43.75,43.8,43.8,0,0,1,43.75,43.75A43.8,43.8,0,0,1-293.25-3.029Zm0-83.333a39.627,39.627,0,0,0-39.583,39.583A39.629,39.629,0,0,0-293.25-7.2a39.629,39.629,0,0,0,39.583-39.583A39.627,39.627,0,0,0-293.25-86.362Z" transform="translate(343.25 96.78)"/>
  <circle id="Ellipse_169" data-name="Ellipse 169" cx="5.198" cy="5.198" r="5.198" transform="translate(29.167 35.417)"/>
  <circle id="Ellipse_169-2" data-name="Ellipse 169" cx="5.198" cy="5.198" r="5.198" transform="translate(60.417 35.417)"/>
</svg>
