<svg id="Icon_Emoji_4" data-name="Icon — Emoji 4" xmlns="http://www.w3.org/2000/svg" viewBox="0 0 100 100">
  <path id="Path_3277" data-name="Path 3277" d="M-235.749-48.027A25.8,25.8,0,0,1-246.9-50.572a25.99,25.99,0,0,1-12.213-12.24,2.084,2.084,0,0,1,.988-2.777,2.083,2.083,0,0,1,2.775.985A21.773,21.773,0,0,0-245.1-54.333a21.577,21.577,0,0,0,16.606.887A21.583,21.583,0,0,0-216.128-64.56a2.087,2.087,0,0,1,2.779-.981,2.083,2.083,0,0,1,.979,2.779,25.72,25.72,0,0,1-14.742,13.246A25.9,25.9,0,0,1-235.749-48.027Z" transform="translate(285.741 123.579)"/>
  <path id="Path_3327" data-name="Path 3327" d="M-225.25-3.029A43.8,43.8,0,0,1-269-46.779a43.8,43.8,0,0,1,43.75-43.75,43.8,43.8,0,0,1,43.75,43.75A43.8,43.8,0,0,1-225.25-3.029Zm0-83.333a39.627,39.627,0,0,0-39.583,39.583A39.629,39.629,0,0,0-225.25-7.2a39.629,39.629,0,0,0,39.583-39.583A39.627,39.627,0,0,0-225.25-86.362Z" transform="translate(275.25 96.78)"/>
  <circle id="Ellipse_169" data-name="Ellipse 169" cx="5.198" cy="5.198" r="5.198" transform="translate(29.167 35.417)"/>
  <circle id="Ellipse_169-2" data-name="Ellipse 169" cx="5.198" cy="5.198" r="5.198" transform="translate(60.417 35.417)"/>
</svg>
