<?xml version="1.0" encoding="UTF-8"?>
<svg width="48px" height="48px" viewBox="0 0 48 48" version="1.1" xmlns="http://www.w3.org/2000/svg" xmlns:xlink="http://www.w3.org/1999/xlink">
    <!-- Generator: Sketch 56.3 (81716) - https://sketch.com -->
    <title>Atoms/Icons/Interface/Shopping Bag V2</title>
    <desc>Created with Sketch.</desc>
    <defs>
        <path d="M14.628,28.9997 L32.628,28.9997 L32.628,25.9997 L14.628,25.9997 L14.628,28.9997 Z M14.628,10.9997 L18.128,10.9997 L18.128,12.9997 C18.128,13.5527 18.575,13.9997 19.128,13.9997 C19.681,13.9997 20.128,13.5527 20.128,12.9997 L20.128,10.9997 L27.128,10.9997 L27.128,12.9997 C27.128,13.5527 27.575,13.9997 28.128,13.9997 C28.681,13.9997 29.128,13.5527 29.128,12.9997 L29.128,10.9997 L32.628,10.9997 L32.628,23.9997 L14.628,23.9997 L14.628,10.9997 Z M20.128,7.4997 C20.128,5.5707 21.698,3.9997 23.628,3.9997 C25.558,3.9997 27.128,5.5707 27.128,7.4997 L27.128,7.9997 L20.128,7.9997 L20.128,7.4997 Z M35.628,29.8187 C35.628,31.0237 34.651,31.9997 33.446,31.9997 L13.81,31.9997 C12.604,31.9997 11.628,31.0237 11.628,29.8187 L11.628,7.9997 L18.128,7.9997 L18.128,7.4997 C18.128,4.4677 20.596,1.9997 23.628,1.9997 C26.66,1.9997 29.128,4.4677 29.128,7.4997 L29.128,7.9997 L35.628,7.9997 L35.628,29.8187 Z M12.5234,39.6084 C12.7054,39.7884 12.8514,40.0064 12.9634,40.2644 C13.0764,40.5234 13.1314,40.8344 13.1314,41.1984 C13.1314,41.6024 13.0614,41.9804 12.9214,42.3324 C12.7824,42.6834 12.5794,42.9914 12.3134,43.2534 C12.0464,43.5144 11.7184,43.7204 11.3294,43.8714 C10.9394,44.0214 10.4964,44.0954 10.0004,44.0954 C9.7274,44.0954 9.4514,44.0684 9.1694,44.0114 C8.8864,43.9564 8.6144,43.8774 8.3494,43.7754 C8.0864,43.6724 7.8374,43.5514 7.6064,43.4124 C7.3744,43.2724 7.1714,43.1164 7.0004,42.9444 L7.5994,41.9964 C7.6484,41.9274 7.7114,41.8714 7.7894,41.8254 C7.8674,41.7794 7.9524,41.7554 8.0444,41.7554 C8.1644,41.7554 8.2854,41.7944 8.4074,41.8704 C8.5294,41.9464 8.6674,42.0304 8.8214,42.1224 C8.9744,42.2134 9.1524,42.2974 9.3514,42.3744 C9.5514,42.4504 9.7884,42.4884 10.0594,42.4884 C10.4274,42.4884 10.7134,42.4074 10.9184,42.2454 C11.1224,42.0834 11.2234,41.8264 11.2234,41.4734 C11.2234,41.2694 11.1684,41.1044 11.0554,40.9754 C10.9444,40.8474 10.7964,40.7424 10.6154,40.6584 C10.4324,40.5744 10.2254,40.5004 9.9944,40.4354 C9.7614,40.3724 9.5244,40.3004 9.2804,40.2224 C9.0364,40.1444 8.7974,40.0484 8.5664,39.9344 C8.3344,39.8214 8.1274,39.6704 7.9454,39.4854 C7.7624,39.2984 7.6164,39.0674 7.5034,38.7894 C7.3914,38.5104 7.3364,38.1684 7.3364,37.7594 C7.3364,37.4314 7.4024,37.1124 7.5344,36.7994 C7.6664,36.4884 7.8604,36.2104 8.1164,35.9654 C8.3724,35.7214 8.6854,35.5274 9.0574,35.3804 C9.4294,35.2354 9.8564,35.1624 10.3354,35.1624 C10.6034,35.1624 10.8654,35.1824 11.1194,35.2244 C11.3734,35.2664 11.6144,35.3294 11.8414,35.4114 C12.0704,35.4934 12.2834,35.5904 12.4814,35.7054 C12.6784,35.8194 12.8564,35.9484 13.0114,36.0914 L12.5074,37.0344 C12.4484,37.1294 12.3844,37.2024 12.3194,37.2504 C12.2524,37.2974 12.1684,37.3224 12.0644,37.3224 C11.9714,37.3224 11.8734,37.2934 11.7664,37.2354 C11.6614,37.1764 11.5414,37.1124 11.4074,37.0404 C11.2734,36.9674 11.1204,36.9034 10.9484,36.8444 C10.7764,36.7874 10.5804,36.7574 10.3604,36.7574 C9.9794,36.7574 9.6974,36.8384 9.5104,37.0014 C9.3254,37.1634 9.2324,37.3814 9.2324,37.6584 C9.2324,37.8344 9.2884,37.9804 9.4004,38.0954 C9.5114,38.2124 9.6594,38.3114 9.8404,38.3964 C10.0234,38.4804 10.2314,38.5564 10.4644,38.6274 C10.6994,38.6974 10.9384,38.7754 11.1814,38.8614 C11.4254,38.9474 11.6654,39.0474 11.8994,39.1644 C12.1324,39.2804 12.3404,39.4274 12.5234,39.6084 Z M19.9561,38.9121 L19.9561,35.2581 L21.9951,35.2581 L21.9951,44.0001 L19.9561,44.0001 L19.9561,40.3041 L16.4031,40.3041 L16.4031,44.0001 L14.3631,44.0001 L14.3631,35.2581 L16.4031,35.2581 L16.4031,38.9121 L19.9561,38.9121 Z M30.0391,40.7988 C30.1511,40.4528 30.2071,40.0628 30.2071,39.6258 C30.2071,39.1948 30.1511,38.8048 30.0391,38.4588 C29.9281,38.1128 29.7671,37.8198 29.5571,37.5798 C29.3471,37.3398 29.0901,37.1558 28.7851,37.0278 C28.4811,36.9008 28.1361,36.8358 27.7471,36.8358 C27.3551,36.8358 27.0071,36.9008 26.7001,37.0278 C26.3941,37.1558 26.1371,37.3398 25.9271,37.5798 C25.7171,37.8198 25.5561,38.1128 25.4431,38.4588 C25.3311,38.8048 25.2751,39.1948 25.2751,39.6258 C25.2751,40.0628 25.3311,40.4528 25.4431,40.7988 C25.5561,41.1458 25.7171,41.4388 25.9271,41.6778 C26.1371,41.9178 26.3941,42.1008 26.7001,42.2268 C27.0071,42.3528 27.3551,42.4158 27.7471,42.4158 C28.1361,42.4158 28.4811,42.3528 28.7851,42.2268 C29.0901,42.1008 29.3471,41.9178 29.5571,41.6778 C29.7671,41.4388 29.9281,41.1458 30.0391,40.7988 Z M31.0351,36.4518 C31.4321,36.8518 31.7381,37.3238 31.9561,37.8678 C32.1751,38.4118 32.2831,38.9978 32.2831,39.6258 C32.2831,40.2578 32.1751,40.8458 31.9561,41.3898 C31.7381,41.9338 31.4321,42.4068 31.0351,42.8088 C30.6401,43.2108 30.1621,43.5268 29.6041,43.7538 C29.0471,43.9828 28.4281,44.0958 27.7471,44.0958 C27.0671,44.0958 26.4471,43.9828 25.8881,43.7538 C25.3271,43.5268 24.8491,43.2108 24.4501,42.8088 C24.0531,42.4068 23.7441,41.9338 23.5261,41.3898 C23.3091,40.8458 23.1991,40.2578 23.1991,39.6258 C23.1991,38.9938 23.3091,38.4058 23.5261,37.8618 C23.7441,37.3188 24.0531,36.8458 24.4501,36.4458 C24.8491,36.0458 25.3271,35.7328 25.8881,35.5038 C26.4471,35.2768 27.0671,35.1618 27.7471,35.1618 C28.4281,35.1618 29.0471,35.2778 29.6041,35.5068 C30.1621,35.7368 30.6401,36.0518 31.0351,36.4518 Z M37.7178,39.1699 C37.9488,38.9179 38.0658,38.5659 38.0658,38.1139 C38.0658,37.9139 38.0348,37.7329 37.9758,37.5679 C37.9148,37.4039 37.8238,37.2629 37.7018,37.1449 C37.5798,37.0269 37.4268,36.9359 37.2398,36.8719 C37.0548,36.8079 36.8328,36.7759 36.5768,36.7759 L35.5218,36.7759 L35.5218,39.5479 L36.5768,39.5479 C37.1058,39.5479 37.4858,39.4219 37.7178,39.1699 Z M39.8898,36.9859 C40.0258,37.3339 40.0938,37.7099 40.0938,38.1139 C40.0938,38.5499 40.0238,38.9499 39.8838,39.3149 C39.7428,39.6779 39.5298,39.9899 39.2408,40.2499 C38.9528,40.5099 38.5888,40.7129 38.1468,40.8589 C37.7038,41.0049 37.1818,41.0779 36.5768,41.0779 L35.5218,41.0779 L35.5218,43.9999 L33.4928,43.9999 L33.4928,35.2579 L36.5768,35.2579 C37.1938,35.2579 37.7228,35.3309 38.1638,35.4769 C38.6068,35.6229 38.9708,35.8239 39.2568,36.0799 C39.5418,36.3359 39.7538,36.6379 39.8898,36.9859 Z" id="path-1"/>
    </defs>
    <g id="Atoms/Icons/Interface/Shopping-Bag-V2" stroke="none" stroke-width="1" fill="none" fill-rule="evenodd">
        <mask id="mask-2" fill="white">
            <use xlink:href="#path-1"/>
        </mask>
        <use id="Mask" fill="#000000" xlink:href="#path-1"/>
    </g>
</svg>