<svg xmlns="http://www.w3.org/2000/svg" width="48" height="48" viewBox="0 0 48 48">
<title>Icons/Interface/Account</title><desc>Created with Sketch.</desc><g fill="none"><g><path fill="#000" d="M24 12c-4.97 0-9 4.03-9 9s4.03 9 9 9 9-4.03 9-9-4.03-9-9-9m0 4c2.76 0 5 2.24 5 5s-2.24 5-5 5-5-2.24-5-5 2.24-5 5-5"/><path stroke="#000" stroke-width="4" d="M38 36.32C35.58 31.4 30.55 28 24.74 28c-6.06 0-11.27 3.7-13.56 8.97"/><path fill="#000" d="M24 3C12.4 3 3 12.4 3 24s9.4 21 21 21 21-9.4 21-21S35.6 3 24 3m0 4c9.37 0 17 7.63 17 17 0 9.37-7.63 17-17 17-9.37 0-17-7.63-17-17 0-9.37 7.63-17 17-17"/></g></g>
</svg>