<svg id="Icon_Display_Success" data-name="Icon Display — Success" xmlns="http://www.w3.org/2000/svg" width="128" height="128.002" viewBox="0 0 128 128.002">
  <rect id="Rectangle_1852" data-name="Rectangle 1852" width="128" height="128" transform="translate(0 0)" fill="#7b1b67" opacity="0"/>
  <path id="Path_5194" data-name="Path 5194" d="M1569,306a64,64,0,0,1,0-128,1.03,1.03,0,0,1,.21.022.54.54,0,0,1,.213-.021A64,64,0,0,1,1569,306Zm.206-126.021A1,1,0,0,1,1569,180a61.948,61.948,0,1,0,.409,0A.971.971,0,0,1,1569.206,179.979Z" transform="translate(-1505 -177.998)" fill="#009bdf"/>
  <path id="Path_5195" data-name="Path 5195" d="M1552.2,271.761h0a1,1,0,0,1-.714-.3l-23.2-23.9a1,1,0,0,1,1.436-1.393l22.488,23.166,56.082-56.794a1,1,0,0,1,1.424,1.4l-56.8,57.522A1,1,0,0,1,1552.2,271.761Z" transform="translate(-1505 -177.998)" fill="#009bdf"/>
</svg>
