<?xml version="1.0" encoding="UTF-8"?>
<svg width="70px" height="36px" viewBox="0 0 70 36" version="1.1" xmlns="http://www.w3.org/2000/svg" xmlns:xlink="http://www.w3.org/1999/xlink">
    <!-- Generator: Sketch 46.2 (44496) - http://www.bohemiancoding.com/sketch -->
    <title>logo</title>
    <desc>Created with Sketch.</desc>
    <defs>
        <linearGradient x1="0%" y1="50%" x2="99.9437886%" y2="50%" id="linearGradient-1">
            <stop stop-color="#221E67" offset="0%"></stop>
            <stop stop-color="#3F1E6B" offset="9%"></stop>
            <stop stop-color="#5E1F70" offset="20%"></stop>
            <stop stop-color="#B63F81" offset="100%"></stop>
        </linearGradient>
        <linearGradient x1="49.9718943%" y1="0%" x2="49.9718943%" y2="100%" id="linearGradient-2">
            <stop stop-color="#F04E23" offset="10%"></stop>
            <stop stop-color="#F05223" offset="14%"></stop>
            <stop stop-color="#F5821F" offset="72%"></stop>
            <stop stop-color="#F7941E" offset="100%"></stop>
        </linearGradient>
        <linearGradient x1="0%" y1="50.0243784%" x2="99.9437886%" y2="50.0243784%" id="linearGradient-3">
            <stop stop-color="#AF2A47" offset="5%"></stop>
            <stop stop-color="#BC254B" offset="18%"></stop>
            <stop stop-color="#D71C54" offset="50%"></stop>
            <stop stop-color="#E71659" offset="78%"></stop>
            <stop stop-color="#ED145B" offset="100%"></stop>
        </linearGradient>
    </defs>
    <g id="Mobile-Site" stroke="none" stroke-width="1" fill="none" fill-rule="evenodd">
        <g id="320_2_product_landing" transform="translate(-125.000000, -10.000000)" fill-rule="nonzero">
            <g id="Group-2">
                <g id="Group-3" transform="translate(125.000000, 10.000000)">
                    <g id="logo" transform="translate(0.364583, 0.441170)">
                        <polygon id="Shape" fill="#EE3E80" points="54.3 17.1041667 61.7041667 21.375 61.7041667 12.8291667"></polygon>
                        <polygon id="Shape" fill="#FDB933" points="54.3 0 54.3 8.55416667 61.7041667 4.27083333"></polygon>
                        <polygon id="Shape" fill="#F7941E" points="61.7041667 4.27083333 61.7041667 4.27083333 54.3 8.55416667 61.7041667 12.8291667"></polygon>
                        <polygon id="Shape" fill="url(#linearGradient-1)" points="69.1166667 17.1041667 69.1166667 8.55416667 61.7041667 12.8291667"></polygon>
                        <polygon id="Shape" fill="url(#linearGradient-2)" points="61.7041667 12.8291667 61.7041667 12.8291667 69.1166667 8.55416667 61.7041667 4.27083333"></polygon>
                        <polygon id="Shape" fill="url(#linearGradient-3)" points="69.1166667 17.1041667 69.1166667 17.1041667 61.7041667 12.8291667 61.7041667 21.375"></polygon>
                        <path d="M14.5958333,24.6125 C11.6041667,24.6125 9.76666667,26.8083333 9.76666667,29.7458333 C9.80416667,32.9916667 12.0708333,34.8333333 14.7666667,34.8333333 C15.9070779,34.8716223 17.038047,34.6147144 18.05,34.0875 C18.2840284,33.93701 18.4067099,33.6622035 18.3625,33.3875 L18.3625,32.0666667 C17.5126719,32.4863323 16.5809359,32.7139319 15.6333333,32.7333333 C14.1458333,32.7333333 12.8083333,32.0875 12.5125,30.5833333 L19.3833333,30.5833333 C19.4158243,30.3542759 19.4297585,30.1229681 19.425,29.8916667 C19.4041667,26.9416667 17.8458333,24.6125 14.5958333,24.6125 Z M12.4583333,28.9583333 C12.5666667,27.625 13.5,26.7 14.6291667,26.7 C15.9333333,26.7 16.675,27.6083333 16.7875,28.9583333 L12.4625,28.9583333 L12.4583333,28.9583333 Z" id="Shape" fill="#009ADE"></path>
                        <path d="M5.1625,27.0041667 C6.03479787,26.9919599 6.87600436,27.3278427 7.5,27.9375 L9.09583333,26.2291667 C7.62782014,24.7065927 5.39417856,24.2043953 3.415733,24.9520901 C1.43728743,25.6997848 0.0940852402,27.553744 5.68434189e-14,29.6666667 C5.68434189e-14,33 2.34166667,34.8333333 5.07083333,34.8333333 C6.20021144,34.8741636 7.32103108,34.6230197 8.325,34.1041667 C8.55733708,33.9522297 8.67950344,33.6785771 8.6375,33.4041667 L8.6375,32.0458333 C7.79416346,32.4675452 6.86768644,32.6966739 5.925,32.7166667 C4.16666667,32.7166667 2.75,31.8041667 2.75,29.6666667 C2.75,28.1833333 3.77083333,27.0041667 5.1625,27.0041667 Z" id="Shape" fill="#009ADE"></path>
                        <path d="M39.8,24.6125 C38.409085,24.5730279 37.0615611,25.0989865 36.0651569,26.0702647 C35.0687527,27.0415429 34.5085572,28.3751973 34.5125,29.7666667 C34.5125,32.6458333 36.7791667,34.8333333 39.7666667,34.8333333 C42.7541667,34.8333333 45.1375,32.6 45.1375,29.6833333 C45.1375,26.7666667 42.8166667,24.6125 39.8,24.6125 Z M39.8,32.6416667 C38.2259002,32.580672 36.9978735,31.2576083 37.0541667,29.6833333 C37.0541667,28.0166667 38.2083333,26.8458333 39.7666667,26.8458333 C40.5241344,26.8541916 41.2458946,27.1691013 41.767219,27.7186903 C42.2885435,28.2682794 42.5649425,29.0056459 42.5333333,29.7625 C42.5458333,31.4125 41.4125,32.6458333 39.8,32.6458333 L39.8,32.6416667 Z" id="Shape" fill="#009ADE"></path>
                        <path d="M58.0125,24.6125 C56.8141075,24.5779505 55.6674772,25.1012449 54.9083333,26.0291667 C54.1343472,25.0993925 52.9759126,24.5770215 51.7666667,24.6125 C50.7732918,24.5922478 49.8267251,25.0339789 49.2041667,25.8083333 L49.2041667,24.5833333 C48.7583333,24.6375 47.7166667,24.75 47.0708333,25.3625 C46.8279992,25.6022081 46.6991304,25.9342348 46.7166667,26.275 L46.7166667,34.6083333 L49.2166667,34.6083333 L49.2166667,28.3125 C49.2166667,27.4791667 50.05,26.8291667 51.1166667,26.8291667 C51.5448935,26.8165235 51.9680136,26.9248307 52.3375,27.1416667 C52.7777737,27.4219595 53.0289308,27.9210743 52.9916667,28.4416667 L52.9916667,34.6083333 L55.4375,34.6083333 L55.4375,28.3125 C55.4375,27.4791667 56.2708333,26.8291667 57.3333333,26.8291667 C57.7629652,26.8157342 58.1876378,26.924069 58.5583333,27.1416667 C58.99772,27.422368 59.2474043,27.9217365 59.2083333,28.4416667 L59.2083333,34.6083333 L61.7083333,34.6083333 L61.7083333,27.55 C61.7041667,25.9 60.075,24.6125 58.0125,24.6125 Z" id="Shape" fill="#009ADE"></path>
                        <path d="M30.0458333,27.0041667 C30.9179605,26.992881 31.758827,27.3286281 32.3833333,27.9375 L33.9833333,26.2291667 C32.5146319,24.7048541 30.2793151,24.20153 28.2990253,24.9492367 C26.3187355,25.6969434 24.9738986,27.5520417 24.8791667,29.6666667 C24.8791667,33 27.225,34.8333333 29.9541667,34.8333333 C31.0822329,34.8743874 32.2017635,34.6232107 33.2041667,34.1041667 C33.4372592,33.9526048 33.5608974,33.6792994 33.5208333,33.4041667 L33.5208333,32.0458333 C32.6772084,32.4667621 31.7509099,32.6958467 30.8083333,32.7166667 C29.0458333,32.7166667 27.6333333,31.8041667 27.6333333,29.6666667 C27.6333333,28.1833333 28.65,27.0041667 30.0458333,27.0041667 Z" id="Shape" fill="#009ADE"></path>
                        <path d="M20.8541667,23.0416667 L20.8541667,34.6125 L23.3791667,34.6125 L23.3791667,21.0541667 C23.1041667,21.125 21.8708333,21.425 21.225,22.0916667 C20.9830709,22.3483887 20.8501384,22.688935 20.8541667,23.0416667 L20.8541667,23.0416667 Z" id="Shape" fill="#009ADE"></path>
                    </g>
                </g>
            </g>
        </g>
    </g>
</svg>