<?xml version="1.0" encoding="UTF-8"?>
<svg width="48px" height="48px" viewBox="0 0 48 48" version="1.1" xmlns="http://www.w3.org/2000/svg" xmlns:xlink="http://www.w3.org/1999/xlink">
    <!-- Generator: Sketch 50.2 (55047) - http://www.bohemiancoding.com/sketch -->
    <title>Atoms/Icons_#333/Interface/Share 2</title>
    <desc>Created with Sketch.</desc>
    <defs>
        <path d="M33.5,38 C31.019,38 29,35.981 29,33.5 C29,31.019 31.019,29 33.5,29 C35.981,29 38,31.019 38,33.5 C38,35.981 35.981,38 33.5,38 M8.5,25.5 C6.019,25.5 4,23.481 4,21 C4,18.519 6.019,16.5 8.5,16.5 C10.981,16.5 13,18.519 13,21 C13,23.481 10.981,25.5 8.5,25.5 M33.5,4 C35.981,4 38,6.019 38,8.5 C38,10.981 35.981,13 33.5,13 C31.019,13 29,10.981 29,8.5 C29,6.019 31.019,4 33.5,4 M33.5,25 C30.667,25 28.164,26.392 26.619,28.523 L16.706,23.186 C16.892,22.487 17,21.757 17,21 C17,20.243 16.892,19.513 16.706,18.814 L26.619,13.477 C28.164,15.608 30.667,17 33.5,17 C38.194,17 42,13.194 42,8.5 C42,3.806 38.194,0 33.5,0 C28.806,0 25,3.806 25,8.5 C25,8.926 25.042,9.341 25.102,9.75 L14.794,15.301 C13.238,13.585 10.999,12.5 8.5,12.5 C3.806,12.5 0,16.306 0,21 C0,25.694 3.806,29.5 8.5,29.5 C10.999,29.5 13.238,28.415 14.794,26.699 L25.102,32.25 C25.042,32.659 25,33.074 25,33.5 C25,38.194 28.806,42 33.5,42 C38.194,42 42,38.194 42,33.5 C42,28.806 38.194,25 33.5,25" id="path-1"></path>
    </defs>
    <g id="Atoms/Icons_#333/Interface/Share-2" stroke="none" stroke-width="1" fill="none" fill-rule="evenodd">
        <g id="Colour" transform="translate(3.000000, 3.000000)">
            <mask id="mask-2" fill="white">
                <use xlink:href="#path-1"></use>
            </mask>
            <use id="Mask" fill="#333333" xlink:href="#path-1"></use>
        </g>
    </g>
</svg>