<svg id="Icon_Account_Profile_User" data-name="Icon — Account / Profile / User" xmlns="http://www.w3.org/2000/svg" width="48" height="48" viewBox="0 0 48 48">
  <rect id="Rectangle_1061" data-name="Rectangle 1061" width="48" height="48" fill="#009bdf" opacity="0"/>
  <path id="Path_4620" data-name="Path 4620" d="M24,3A21,21,0,1,0,45,24,21,21,0,0,0,24,3Zm0,2A18.974,18.974,0,0,1,38.4,36.36,16.688,16.688,0,0,0,28,30.234a11,11,0,1,0-8.008,0A16.688,16.688,0,0,0,9.6,36.36,18.974,18.974,0,0,1,24,5Zm0,24a9,9,0,1,1,9-9A9.011,9.011,0,0,1,24,29ZM10.989,37.808A14.651,14.651,0,0,1,22.67,32h2.66a14.651,14.651,0,0,1,11.681,5.808,18.9,18.9,0,0,1-26.022,0Z" fill="#009bdf"/>
</svg>
