<?xml version="1.0" encoding="UTF-8"?>
<svg width="48px" height="48px" viewBox="0 0 48 48" version="1.1" xmlns="http://www.w3.org/2000/svg" xmlns:xlink="http://www.w3.org/1999/xlink">
    <!-- Generator: Sketch 50.2 (55047) - http://www.bohemiancoding.com/sketch -->
    <title>Atoms/Icons_#333/Subscription/Plan</title>
    <desc>Created with Sketch.</desc>
    <defs>
        <path d="M12,14 L15,14 L15,12 L12,12 L12,14 Z M9,17 L18,17 L18,9 L9,9 L9,17 Z M41.7754,27.2412 L28.1104,40.9062 L26.8404,41.1592 L27.0934,39.8892 L40.7584,26.2242 C40.9444,26.0392 41.1374,26.0002 41.2674,26.0002 C41.3974,26.0002 41.5904,26.0392 41.7754,26.2242 C41.9614,26.4092 42.0004,26.6022 42.0004,26.7322 C42.0004,26.8622 41.9614,27.0552 41.7754,27.2412 M43.8974,24.1022 C45.3674,25.5732 45.3674,27.8922 43.8974,29.3622 L29.5884,43.6712 L29.3054,43.7272 L24.3294,44.7172 L23.0004,45.0002 L23.2834,43.6712 L24.2724,38.6942 L24.3294,38.4112 L38.6374,24.1022 C39.3734,23.3672 40.3204,23.0002 41.2674,23.0002 C42.2144,23.0002 43.1624,23.3672 43.8974,24.1022 Z M14.9395,26.9395 L17.0605,29.0605 L15.1215,31.0005 L17.0605,32.9395 L14.9395,35.0605 L13.0005,33.1215 L11.0605,35.0605 L8.9395,32.9395 L10.8785,31.0005 L8.9395,29.0605 L11.0605,26.9395 L13.0005,28.8785 L14.9395,26.9395 Z M9,21 L9,19 L27,19 L27,21 L9,21 Z M9,25 L9,23 L27,23 L27,25 L9,25 Z M28.2715,12.5 L23.5005,12.5 L23.5005,7.729 L28.2715,12.5 Z M6.0025,6 L20.5005,6 L20.5005,15.5 L30.0005,15.5 L29.9985,28.961 L33.0005,25.958 L33.0005,14.229 C33.0005,13.433 32.6835,12.669 32.1205,12.105 L23.8945,3.88 C23.3315,3.316 22.5675,3 21.7705,3 L6.0025,3 C4.3445,3 3.0005,4.345 3.0005,6.003 L3.0005,35.997 C3.0005,37.655 4.3445,39 6.0025,39 L19.9585,39 L22.9595,35.999 L6.0005,35.997 L6.0025,6 Z" id="path-1"></path>
    </defs>
    <g id="Atoms/Icons_#333/Subscription/Plan" stroke="none" stroke-width="1" fill="none" fill-rule="evenodd">
        <mask id="mask-2" fill="white">
            <use xlink:href="#path-1"></use>
        </mask>
        <use id="Mask" fill="#333333" xlink:href="#path-1"></use>
    </g>
</svg>