<?xml version="1.0" encoding="UTF-8"?>
<svg width="48px" height="48px" viewBox="0 0 48 48" version="1.1" xmlns="http://www.w3.org/2000/svg" xmlns:xlink="http://www.w3.org/1999/xlink">
    <!-- Generator: Sketch 50.2 (55047) - http://www.bohemiancoding.com/sketch -->
    <title>Atoms/Icons_#333/Settings and Help/Profile Settings</title>
    <desc>Created with Sketch.</desc>
    <defs>
        <path d="M19,24 C14.589,24 11,20.411 11,16 C11,11.589 14.589,8 19,8 C23.411,8 27,11.589 27,16 C27,20.411 23.411,24 19,24 M31,16 C31,22.627 25.627,28 19,28 C12.383,28 7,33.383 7,40 L3,40 C3,33.722 6.645,28.292 11.92,25.674 C8.941,23.49 7,19.976 7,16 C7,9.373 12.373,4 19,4 C25.627,4 31,9.373 31,16 Z M35,32.2236 C35.919,32.2236 36.667,32.9706 36.667,33.8896 C36.667,34.8086 35.919,35.5566 35,35.5566 C34.081,35.5566 33.333,34.8086 33.333,33.8896 C33.333,32.9706 34.081,32.2236 35,32.2236 Z M41.5283,38.9443 L40.1463,38.4043 L39.1833,38.0273 L38.3193,38.5953 C38.0723,38.7583 37.8283,38.8973 37.5953,39.0073 L36.6323,39.4663 L36.4763,40.5223 L36.2753,41.8893 L33.7273,41.8893 L33.5273,40.5243 L33.3713,39.4653 L32.4043,39.0073 C32.1633,38.8933 31.9223,38.7573 31.6883,38.6013 L30.8213,38.0263 L29.8523,38.4053 L28.4753,38.9443 L27.2423,36.8653 L28.3413,36.0263 L29.2143,35.3613 L29.1223,34.2683 C29.1113,34.1363 29.1043,34.0123 29.1043,33.8903 C29.1043,33.7683 29.1113,33.6433 29.1223,33.5103 L29.2143,32.4183 L28.3413,31.7533 L27.2433,30.9163 L28.4753,28.8363 L29.8563,29.3763 L30.8223,29.7553 L31.6873,29.1833 C31.9283,29.0243 32.1743,28.8833 32.4183,28.7663 L33.3733,28.3053 L33.5273,27.2563 L33.7283,25.8893 L36.2753,25.8893 L36.4763,27.2563 L36.6323,28.3153 L37.5993,28.7723 C37.8423,28.8873 38.0833,29.0243 38.3143,29.1773 L39.1813,29.7563 L40.1523,29.3753 L41.5283,28.8363 L42.7603,30.9153 L41.6633,31.7523 L40.7923,32.4173 L40.8823,33.5083 C40.8943,33.6433 40.8993,33.7653 40.8993,33.8903 C40.8993,34.0143 40.8943,34.1363 40.8823,34.2693 L40.7913,35.3633 L41.6643,36.0283 L42.7613,36.8643 L41.5283,38.9443 Z M42.8763,34.4373 C42.8923,34.2463 42.8993,34.0693 42.8993,33.8903 C42.8993,33.7113 42.8923,33.5353 42.8763,33.3423 L44.5113,32.0943 C45.0063,31.7153 45.1433,31.0443 44.8393,30.4983 L42.9423,27.2993 C42.7183,26.9023 42.2813,26.6703 41.8243,26.6703 C41.6743,26.6703 41.5243,26.6943 41.3783,26.7463 L39.4233,27.5123 C39.1123,27.3063 38.7883,27.1223 38.4553,26.9653 L38.1603,24.9613 C38.0833,24.3503 37.5373,23.8893 36.8913,23.8893 L33.1133,23.8893 C32.4673,23.8893 31.9203,24.3553 31.8423,24.9703 L31.5493,26.9653 C31.2263,27.1203 30.9033,27.3043 30.5863,27.5133 L28.6473,26.7553 C28.4943,26.6963 28.3353,26.6683 28.1773,26.6683 C27.7203,26.6683 27.2823,26.9053 27.0543,27.3123 L25.1753,30.4803 C24.8513,31.0143 24.9863,31.7073 25.4883,32.0933 L27.1293,33.3433 C27.1133,33.5343 27.1043,33.7153 27.1043,33.8903 C27.1043,34.0663 27.1133,34.2473 27.1293,34.4363 L25.4913,35.6853 C24.9973,36.0663 24.8593,36.7373 25.1663,37.2833 L27.0613,40.4813 C27.2843,40.8783 27.7203,41.1113 28.1773,41.1113 C28.3273,41.1113 28.4783,41.0863 28.6263,41.0333 L30.5823,40.2673 C30.8933,40.4753 31.2183,40.6593 31.5493,40.8153 L31.8433,42.8213 C31.9223,43.4303 32.4673,43.8893 33.1133,43.8893 L36.8913,43.8893 C37.5373,43.8893 38.0843,43.4253 38.1623,42.8093 L38.4553,40.8133 C38.7773,40.6603 39.0993,40.4763 39.4183,40.2663 L41.3563,41.0253 C41.5153,41.0863 41.6783,41.1153 41.8383,41.1153 C42.2933,41.1153 42.7183,40.8793 42.9503,40.4673 L44.8303,37.2963 C45.1403,36.7443 45.0073,36.0663 44.5163,35.6873 L42.8763,34.4373 Z" id="path-1"></path>
    </defs>
    <g id="Atoms/Icons_#333/Settings-and-Help/Profile-Settings" stroke="none" stroke-width="1" fill="none" fill-rule="evenodd">
        <mask id="mask-2" fill="white">
            <use xlink:href="#path-1"></use>
        </mask>
        <use id="Mask" fill="#333333" xlink:href="#path-1"></use>
    </g>
</svg>