<?xml version="1.0" encoding="UTF-8"?>
<svg width="48px" height="48px" viewBox="0 0 48 48" version="1.1" xmlns="http://www.w3.org/2000/svg" xmlns:xlink="http://www.w3.org/1999/xlink">
    <!-- Generator: Sketch 50.2 (55047) - http://www.bohemiancoding.com/sketch -->
    <title>Atoms/Icons_#333/Rewards/Rewards</title>
    <desc>Created with Sketch.</desc>
    <defs>
        <path d="M35.836302,11.9825 L42,11.9825 C43.657,11.9825 45,13.3255 45,14.9825 L45,19.9825 C45,21.6395 43.657,22.9825 42,22.9825 L42,40.9825 C42,42.6395 40.657,43.9825 39,43.9825 L9,43.9825 C7.343,43.9825 6,42.6395 6,40.9825 L6,22.9825 C4.343,22.9825 3,21.6395 3,19.9825 L3,14.9825 C3,13.3255 4.343,11.9825 6,11.9825 L12.163498,11.9825 C11.9221067,11.4588196 11.7674,10.8781902 11.7674,10.2501 C11.7674,7.3621 14.1294,5.0001 17.0174,5.0001 C20.0624,5.0001 22.1624,7.3101 23.5274,9.2521 C23.6854,9.5151 23.8424,9.7771 24.0004,10.0401 C24.1574,9.7771 24.3154,9.5151 24.4724,9.2521 C25.8374,7.3101 27.9374,5.0001 30.9824,5.0001 C33.8704,5.0001 36.2324,7.3621 36.2324,10.2501 C36.2324,10.8781902 36.0776933,11.4588196 35.836302,11.9825 Z M23,19.9825 L23,17.9825 L26,17.9825 L26,19.9825 L42,19.9825 L42,14.9825 L6,14.9825 L6,19.9825 L23,19.9825 Z M26,40.9825 L39,40.9825 L39,22.9825 L9,22.9825 L9,40.9825 L23,40.9825 L23,25.9825 L26,25.9825 L26,40.9825 Z M17.0174,8.0001 C15.7764,8.0001 14.7674,9.0101 14.7674,10.2501 C14.7674,10.8201 15.3934,11.5231 15.9294,11.9821 L21.6674,11.9821 L21.4274,11.5841 L21.2014,11.2071 L21.0124,10.8931 C19.6094,8.9201 18.3374,8.0001 17.0174,8.0001 Z M30.9824,8.0001 C29.6624,8.0001 28.3904,8.9201 26.9874,10.8931 L26.7984,11.2071 L26.5724,11.5841 L26.3334,11.9821 L32.0714,11.9821 C32.6264,11.5111 33.2324,10.8171 33.2324,10.2501 C33.2324,9.0101 32.2234,8.0001 30.9824,8.0001 Z" id="path-1"></path>
    </defs>
    <g id="Atoms/Icons_#333/Rewards/Rewards" stroke="none" stroke-width="1" fill="none" fill-rule="evenodd">
        <mask id="mask-2" fill="white">
            <use xlink:href="#path-1"></use>
        </mask>
        <use id="Mask" fill="#333333" xlink:href="#path-1"></use>
    </g>
</svg>