<?xml version="1.0" encoding="UTF-8"?>
<svg width="48px" height="48px" viewBox="0 0 48 48" version="1.1" xmlns="http://www.w3.org/2000/svg" xmlns:xlink="http://www.w3.org/1999/xlink">
    <!-- Generator: Sketch 59 (86127) - https://sketch.com -->
    <title>Atoms/Icons/Interface/Shopping Bag V1</title>
    <desc>Created with Sketch.</desc>
    <defs>
        <path d="M37,35 L12,35 L12,16 L18,16 L18,19 C18,19.828 18.672,20.5 19.5,20.5 C20.328,20.5 21,19.828 21,19 L21,16 L29,16 L29,19 C29,19.828 29.672,20.5 30.5,20.5 C31.328,20.5 32,19.828 32,19 L32,16 L37,16 L37,35 Z M12,41 L37,41 L37,37 L12,37 L12,41 Z M21,10.5 C21,8.294 22.794,6.5 25,6.5 C27.206,6.5 29,8.294 29,10.5 L29,12 L21,12 L21,10.5 Z M32,12 L32,10.5 C32,6.641 28.859,3.5 25,3.5 C21.141,3.5 18,6.641 18,10.5 L18,12 L8,12 L8,42 C8,43.657 9.343,45 11,45 L38,45 C39.657,45 41,43.657 41,42 L41,12 L32,12 Z" id="path-1"></path>
    </defs>
    <g id="Atoms/Icons/Interface/Shopping-Bag-V1" stroke="none" stroke-width="1" fill="none" fill-rule="evenodd">
        <mask id="mask-2" fill="white">
            <use xlink:href="#path-1"></use>
        </mask>
        <use id="Mask" fill="#333333" xlink:href="#path-1"></use>
    </g>
</svg>