<?xml version="1.0" encoding="UTF-8"?>
<svg width="50px" height="50px" viewBox="0 0 50 50" version="1.1" xmlns="http://www.w3.org/2000/svg" xmlns:xlink="http://www.w3.org/1999/xlink">
    <!-- Generator: Sketch 47.1 (45422) - http://www.bohemiancoding.com/sketch -->
    <title>icon_3</title>
    <desc>Created with Sketch.</desc>
    <defs></defs>
    <g id="171027---1st-draft" stroke="none" stroke-width="1" fill="none" fill-rule="evenodd">
        <g id="icon_3" fill="#000000">
            <path d="M26.4744027,0 C28.5449478,0 30.4561915,0.295787713 32.2081911,0.887372014 C33.9601908,1.47895631 35.4675705,2.32081365 36.7303754,3.41296928 C37.9931804,4.50512491 38.9772433,5.82479317 39.6825939,7.37201365 C40.3879444,8.91923413 40.7406143,10.6370782 40.7406143,12.5255973 C40.7406143,14.0728177 40.5415265,15.4550565 40.1433447,16.6723549 C39.745163,17.8896534 39.1763404,18.9590398 38.4368601,19.8805461 C37.6973797,20.8020524 36.8043283,21.5813392 35.7576792,22.21843 C34.71103,22.8555208 33.5392556,23.3674611 32.2423208,23.7542662 C35.4277747,24.5961362 37.8225176,26.006816 39.4266212,27.9863481 C41.0307247,29.9658802 41.8327645,32.4459464 41.8327645,35.4266212 C41.8327645,37.6791922 41.4061476,39.7042003 40.552901,41.5017065 C39.6996544,43.2992126 38.5335683,44.8293452 37.0546075,46.0921502 C35.5756468,47.3549551 33.8521145,48.3219534 31.883959,48.9931741 C29.9158036,49.6643947 27.805472,50 25.552901,50 C22.9590314,50 20.7406235,49.6757712 18.8976109,49.0273038 C17.0545983,48.3788363 15.4960246,47.485785 14.221843,46.3481229 C12.9476614,45.2104608 11.901028,43.8623514 11.0819113,42.3037543 C10.2627945,40.7451572 9.56883106,39.0557543 9,37.2354949 L11.5938567,36.1433447 C12.0716747,35.9385655 12.5494857,35.8361775 13.0273038,35.8361775 C13.4823686,35.8361775 13.8862326,35.9328773 14.2389078,36.1262799 C14.5915831,36.3196824 14.8589297,36.6211584 15.0409556,37.0307167 C15.0864621,37.1217297 15.1319679,37.2184295 15.1774744,37.3208191 C15.2229809,37.4232087 15.2684867,37.531285 15.3139932,37.6450512 C15.6325386,38.3048952 16.0193379,39.0500527 16.4744027,39.8805461 C16.9294676,40.7110394 17.5437959,41.4903263 18.3174061,42.21843 C19.0910164,42.9465338 20.0523265,43.5608621 21.2013652,44.0614334 C22.3504039,44.5620048 23.7781485,44.8122867 25.4846416,44.8122867 C27.1911348,44.8122867 28.6871381,44.5335637 29.9726962,43.9761092 C31.2582544,43.4186548 32.3276408,42.6962502 33.1808874,41.8088737 C34.034134,40.9214973 34.6769034,39.9317461 35.109215,38.8395904 C35.5415266,37.7474348 35.7576792,36.666672 35.7576792,35.5972696 C35.7576792,34.2775816 35.5813442,33.0716778 35.2286689,31.9795222 C34.8759937,30.8873666 34.2389125,29.9431212 33.3174061,29.1467577 C32.3958998,28.3503942 31.1217374,27.7246894 29.4948805,27.2696246 C27.8680237,26.8145597 25.7804451,26.5870307 23.2320819,26.5870307 L23.2320819,22.1843003 C25.302627,22.1615471 27.071665,21.9340181 28.5392491,21.5017065 C30.0068333,21.0693949 31.2070488,20.4778195 32.1399317,19.7269625 C33.0728147,18.9761055 33.7497135,18.0773659 34.1706485,17.0307167 C34.5915834,15.9840676 34.8020478,14.8236696 34.8020478,13.5494881 C34.8020478,12.138787 34.580207,10.9101304 34.1365188,9.86348123 C33.6928305,8.81683208 33.0841904,7.95222184 32.3105802,7.26962457 C31.53697,6.5870273 30.6211657,6.07508703 29.5631399,5.7337884 C28.5051142,5.39248976 27.3617809,5.221843 26.1331058,5.221843 C24.9044307,5.221843 23.7667857,5.40386621 22.7201365,5.76791809 C21.6734874,6.13196997 20.7463067,6.63822201 19.9385666,7.28668942 C19.1308265,7.93515683 18.4539276,8.70875546 17.9078498,9.60750853 C17.361772,10.5062616 16.9522198,11.4789481 16.6791809,12.5255973 C16.4971549,13.1854413 16.2241201,13.6632522 15.8600683,13.9590444 C15.4960164,14.2548365 15.0295819,14.4027304 14.4607509,14.4027304 C14.3469846,14.4027304 14.2275319,14.3970422 14.1023891,14.3856655 C13.9772462,14.3742889 13.8350406,14.3572242 13.6757679,14.334471 L10.5017065,13.7883959 C10.8202519,11.5585782 11.4345802,9.58476399 12.3447099,7.8668942 C13.2548396,6.1490244 14.4095493,4.70990341 15.8088737,3.54948805 C17.2081981,2.3890727 18.8122776,1.50739778 20.6211604,0.90443686 C22.4300432,0.301475939 24.3811044,0 26.4744027,0 Z" id="3"></path>
        </g>
    </g>
</svg>