<?xml version="1.0" encoding="UTF-8"?>
<svg width="50px" height="50px" viewBox="0 0 50 50" version="1.1" xmlns="http://www.w3.org/2000/svg" xmlns:xlink="http://www.w3.org/1999/xlink">
    <!-- Generator: Sketch 47.1 (45422) - http://www.bohemiancoding.com/sketch -->
    <title>icon_2</title>
    <desc>Created with Sketch.</desc>
    <defs></defs>
    <g id="171027---1st-draft" stroke="none" stroke-width="1" fill="none" fill-rule="evenodd">
        <g id="icon_2" fill="#000000">
            <path d="M26.1497585,0 C28.2431667,0 30.1985186,0.310555901 32.015873,0.931677019 C33.8332274,1.55279814 35.40326,2.45571066 36.7260179,3.64044168 C38.0487759,4.82517271 39.0897133,6.26868254 39.8488613,7.97101449 C40.6080093,9.67334645 40.9875776,11.6056943 40.9875776,13.7681159 C40.9875776,15.6084748 40.711528,17.3107812 40.1594203,18.8750863 C39.6073126,20.4393913 38.8596781,21.9404115 37.9164941,23.3781919 C36.9733102,24.8159722 35.8863646,26.2077227 34.6556246,27.5534852 C33.4248846,28.8992476 32.1193996,30.273745 30.7391304,31.6770186 L17.7301587,44.9965493 C18.6503382,44.7435 19.5820059,44.5422138 20.5251898,44.3926846 C21.4683737,44.2431555 22.3770373,44.168392 23.2512077,44.168392 L39.8143547,44.168392 C40.4814848,44.168392 41.0105801,44.3639272 41.4016563,44.7550035 C41.7927326,45.1460797 41.9882678,45.6521708 41.9882678,46.2732919 L41.9882678,50 L9,50 L9,47.8951001 C9,47.4580148 9.08626553,47.0094341 9.25879917,46.5493444 C9.43133282,46.0892547 9.71313354,45.6636781 10.1042098,45.2726018 L25.9427191,29.3650794 C27.2539748,28.0308192 28.4501901,26.7483383 29.531401,25.5175983 C30.6126118,24.2868584 31.5385285,23.0503858 32.3091787,21.8081435 C33.079829,20.5659013 33.6721856,19.3064246 34.0862664,18.0296756 C34.5003471,16.7529267 34.7073844,15.3899313 34.7073844,13.9406487 C34.7073844,12.4913661 34.477343,11.2203873 34.0172533,10.1276743 C33.5571636,9.03496118 32.9245497,8.13204865 32.1193927,7.41890959 C31.3142357,6.70577053 30.3710659,6.17092426 29.2898551,5.81435473 C28.2086442,5.4577852 27.0469351,5.27950311 25.8046929,5.27950311 C24.5624507,5.27950311 23.4122436,5.46353623 22.3540373,5.83160801 C21.2958309,6.19967978 20.3584122,6.71152191 19.5417529,7.36714976 C18.7250937,8.02277761 18.0349695,8.79916736 17.4713596,9.69634231 C16.9077497,10.5935173 16.5109282,11.5826953 16.2808834,12.6639061 C16.0968475,13.3310362 15.8207978,13.8141232 15.452726,14.1131815 C15.0846542,14.4122398 14.6015673,14.5617667 14.0034507,14.5617667 C13.8884282,14.5617667 13.7676565,14.5560157 13.6411318,14.5445135 C13.5146071,14.5330112 13.3708313,14.5157581 13.2097999,14.4927536 L10.0006901,13.9406487 C10.3227529,11.6862091 10.9438647,9.6905999 11.8640442,7.95376121 C12.7842236,6.21692253 13.9516837,4.76191063 15.3664596,3.58868185 C16.7812355,2.41545307 18.4030274,1.52404262 20.2318841,0.914423741 C22.0607407,0.304804865 24.0333458,0 26.1497585,0 Z" id="2"></path>
        </g>
    </g>
</svg>