<svg id="Group_6469" data-name="Group 6469" xmlns="http://www.w3.org/2000/svg" width="96" height="96" viewBox="0 0 96 96">
  <g id="Path_5376" data-name="Path 5376" fill="none">
    <path d="M48,0A48,48,0,1,1,0,48,48,48,0,0,1,48,0Z" stroke="none"/>
    <path d="M 48.00000381469727 2.000007629394531 C 41.78916168212891 2.000007629394531 35.76515960693359 3.215957641601562 30.09534454345703 5.614089965820312 C 24.61793518066406 7.930831909179688 19.69828796386719 11.24788665771484 15.47309112548828 15.47309112548828 C 11.24788665771484 19.69828796386719 7.930831909179688 24.61793518066406 5.614089965820312 30.09534454345703 C 3.215957641601562 35.76515960693359 2.000007629394531 41.78916168212891 2.000007629394531 48.00000381469727 C 2.000007629394531 54.21084594726562 3.215957641601562 60.23484802246094 5.614089965820312 65.9046630859375 C 7.930831909179688 71.38207244873047 11.24788665771484 76.30171966552734 15.47309112548828 80.52691650390625 C 19.69828796386719 84.75212097167969 24.61793518066406 88.06917572021484 30.09534454345703 90.38591766357422 C 35.76515960693359 92.78404998779297 41.78916168212891 94 48.00000381469727 94 C 54.21084594726562 94 60.23484802246094 92.78404998779297 65.9046630859375 90.38591766357422 C 71.38207244873047 88.06917572021484 76.30171966552734 84.75212097167969 80.52691650390625 80.52691650390625 C 84.75212097167969 76.30171966552734 88.06917572021484 71.38207244873047 90.38591766357422 65.9046630859375 C 92.78404998779297 60.23484802246094 94 54.21084594726562 94 48.00000381469727 C 94 41.78916168212891 92.78404998779297 35.76515960693359 90.38591766357422 30.09534454345703 C 88.06917572021484 24.61793518066406 84.75212097167969 19.69828796386719 80.52691650390625 15.47309112548828 C 76.30171966552734 11.24788665771484 71.38207244873047 7.930831909179688 65.9046630859375 5.614089965820312 C 60.23484802246094 3.215957641601562 54.21084594726562 2.000007629394531 48.00000381469727 2.000007629394531 M 48.00000381469727 7.62939453125e-06 C 74.50967407226562 7.62939453125e-06 96 21.49033355712891 96 48.00000381469727 C 96 74.50967407226562 74.50967407226562 96 48.00000381469727 96 C 21.49033355712891 96 7.62939453125e-06 74.50967407226562 7.62939453125e-06 48.00000381469727 C 7.62939453125e-06 21.49033355712891 21.49033355712891 7.62939453125e-06 48.00000381469727 7.62939453125e-06 Z" stroke="none" fill="#009bdf"/>
  </g>
  <g id="Icon_Expressive_Contract_Sign" data-name="Icon Expressive —  Contract / Sign" transform="translate(8.527 8)">
    <rect id="Rectangle_1543" data-name="Rectangle 1543" width="80" height="80" fill="none"/>
    <path id="Path_4289_1_" d="M14,0,0,24H58L72,0Z" transform="translate(4 36)" fill="#80cdef"/>
    <g id="Icon_Contract_Sign" data-name="Icon — Contract / Sign" transform="translate(16 16)">
      <rect id="Rectangle_1529" data-name="Rectangle 1529" width="48" height="48" fill="#333" opacity="0"/>
      <g id="Group_5309" data-name="Group 5309" transform="translate(2.015 4.975)">
        <path id="Path_4428" data-name="Path 4428" d="M33.7,31c-2.5,1.7-4.6,2.3-6.4,1.8a5.71,5.71,0,0,1-2.1-1.3,5.087,5.087,0,0,0-7.3-.4,8.145,8.145,0,0,1-3.1,1.5,9.571,9.571,0,0,1-6.6-1.3,7.41,7.41,0,0,0,1.3-1.2c1.4-1.5,4.6-5.3,3.2-9.2-.6-1.8-2.2-3.9-4.6-3.9-2.7,0-4.4,2.7-4.8,3.5-2,3.7-.2,7.6,0,8.1A10.049,10.049,0,0,0,4.9,31a14,14,0,0,1-4,1.1A.945.945,0,0,0,0,33.2a.945.945,0,0,0,1.1.9,14.816,14.816,0,0,0,5.4-1.7,11.094,11.094,0,0,0,8.8,2.1,8.913,8.913,0,0,0,3.8-1.8,3.617,3.617,0,0,1,2.8-1,3.738,3.738,0,0,1,2,1.2,8.389,8.389,0,0,0,2.8,1.8,5.663,5.663,0,0,0,1.8.3,10.727,10.727,0,0,0,6.2-2.3.984.984,0,0,0,.3-1.4A.874.874,0,0,0,33.7,31Zm-27-1.1a6.914,6.914,0,0,1-1.6-2.2,7.312,7.312,0,0,1,0-6.3C5.3,21,6.5,19,8.2,19c1.4,0,2.3,1.4,2.8,2.5,1,2.9-1.8,6.2-2.7,7.1C7.7,29.1,7.2,29.5,6.7,29.9Z" fill="#333"/>
        <path id="Path_4429" data-name="Path 4429" d="M43.4,1a3.822,3.822,0,0,0-5.1,0L23.7,15.6l-.2.2-.1.1L21.1,22a.6.6,0,0,0-.1.4,1,1,0,0,0,1,1,.6.6,0,0,0,.4-.1l6.1-2.4h0c.1-.1.2-.1.3-.2L43.4,6.1A3.621,3.621,0,0,0,43.4,1ZM23.8,20.6l1-2.5.7.7.7.7ZM42,4.6,28.1,18.5l-2.2-2.2L39.7,2.4a1.569,1.569,0,0,1,2.2,0A1.488,1.488,0,0,1,42,4.6Z" fill="#333"/>
        <circle id="Ellipse_396" data-name="Ellipse 396" cx="1" cy="1" r="1" transform="translate(39 28)" fill="#333"/>
      </g>
    </g>
  </g>
</svg>
