<svg id="Icon_Display_Error" data-name="Icon Display — Error" xmlns="http://www.w3.org/2000/svg" width="128" height="128.002" viewBox="0 0 128 128.002">
  <g id="Group_6400" data-name="Group 6400" transform="translate(-129 -12309)">
    <path id="Path_5196" data-name="Path 5196" d="M1569,488a64,64,0,0,1,0-128,1.03,1.03,0,0,1,.21.022.58.58,0,0,1,.213-.021A64,64,0,0,1,1569,488Zm.206-126.021A1,1,0,0,1,1569,362a61.948,61.948,0,1,0,.409,0A.97.97,0,0,1,1569.206,361.979Z" transform="translate(-1376 11949.002)" fill="#cd0d42"/>
    <path id="Path_5197" data-name="Path 5197" d="M1569,450.5a1,1,0,0,1-1-1v-65a1,1,0,0,1,2,0v65A1,1,0,0,1,1569,450.5Z" transform="translate(-1376 11949.002)" fill="#cd0d42"/>
    <path id="Path_5198" data-name="Path 5198" d="M1569,464.5a3,3,0,1,1,3-3A3,3,0,0,1,1569,464.5Zm0-4a1,1,0,1,0,1,1A1,1,0,0,0,1569,460.5Z" transform="translate(-1376 11949.002)" fill="#cd0d42"/>
  </g>
  <rect id="Rectangle_1853" data-name="Rectangle 1853" width="128" height="128" fill="#7b1b67" opacity="0"/>
</svg>
