<svg id="Icon_Display_Fail" data-name="Icon Display — Fail" xmlns="http://www.w3.org/2000/svg" width="128" height="128.002" viewBox="0 0 128 128.002">
  <rect id="Rectangle_1855" data-name="Rectangle 1855" width="128" height="128" fill="#7b1b67" opacity="0"/>
  <path id="Path_5199" data-name="Path 5199" d="M1569.423,528a2.071,2.071,0,0,0-.213.021A1.033,1.033,0,0,0,1569,528a63.936,63.936,0,1,0,.423,0ZM1569,654a62,62,0,0,1,0-124,1,1,0,0,0,.206-.021.972.972,0,0,0,.2.022A62,62,0,0,1,1569,654Z" transform="translate(-1505 -527.998)" fill="#cd0d42"/>
  <path id="Path_5200" data-name="Path 5200" d="M1599.707,561.293a1,1,0,0,0-1.414,0L1569,590.586l-29.293-29.293a1,1,0,0,0-1.414,1.414L1567.586,592l-29.293,29.293a1,1,0,1,0,1.414,1.414L1569,593.414l29.293,29.293a1,1,0,0,0,1.414-1.414L1570.414,592l29.293-29.293A1,1,0,0,0,1599.707,561.293Z" transform="translate(-1505 -527.998)" fill="#cd0d42"/>
</svg>
