<svg id="Group_6469" data-name="Group 6469" xmlns="http://www.w3.org/2000/svg" width="96" height="96" viewBox="0 0 96 96">
  <g id="Path_5376" data-name="Path 5376" fill="none">
    <path d="M48,0A48,48,0,1,1,0,48,48,48,0,0,1,48,0Z" stroke="none"/>
    <path d="M 48.00000381469727 2.000007629394531 C 41.78916168212891 2.000007629394531 35.76515960693359 3.215957641601562 30.09534454345703 5.614089965820312 C 24.61793518066406 7.930831909179688 19.69828796386719 11.24788665771484 15.47309112548828 15.47309112548828 C 11.24788665771484 19.69828796386719 7.930831909179688 24.61793518066406 5.614089965820312 30.09534454345703 C 3.215957641601562 35.76515960693359 2.000007629394531 41.78916168212891 2.000007629394531 48.00000381469727 C 2.000007629394531 54.21084594726562 3.215957641601562 60.23484802246094 5.614089965820312 65.9046630859375 C 7.930831909179688 71.38207244873047 11.24788665771484 76.30171966552734 15.47309112548828 80.52691650390625 C 19.69828796386719 84.75212097167969 24.61793518066406 88.06917572021484 30.09534454345703 90.38591766357422 C 35.76515960693359 92.78404998779297 41.78916168212891 94 48.00000381469727 94 C 54.21084594726562 94 60.23484802246094 92.78404998779297 65.9046630859375 90.38591766357422 C 71.38207244873047 88.06917572021484 76.30171966552734 84.75212097167969 80.52691650390625 80.52691650390625 C 84.75212097167969 76.30171966552734 88.06917572021484 71.38207244873047 90.38591766357422 65.9046630859375 C 92.78404998779297 60.23484802246094 94 54.21084594726562 94 48.00000381469727 C 94 41.78916168212891 92.78404998779297 35.76515960693359 90.38591766357422 30.09534454345703 C 88.06917572021484 24.61793518066406 84.75212097167969 19.69828796386719 80.52691650390625 15.47309112548828 C 76.30171966552734 11.24788665771484 71.38207244873047 7.930831909179688 65.9046630859375 5.614089965820312 C 60.23484802246094 3.215957641601562 54.21084594726562 2.000007629394531 48.00000381469727 2.000007629394531 M 48.00000381469727 7.62939453125e-06 C 74.50967407226562 7.62939453125e-06 96 21.49033355712891 96 48.00000381469727 C 96 74.50967407226562 74.50967407226562 96 48.00000381469727 96 C 21.49033355712891 96 7.62939453125e-06 74.50967407226562 7.62939453125e-06 48.00000381469727 C 7.62939453125e-06 21.49033355712891 21.49033355712891 7.62939453125e-06 48.00000381469727 7.62939453125e-06 Z" stroke="none" fill="#009bdf"/>
  </g>
  <g id="Icon_Expressive_Internet_Share_Group_Sharing" data-name="Icon Expressive —  Internet Share / Group Sharing" transform="translate(8.527 8)">
    <rect id="Rectangle_1534" data-name="Rectangle 1534" width="80" height="80" fill="none"/>
    <path id="Path_4493" data-name="Path 4493" d="M32.1,39.166H45.067l-.015-1.016s-.1-6.582-.1-6.925a7.023,7.023,0,0,0-5.524-6.739,5,5,0,1,0-4.915.02,7.575,7.575,0,0,0-2.937,1.642l-1.93-.086,1.5,1.753A6.952,6.952,0,0,1,32.828,32.4c-.008.305-.293,3-.6,5.655Z" transform="translate(16.052 16.834)" fill="#82cdef" fill-rule="evenodd"/>
    <path id="Path_4494" data-name="Path 4494" d="M13.413,24.492a5,5,0,1,0-4.94-.006,7.023,7.023,0,0,0-5.525,6.739v7.941H15.884l-.167-1.145c-.44-3.007-.756-5.324-.769-5.616A6.927,6.927,0,0,1,17.4,27.036l1.853-1.609-4.02-.237A8.518,8.518,0,0,0,13.413,24.492Z" transform="translate(16.052 16.834)" fill="#82cdef" fill-rule="evenodd"/>
    <g id="Icon_Group_sharing" data-name="Icon — Group sharing" transform="translate(16 16)">
      <rect id="Transparent_BG" data-name="Transparent BG" width="48" height="48" fill="#333" opacity="0"/>
      <path id="Path_3697" data-name="Path 3697" d="M919.94-85.747a7.636,7.636,0,0,1-7.627-7.627A7.635,7.635,0,0,1,919.94-101a7.635,7.635,0,0,1,7.626,7.626A7.635,7.635,0,0,1,919.94-85.747Zm0-13.253a5.633,5.633,0,0,0-5.627,5.626,5.633,5.633,0,0,0,5.627,5.627,5.633,5.633,0,0,0,5.626-5.627A5.633,5.633,0,0,0,919.94-99Z" transform="translate(-896 111)" fill="#333"/>
      <path id="Path_4494-2" data-name="Path 4494" d="M34.092,41.166h-20.3l-.139-.837c-.065-.391-.65-5.31-.65-5.924,0-5.474,4.7-9.6,10.94-9.6s10.94,4.129,10.94,9.6c0,.606-.586,5.531-.65,5.923Zm-18.577-2h16.85c.181-1.49.509-4.394.515-4.764,0-4.4-3.76-7.6-8.94-7.6S15,30,15,34.4C15.006,34.777,15.333,37.678,15.515,39.166Z" transform="translate(0 -1)" fill="#333"/>
    </g>
  </g>
</svg>
