<svg id="Group_6469" data-name="Group 6469" xmlns="http://www.w3.org/2000/svg" width="96" height="96" viewBox="0 0 96 96">
  <g id="Path_5376" data-name="Path 5376" fill="none">
    <path d="M48,0A48,48,0,1,1,0,48,48,48,0,0,1,48,0Z" stroke="none"/>
    <path d="M 48.00000381469727 2.000007629394531 C 41.78916168212891 2.000007629394531 35.76515960693359 3.215957641601562 30.09534454345703 5.614089965820312 C 24.61793518066406 7.930831909179688 19.69828796386719 11.24788665771484 15.47309112548828 15.47309112548828 C 11.24788665771484 19.69828796386719 7.930831909179688 24.61793518066406 5.614089965820312 30.09534454345703 C 3.215957641601562 35.76515960693359 2.000007629394531 41.78916168212891 2.000007629394531 48.00000381469727 C 2.000007629394531 54.21084594726562 3.215957641601562 60.23484802246094 5.614089965820312 65.9046630859375 C 7.930831909179688 71.38207244873047 11.24788665771484 76.30171966552734 15.47309112548828 80.52691650390625 C 19.69828796386719 84.75212097167969 24.61793518066406 88.06917572021484 30.09534454345703 90.38591766357422 C 35.76515960693359 92.78404998779297 41.78916168212891 94 48.00000381469727 94 C 54.21084594726562 94 60.23484802246094 92.78404998779297 65.9046630859375 90.38591766357422 C 71.38207244873047 88.06917572021484 76.30171966552734 84.75212097167969 80.52691650390625 80.52691650390625 C 84.75212097167969 76.30171966552734 88.06917572021484 71.38207244873047 90.38591766357422 65.9046630859375 C 92.78404998779297 60.23484802246094 94 54.21084594726562 94 48.00000381469727 C 94 41.78916168212891 92.78404998779297 35.76515960693359 90.38591766357422 30.09534454345703 C 88.06917572021484 24.61793518066406 84.75212097167969 19.69828796386719 80.52691650390625 15.47309112548828 C 76.30171966552734 11.24788665771484 71.38207244873047 7.930831909179688 65.9046630859375 5.614089965820312 C 60.23484802246094 3.215957641601562 54.21084594726562 2.000007629394531 48.00000381469727 2.000007629394531 M 48.00000381469727 7.62939453125e-06 C 74.50967407226562 7.62939453125e-06 96 21.49033355712891 96 48.00000381469727 C 96 74.50967407226562 74.50967407226562 96 48.00000381469727 96 C 21.49033355712891 96 7.62939453125e-06 74.50967407226562 7.62939453125e-06 48.00000381469727 C 7.62939453125e-06 21.49033355712891 21.49033355712891 7.62939453125e-06 48.00000381469727 7.62939453125e-06 Z" stroke="none" fill="#009bdf"/>
  </g>
  <g id="Icon_Expressive_Scan_to_Pay" data-name="Icon Expressive — Scan to Pay" transform="translate(8.527 8)">
    <rect id="Rectangle_2321" data-name="Rectangle 2321" width="80" height="80" fill="#f4f4f4" opacity="0.001"/>
    <path id="Path_5585" data-name="Path 5585" d="M22.977,5.35H47.753l-27.224,50H-4.247Z" transform="translate(18.247 9.649)" fill="#80cdef"/>
    <g id="Icon_Scan_to_Pay" data-name="Icon — Scan to Pay" transform="translate(16 16)">
      <rect id="Rectangle_1571" data-name="Rectangle 1571" width="48" height="48" fill="#333" opacity="0"/>
      <path id="Path_4503" data-name="Path 4503" d="M6-79a1,1,0,0,1-1-1v-8a5.006,5.006,0,0,1,5-5h9a1,1,0,0,1,1,1,1,1,0,0,1-1,1H10a3,3,0,0,0-3,3v8A1,1,0,0,1,6-79Z" transform="translate(0 98)" fill="#333"/>
      <path id="Path_4504" data-name="Path 4504" d="M42-79a1,1,0,0,1-1-1v-8a3,3,0,0,0-3-3H29a1,1,0,0,1-1-1,1,1,0,0,1,1-1h9a5.006,5.006,0,0,1,5,5v8A1,1,0,0,1,42-79Z" transform="translate(0 98)" fill="#333"/>
      <path id="Path_4505" data-name="Path 4505" d="M19-55H10a5.006,5.006,0,0,1-5-5v-8a1,1,0,0,1,1-1,1,1,0,0,1,1,1v8a3,3,0,0,0,3,3h9a1,1,0,0,1,1,1A1,1,0,0,1,19-55Z" transform="translate(0 98)" fill="#333"/>
      <path id="Path_4506" data-name="Path 4506" d="M38-55H29a1,1,0,0,1-1-1,1,1,0,0,1,1-1h9a3,3,0,0,0,3-3v-8a1,1,0,0,1,1-1,1,1,0,0,1,1,1v8A5.006,5.006,0,0,1,38-55Z" transform="translate(0 98)" fill="#333"/>
      <path id="Path_4507" data-name="Path 4507" d="M44-73H4a1,1,0,0,1-1-1,1,1,0,0,1,1-1H44a1,1,0,0,1,1,1A1,1,0,0,1,44-73Z" transform="translate(0 98)" fill="#333"/>
    </g>
  </g>
</svg>
