<svg id="Group_6469" data-name="Group 6469" xmlns="http://www.w3.org/2000/svg" width="96" height="96" viewBox="0 0 96 96">
  <g id="Path_5376" data-name="Path 5376" fill="none">
    <path d="M48,0A48,48,0,1,1,0,48,48,48,0,0,1,48,0Z" stroke="none"/>
    <path d="M 48.00000381469727 2.000007629394531 C 41.78916168212891 2.000007629394531 35.76515960693359 3.215957641601562 30.09534454345703 5.614089965820312 C 24.61793518066406 7.930831909179688 19.69828796386719 11.24788665771484 15.47309112548828 15.47309112548828 C 11.24788665771484 19.69828796386719 7.930831909179688 24.61793518066406 5.614089965820312 30.09534454345703 C 3.215957641601562 35.76515960693359 2.000007629394531 41.78916168212891 2.000007629394531 48.00000381469727 C 2.000007629394531 54.21084594726562 3.215957641601562 60.23484802246094 5.614089965820312 65.9046630859375 C 7.930831909179688 71.38207244873047 11.24788665771484 76.30171966552734 15.47309112548828 80.52691650390625 C 19.69828796386719 84.75212097167969 24.61793518066406 88.06917572021484 30.09534454345703 90.38591766357422 C 35.76515960693359 92.78404998779297 41.78916168212891 94 48.00000381469727 94 C 54.21084594726562 94 60.23484802246094 92.78404998779297 65.9046630859375 90.38591766357422 C 71.38207244873047 88.06917572021484 76.30171966552734 84.75212097167969 80.52691650390625 80.52691650390625 C 84.75212097167969 76.30171966552734 88.06917572021484 71.38207244873047 90.38591766357422 65.9046630859375 C 92.78404998779297 60.23484802246094 94 54.21084594726562 94 48.00000381469727 C 94 41.78916168212891 92.78404998779297 35.76515960693359 90.38591766357422 30.09534454345703 C 88.06917572021484 24.61793518066406 84.75212097167969 19.69828796386719 80.52691650390625 15.47309112548828 C 76.30171966552734 11.24788665771484 71.38207244873047 7.930831909179688 65.9046630859375 5.614089965820312 C 60.23484802246094 3.215957641601562 54.21084594726562 2.000007629394531 48.00000381469727 2.000007629394531 M 48.00000381469727 7.62939453125e-06 C 74.50967407226562 7.62939453125e-06 96 21.49033355712891 96 48.00000381469727 C 96 74.50967407226562 74.50967407226562 96 48.00000381469727 96 C 21.49033355712891 96 7.62939453125e-06 74.50967407226562 7.62939453125e-06 48.00000381469727 C 7.62939453125e-06 21.49033355712891 21.49033355712891 7.62939453125e-06 48.00000381469727 7.62939453125e-06 Z" stroke="none" fill="#009bdf"/>
  </g>
  <g id="Icon_Expressive_ID_Identity" data-name="Icon Expressive —  ID / Identity" transform="translate(8.527 8)">
    <rect id="Rectangle_2321" data-name="Rectangle 2321" width="80" height="80" fill="#f4f4f4" opacity="0.001"/>
    <rect id="Rectangle_2325" data-name="Rectangle 2325" width="40" height="28" rx="3" transform="translate(24 17)" fill="#80cdef"/>
    <g id="Icon_ID_Identity" data-name="Icon — ID / Identity" transform="translate(12 21)">
      <rect id="Rectangle_1664" data-name="Rectangle 1664" width="48" height="48" fill="#333" opacity="0"/>
      <path id="Path_5578" data-name="Path 5578" d="M42,9H6a3.009,3.009,0,0,0-3,3V36a3.009,3.009,0,0,0,3,3H42a3.009,3.009,0,0,0,3-3V12A3.009,3.009,0,0,0,42,9ZM11,23a5,5,0,1,1,5,5A5.006,5.006,0,0,1,11,23ZM24.983,37H7.017c.173-3.49,3.892-6,8.983-6S24.81,33.51,24.983,37ZM43,36a1.013,1.013,0,0,1-1,1H26.985c-.135-3.854-3.294-6.808-7.937-7.708a7,7,0,1,0-6.1,0c-4.363.846-7.423,3.5-7.887,7.02A.939.939,0,0,1,5,36V12a1.013,1.013,0,0,1,1-1H42a1.013,1.013,0,0,1,1,1Z" fill="#333"/>
      <path id="Path_5579" data-name="Path 5579" d="M38,18H27a1,1,0,0,0,0,2H38a1,1,0,0,0,0-2Z" fill="#333"/>
      <path id="Path_5580" data-name="Path 5580" d="M27,25h8a1,1,0,0,0,0-2H27a1,1,0,0,0,0,2Z" fill="#333"/>
      <path id="Path_5581" data-name="Path 5581" d="M32,28H27a1,1,0,0,0,0,2h5a1,1,0,0,0,0-2Z" fill="#333"/>
      <path id="Path_5582" data-name="Path 5582" d="M38,28H36a1,1,0,0,0,0,2h2a1,1,0,0,0,0-2Z" fill="#333"/>
    </g>
  </g>
</svg>
