<svg id="Icon_Food_and_Beverages_Dining" data-name="Icon — Food and Beverages / Dining" xmlns="http://www.w3.org/2000/svg" width="45" height="45" viewBox="0 0 45 45">
  <rect id="Rectangle_1060" data-name="Rectangle 1060" width="45" height="45" fill="#fff" opacity="0"/>
  <path id="Path_3134" data-name="Path 3134" d="M-471.6,101.253a.937.937,0,0,1-.848-.537,5.434,5.434,0,0,1-.549-2.329c0-4.781,5.639-8.387,13.118-8.387s13.134,3.6,13.134,8.383a5.447,5.447,0,0,1-.549,2.33.936.936,0,0,1-.847.537Zm23.459-.94h0Zm-11.737-8.437c-6.3,0-11.243,2.86-11.243,6.512a3.284,3.284,0,0,0,.159.991l22.185,0a3.293,3.293,0,0,0,.159-.992C-448.615,94.733-453.561,91.875-459.875,91.875Z" transform="translate(475.812 -69.375)" fill="#fff"/>
  <path id="Path_3135" data-name="Path 3135" d="M-436.233,111.938H-449.25a.938.938,0,0,1-.937-.937.938.938,0,0,1,.937-.937H-437.1l2.156-27.178h-16.09l.822,8.767a.938.938,0,0,1-.847,1.021.938.938,0,0,1-1.021-.846L-453,82.036a.937.937,0,0,1,.241-.719.937.937,0,0,1,.693-.307h18.134a.938.938,0,0,1,.689.3.937.937,0,0,1,.246.71l-2.3,29.053A.937.937,0,0,1-436.233,111.938Z" transform="translate(474.563 -68.813)" fill="#fff"/>
  <path id="Path_3136" data-name="Path 3136" d="M-442.731,81.369a.937.937,0,0,1-.938-.937V74.7a2.816,2.816,0,0,0-2.812-2.812h-6.192a.937.937,0,0,1-.937-.938.937.937,0,0,1,.937-.937h6.192a4.693,4.693,0,0,1,4.688,4.688v5.736A.937.937,0,0,1-442.731,81.369Z" transform="translate(474.601 -68.125)" fill="#fff"/>
  <path id="Path_3137" data-name="Path 3137" d="M-434.452,88.869h-16.611a.938.938,0,0,1-.937-.937.937.937,0,0,1,.938-.937h16.611a.938.938,0,0,1,.938.937A.938.938,0,0,1-434.452,88.869Z" transform="translate(474.5 -69.187)" fill="#fff"/>
  <path id="Path_3161" data-name="Path 3161" d="M-450.562,113.386h0l-18.75-.011A4.693,4.693,0,0,1-474,108.688,4.693,4.693,0,0,1-469.313,104l18.75.011a4.693,4.693,0,0,1,4.687,4.687A4.693,4.693,0,0,1-450.562,113.386Zm-18.75-7.511a2.816,2.816,0,0,0-2.812,2.813,2.816,2.816,0,0,0,2.813,2.813l18.75.011a2.816,2.816,0,0,0,2.813-2.813,2.815,2.815,0,0,0-2.812-2.812Z" transform="translate(475.875 -70.25)" fill="#fff"/>
  <path id="Path_3162" data-name="Path 3162" d="M-450.438,105.625h-18.75A2.816,2.816,0,0,1-472,102.813,2.816,2.816,0,0,1-469.187,100h18.75a2.816,2.816,0,0,1,2.813,2.813A2.816,2.816,0,0,1-450.438,105.625Zm-18.75-3.75a.939.939,0,0,0-.938.938.939.939,0,0,0,.938.937h18.75a.939.939,0,0,0,.938-.937.939.939,0,0,0-.938-.938Z" transform="translate(475.75 -70)" fill="#fff"/>
  <path id="Path_3163" data-name="Path 3163" d="M-454.708,110.562a.937.937,0,0,1-.422-.1l-9.314-4.687a.938.938,0,0,1-.416-1.259.936.936,0,0,1,1.259-.415l8.711,4.384,4.231-4.211a.938.938,0,0,1,1.327,0,.938.938,0,0,1,0,1.327l-4.711,4.687A.939.939,0,0,1-454.708,110.562Z" transform="translate(475.31 -70.25)" fill="#fff"/>
</svg>
