<svg id="Icon_Promotions_Discount_2" data-name="Icon — Promotions / Discount 2" xmlns="http://www.w3.org/2000/svg" width="48" height="48" viewBox="0 0 48 48">
  <rect id="Rectangle_1632" data-name="Rectangle 1632" width="48" height="48" fill="#fff" opacity="0"/>
  <path id="Path_4818" data-name="Path 4818" d="M-56,9H-66.267C-67.1,4.567-69.854,2-74,2s-6.9,2.567-7.733,7H-92a1,1,0,0,0-1,1V42a4,4,0,0,0,4,4h30a4,4,0,0,0,4-4V10A1,1,0,0,0-56,9ZM-74,4c3.677,0,5.146,2.486,5.7,5H-79.7C-79.146,6.486-77.677,4-74,4Zm17,38a2,2,0,0,1-2,2H-89a2,2,0,0,1-2-2V11h9.03c-.017.327-.03.658-.03,1v3a1,1,0,0,0,1,1,1,1,0,0,0,1-1V12c0-.313.011-.651.033-1h11.934c.022.349.033.687.033,1v3a1,1,0,0,0,1,1,1,1,0,0,0,1-1V12c0-.342-.013-.673-.03-1H-57Z" transform="translate(98)" fill="#fff"/>
  <path id="Path_4819" data-name="Path 4819" d="M-67.207,21.793l-15,15a1,1,0,0,0,0,1.414,1,1,0,0,0,.707.293,1,1,0,0,0,.707-.293l15-15a1,1,0,0,0,0-1.414A1,1,0,0,0-67.207,21.793Z" transform="translate(98)" fill="#fff"/>
  <path id="Path_4820" data-name="Path 4820" d="M-79,29a4,4,0,0,0,4-4,4,4,0,0,0-4-4,4,4,0,0,0-4,4A4,4,0,0,0-79,29Zm0-6a2,2,0,0,1,2,2,2,2,0,0,1-2,2,2,2,0,0,1-2-2A2,2,0,0,1-79,23Z" transform="translate(98)" fill="#fff"/>
  <path id="Path_4821" data-name="Path 4821" d="M-69,31a4,4,0,0,0-4,4,4,4,0,0,0,4,4,4,4,0,0,0,4-4A4,4,0,0,0-69,31Zm0,6a2,2,0,0,1-2-2,2,2,0,0,1,2-2,2,2,0,0,1,2,2A2,2,0,0,1-69,37Z" transform="translate(98)" fill="#fff"/>
</svg>
