<svg xmlns="http://www.w3.org/2000/svg" xmlns:xlink="http://www.w3.org/1999/xlink" width="45" height="45" viewBox="0 0 45 45">
  <defs>
    <clipPath id="clip-path">
      <rect width="45" height="45" fill="none"/>
    </clipPath>
  </defs>
  <g id="Icon_Transport" data-name="Icon — Transport" clip-path="url(#clip-path)">
    <rect id="Rectangle_1568" data-name="Rectangle 1568" width="45" height="45" fill="#fff" opacity="0"/>
    <rect id="Rectangle_895" data-name="Rectangle 895" width="34.165" height="1.875" transform="translate(3.75 16.875)" fill="#fff"/>
    <path id="Path_3321" data-name="Path 3321" d="M-258.844-524.216A5.162,5.162,0,0,1-264-529.373a5.162,5.162,0,0,1,5.156-5.156,5.162,5.162,0,0,1,5.156,5.156A5.162,5.162,0,0,1-258.844-524.216Zm0-8.437a3.285,3.285,0,0,0-3.281,3.281,3.285,3.285,0,0,0,3.281,3.281,3.285,3.285,0,0,0,3.281-3.281A3.285,3.285,0,0,0-258.844-532.654Z" transform="translate(270.563 563.592)" fill="#fff"/>
    <path id="Path_3322" data-name="Path 3322" d="M-238.844-524.216A5.162,5.162,0,0,1-244-529.373a5.162,5.162,0,0,1,5.156-5.156,5.162,5.162,0,0,1,5.156,5.156A5.162,5.162,0,0,1-238.844-524.216Zm0-8.437a3.285,3.285,0,0,0-3.281,3.281,3.285,3.285,0,0,0,3.281,3.281,3.285,3.285,0,0,0,3.281-3.281A3.285,3.285,0,0,0-238.844-532.654Z" transform="translate(269.313 563.592)" fill="#fff"/>
    <rect id="Rectangle_906" data-name="Rectangle 906" width="9.577" height="1.875" transform="translate(16.226 33.75)" fill="#fff"/>
    <path id="Path_3323" data-name="Path 3323" d="M-233.862-529.529h-2.027V-531.4h2.027c2.335,0,2.423-2.836,2.424-3.158v-5.811c.007-1.359-.408-2.652-2.871-7.631l-.081-.246-1.111-6.029a4.384,4.384,0,0,0-4.446-3.375h-11.048c-1.5.019-7.4,0-7.4,0h-5.022c-1.67,0-2.481.85-2.706,2.841v19.593a3.881,3.881,0,0,0,.937,2.908,2.508,2.508,0,0,0,1.694.645l.128,1.871a4.411,4.411,0,0,1-3.082-1.127,5.612,5.612,0,0,1-1.552-4.3l.006-19.744c.4-3.773,2.71-4.565,4.575-4.565h5.026s5.879.021,7.387,0h11.062a6.283,6.283,0,0,1,6.277,4.855l1.1,5.955c2.423,4.906,3.015,6.557,3.007,8.35v5.809C-229.562-532.82-230.461-529.529-233.862-529.529Z" transform="translate(270.813 565.154)" fill="#fff"/>
  </g>
</svg>
