<?xml version="1.0" encoding="UTF-8"?>
<svg width="24px" height="24px" viewBox="0 0 24 24" version="1.1" xmlns="http://www.w3.org/2000/svg" xmlns:xlink="http://www.w3.org/1999/xlink">
    <!-- Generator: sketchtool 48 (47235) - http://www.bohemiancoding.com/sketch -->
    <title>F8118A37-E85B-4CF9-983A-6BABCB809897</title>
    <desc>Created with sketchtool.</desc>
    <defs></defs>
    <g id="My-cart_item_01" stroke="none" stroke-width="1" fill="none" fill-rule="evenodd" transform="translate(-902.000000, -16.000000)">
        <g id="Group-2" fill="#009ADE" fill-rule="nonzero">
            <g id="icon/Remove" transform="translate(902.000000, 16.000000)">
                <path d="M12,0 C5.38341323,0 0,5.38341323 0,12 C0,18.6165868 5.38341323,24 12,24 C18.6165868,24 24,18.6165868 24,12 C24,5.38341323 18.6165868,0 12,0 Z M12,1.8 C17.6433243,1.8 22.2,6.3566766 22.2,12 C22.2,17.6433243 17.6433243,22.2 12,22.2 C6.3566766,22.2 1.8,17.6433243 1.8,12 C1.8,6.3566766 6.3566766,1.8 12,1.8 Z M15.3793939,6.89411255 L11.9852814,10.2882251 L8.59116882,6.89411255 L6.89411255,8.59116882 L10.2882251,11.9852814 L6.89411255,15.3793939 L8.59116882,17.0764502 L11.9852814,13.6823376 L15.3793939,17.0764502 L17.0764502,15.3793939 L13.6823376,11.9852814 L17.0764502,8.59116882 L15.3793939,6.89411255 Z" id="Shape"></path>
            </g>
        </g>
    </g>
</svg>