<?xml version="1.0" encoding="UTF-8"?>
<svg width="56px" height="41px" viewBox="0 0 56 41" version="1.1" xmlns="http://www.w3.org/2000/svg" xmlns:xlink="http://www.w3.org/1999/xlink">
    <!-- Generator: Sketch 46.2 (44496) - http://www.bohemiancoding.com/sketch -->
    <title>icons8-hand_scissors</title>
    <desc>Created with Sketch.</desc>
    <defs></defs>
    <g id="Mobile-Site" stroke="none" stroke-width="1" fill="none" fill-rule="evenodd">
        <g id="desktop_home" transform="translate(-615.000000, -1223.000000)" fill-rule="nonzero" fill="#FFFFFF">
            <g id="Group" transform="translate(40.000000, 1215.000000)">
                <g id="icons8-hand_scissors" transform="translate(575.000000, 7.512342)">
                    <path d="M18.8125,0.9375 C17.15625,0.90625 15.78125,1.25 14.9375,1.5 C14.914062,1.5 14.898438,1.5 14.875,1.5 L9.875,3.0625 C4.007812,4.867188 0,10.304688 0,16.4375 L0,27 C0,34.710938 6.289062,41 14,41 L33.8125,41 C36.25,41.054688 38.609376,39.625 39.5625,37.25 C40.164062,35.742188 40.078126,34.15625 39.5,32.75 C40.726562,32.101562 41.765626,31.054688 42.3125,29.6875 C42.9375,28.117188 42.835938,26.445312 42.1875,25 L50,25 C53.289062,25 56,22.289062 56,19 C56,15.710938 53.289062,13 50,13 L46.9375,13 L47.75,12.75 C50.898438,11.796876 52.703126,8.398438 51.75,5.25 C50.796876,2.101562 47.398438,0.296876 44.25,1.25 L27.375,6.4375 C27.226562,6.0625 27.054688,5.65625 26.8125,5.25 C25.8125,3.578126 23.789062,1.6875 20.5625,1.125 C19.960938,1.023438 19.367188,0.945312 18.8125,0.9375 Z M46.25,5 C47.03125,5.085938 47.695312,5.625 47.9375,6.4375 C48.265626,7.515626 47.640626,8.609376 46.5625,8.9375 L32.875,13.0625 L33.5625,15.3125 L33.5625,17 L50,17 C51.132812,17 52,17.867188 52,19 C52,20.132812 51.132812,21 50,21 L36.8125,21 L31.5625,18.9375 C30.804688,18.632812 30.023438,18.484376 29.25,18.5 L28.1875,10.3125 L45.4375,5.0625 C45.710938,4.976562 45.992188,4.96875 46.25,5 Z M18.75,5.0625 C19.132812,5.0625 19.53125,5.0625 19.875,5.125 C22.023438,5.5 22.851562,6.4375 23.375,7.3125 C23.898438,8.1875 23.9375,8.8125 23.9375,8.8125 C23.9375,8.851562 23.9375,8.898438 23.9375,8.9375 L25.625,21.8125 C25.640626,21.875 25.664062,21.9375 25.6875,22 C25.9375,23.054688 25.304688,24.0625 24.25,24.3125 C23.601562,24.46875 23.273438,24.382812 22.9375,24.1875 C22.601562,23.992188 22.1875,23.578126 21.875,22.6875 L19.375,13 C19.21875,12.40625 18.796876,11.921876 18.242188,11.679688 C17.679688,11.4375 17.039062,11.460938 16.5,11.75 L13.1875,13.5625 C12.21875,14.09375 11.867188,15.3125 12.40625,16.28125 C12.9375,17.25 14.15625,17.601562 15.125,17.0625 L16.125,16.5 L18.0625,23.875 C18.078126,23.9375 18.101562,24 18.125,24.0625 C18.664062,25.609376 19.585938,26.851562 20.875,27.625 C21.929688,28.257812 23.15625,28.5 24.375,28.375 C23.742188,28.960938 23.21875,29.710938 22.875,30.5625 C21.960938,32.851562 22.539062,35.367188 24.1875,37 L14,37 C8.453126,37 4,32.546876 4,27 L4,16.4375 C4,12.039062 6.859376,8.171876 11.0625,6.875 L16.0625,5.375 C16.46875,5.25 17.609376,5.0625 18.75,5.0625 Z M29.625,22.5625 C29.773438,22.585938 29.914062,22.5625 30.0625,22.625 L37.5,25.625 C38.546876,26.046876 39.046876,27.140626 38.625,28.1875 C38.203126,29.234376 37.046876,29.734376 36,29.3125 L28.5625,26.375 C28.453126,26.335938 28.40625,26.242188 28.3125,26.1875 C29.101562,25.171876 29.609376,23.890626 29.625,22.5625 Z M28.375,30.8125 C28.640626,30.8125 28.921876,30.835938 29.1875,30.9375 L31.875,32 L34.5,33.0625 L34.75,33.125 C35.796876,33.546876 36.296876,34.703126 35.875,35.75 C35.570312,36.515626 34.890626,36.960938 34.125,37 C34.101562,37 34.085938,37 34.0625,37 C33.796876,37.007812 33.515626,36.976562 33.25,36.875 L27.6875,34.625 C26.640626,34.203126 26.140626,33.046876 26.5625,32 C26.773438,31.476562 27.15625,31.140626 27.625,30.9375 C27.859376,30.835938 28.109376,30.8125 28.375,30.8125 Z" id="Shape"></path>
                </g>
            </g>
        </g>
    </g>
</svg>