<?xml version="1.0" encoding="UTF-8"?>
<svg width="49px" height="49px" viewBox="0 0 49 49" version="1.1" xmlns="http://www.w3.org/2000/svg" xmlns:xlink="http://www.w3.org/1999/xlink">
    <!-- Generator: Sketch 46.2 (44496) - http://www.bohemiancoding.com/sketch -->
    <title>icons8-receive_cash</title>
    <desc>Created with Sketch.</desc>
    <defs></defs>
    <g id="Mobile-Site" stroke="none" stroke-width="1" fill="none" fill-rule="evenodd">
        <g id="desktop_home" transform="translate(-381.000000, -1217.000000)" fill-rule="nonzero" fill="#FFFFFF">
            <g id="Group" transform="translate(40.000000, 1215.000000)">
                <g id="icons8-receive_cash" transform="translate(341.171875, 2.026014)">
                    <path d="M26,0 C21.601562,0 18,3.601562 18,8 C18,10.960938 19.65625,13.554688 22.0625,14.9375 C22.023438,15.289062 22,15.632812 22,16 C22,21.5 26.5,26 32,26 C37.5,26 42,21.5 42,16 C42,11.101562 38.414062,6.960938 33.75,6.125 C32.90625,2.617188 29.757812,0 26,0 Z M26,4 C27.625,4 28.992188,4.945312 29.625,6.3125 C27.007812,6.960938 24.789062,8.671876 23.4375,10.9375 C22.578126,10.21875 22,9.21875 22,8 C22,5.765626 23.765626,4 26,4 Z M32,10 C35.335938,10 38,12.664062 38,16 C38,19.335938 35.335938,22 32,22 C28.664062,22 26,19.335938 26,16 C26,12.664062 28.664062,10 32,10 Z M14.9375,24 C8.546876,24 0.0625,27.5 0.0625,27.5 L1.5625,31.25 C1.5625,31.25 10.15625,28 14.9375,28 C16.875,28 20.179688,29.1875 22.875,30.5625 C24.21875,31.25 25.421876,31.96875 26.3125,32.5625 C26.757812,32.859376 27.132812,33.125 27.375,33.3125 C27.492188,33.40625 27.578126,33.515626 27.625,33.5625 L27.9375,34 C28.09375,34.445312 28.046876,34.945312 27.75,35.375 C27.367188,35.914062 26.6875,36.125 26.0625,35.9375 L26,35.9375 L17.3125,31.75 L15.625,35.375 L24.5,39.625 L24.5625,39.625 L24.6875,39.6875 C27,40.5 29.585938,39.695312 31,37.6875 C31.796876,36.554688 32.03125,35.226562 31.875,33.9375 L41.5,32.3125 C42.5625,32.132812 43.539062,32.796876 43.875,33.8125 C44.234376,34.890626 43.726562,35.984376 42.6875,36.4375 C39.757812,37.726562 35.046876,39.65625 30.8125,41.25 C28.695312,42.046876 26.671876,42.75 25.125,43.25 C24.351562,43.5 23.679688,43.6875 23.1875,43.8125 C22.695312,43.9375 22.296876,44 22.5,44 C22.625,44 21.820312,43.820312 20.875,43.3125 C19.929688,42.804688 18.742188,42.0625 17.5625,41.3125 C16.382812,40.5625 15.164062,39.804688 14,39.1875 C12.835938,38.570312 11.789062,38 10.375,38 C7.101562,38 4.1875,39.25 4.1875,39.25 L5.75,42.9375 C5.75,42.9375 8.195312,42 10.375,42 C10.320312,42 11.171876,42.179688 12.125,42.6875 C13.078126,43.195312 14.257812,43.9375 15.4375,44.6875 C16.617188,45.4375 17.796876,46.195312 18.9375,46.8125 C20.078126,47.429688 21.078126,48 22.5,48 C23.179688,48 23.570312,47.851562 24.1875,47.6875 C24.804688,47.523438 25.554688,47.328126 26.375,47.0625 C28.015626,46.53125 30.03125,45.8125 32.1875,45 C36.492188,43.382812 41.265626,41.46875 44.3125,40.125 C47.203126,38.851562 48.6875,35.492188 47.6875,32.5 C46.734376,29.640626 43.789062,27.882812 40.8125,28.375 L29.875,30.1875 C29.867188,30.179688 29.828126,30.195312 29.8125,30.1875 C29.75,30.140626 29.6875,30.046876 29.625,30 L29.0625,29.5625 L29.0625,29.625 C28.890626,29.5 28.765626,29.382812 28.5625,29.25 C27.523438,28.5625 26.171876,27.757812 24.6875,27 C21.710938,25.484376 18.21875,24 14.9375,24 Z" id="Shape"></path>
                </g>
            </g>
        </g>
    </g>
</svg>