<svg xmlns="http://www.w3.org/2000/svg" xmlns:xlink="http://www.w3.org/1999/xlink" width="19" height="18" viewBox="0 0 19 18">
    <defs>
        <path id="a" d="M0 0h18v18H0z"/>
    </defs>
    <g fill="none" fill-rule="evenodd">
        <g>
            <mask id="b" fill="#fff">
                <use xlink:href="#a"/>
            </mask>
            <path fill="#FFF" d="M16.056 7.218c.145.572.23 1.166.23 1.782 0 4.017-3.268 7.286-7.286 7.286-4.017 0-7.286-3.269-7.286-7.286 0-4.018 3.269-7.286 7.286-7.286a7.25 7.25 0 0 1 4.909 1.918l1.215-1.215A8.959 8.959 0 0 0 9 0a9 9 0 1 0 9 9c0-1.08-.2-2.112-.55-3.072l-1.394 1.29z" mask="url(#b)"/>
        </g>
        <path stroke="#FFF" stroke-width="2" d="M3 9.04L6.97 13 18 2"/>
    </g>
</svg>
