<?xml version="1.0" encoding="utf-8"?>
<!-- Generator: Adobe Illustrator 16.0.4, SVG Export Plug-In . SVG Version: 6.00 Build 0)  -->
<!DOCTYPE svg PUBLIC "-//W3C//DTD SVG 1.1//EN" "http://www.w3.org/Graphics/SVG/1.1/DTD/svg11.dtd">
<svg version="1.1" id="Ebene_1" xmlns="http://www.w3.org/2000/svg" xmlns:xlink="http://www.w3.org/1999/xlink" x="0px" y="0px"
	 width="39.685px" height="39.686px" viewBox="0 0 39.685 39.686" enable-background="new 0 0 39.685 39.686" xml:space="preserve">
<g>
	<path d="M86.912,4.573c0-2.391-1.944-4.334-4.334-4.334H-42.89c-2.393,0-4.339,1.943-4.339,4.334v30.543
		c0,2.388,1.946,4.33,4.339,4.33H82.578c2.392,0,4.336-1.942,4.336-4.33L86.912,4.573z M82.578,38.447H-42.89
		c-1.841,0-3.339-1.494-3.339-3.33V4.573c0-1.838,1.498-3.334,3.339-3.334H82.578c1.839,0,3.334,1.496,3.334,3.334l0.002,30.543
		C85.912,36.952,84.417,38.447,82.578,38.447z"/>
	<g>
		<g>
			<path d="M-17.491,19.633c-0.029-3.224,2.639-4.791,2.761-4.863c-1.511-2.203-3.853-2.505-4.676-2.527
				c-1.967-0.207-3.875,1.176-4.877,1.176c-1.022,0-2.565-1.156-4.229-1.123c-2.14,0.033-4.142,1.273-5.238,3.197
				c-2.268,3.922-0.576,9.688,1.595,12.857c1.086,1.554,2.354,3.287,4.016,3.226c1.625-0.065,2.232-1.035,4.193-1.035
				c1.942,0,2.513,1.035,4.207,0.996c1.744-0.026,2.842-1.56,3.89-3.127c1.255-1.778,1.759-3.532,1.779-3.623
				C-14.112,24.773-17.458,23.495-17.491,19.633z"/>
			<path d="M-20.691,10.156c0.874-1.094,1.472-2.58,1.306-4.09c-1.265,0.057-2.847,0.875-3.758,1.943
				c-0.806,0.942-1.524,2.485-1.34,3.938C-23.062,12.054-21.603,11.232-20.691,10.156z"/>
		</g>
	</g>
	<g>
		<path d="M6.027,31.353H3.755l-1.244-3.908h-4.324l-1.185,3.908h-2.211l4.282-13.309H1.72L6.027,31.353z M2.136,25.804
			l-1.125-3.475c-0.119-0.355-0.342-1.191-0.671-2.508H0.3c-0.131,0.565-0.342,1.401-0.632,2.508l-1.105,3.475H2.136z"/>
		<path d="M17.043,26.437c0,1.633-0.441,2.922-1.323,3.869c-0.79,0.844-1.771,1.264-2.941,1.264c-1.265,0-2.172-0.453-2.726-1.36
			h-0.04v5.055H7.881V24.915c0-1.025-0.026-2.078-0.079-3.158h1.875l0.119,1.521h0.04c0.711-1.146,1.79-1.72,3.237-1.72
			c1.133,0,2.076,0.447,2.832,1.343C16.665,23.798,17.043,24.976,17.043,26.437z M14.87,26.515c0-0.934-0.211-1.703-0.633-2.311
			c-0.461-0.631-1.08-0.947-1.854-0.947c-0.524,0-1.004,0.176-1.433,0.523c-0.428,0.35-0.707,0.807-0.838,1.373
			c-0.065,0.264-0.1,0.479-0.1,0.648v1.602c0,0.696,0.215,1.285,0.643,1.768c0.429,0.48,0.983,0.721,1.668,0.721
			c0.804,0,1.429-0.311,1.875-0.928C14.648,28.345,14.87,27.529,14.87,26.515z"/>
		<path d="M28.08,26.437c0,1.633-0.441,2.922-1.324,3.869c-0.789,0.844-1.77,1.264-2.941,1.264c-1.264,0-2.172-0.453-2.724-1.36
			h-0.04v5.055h-2.132V24.915c0-1.025-0.026-2.078-0.079-3.158h1.875l0.119,1.521h0.04c0.71-1.146,1.788-1.72,3.237-1.72
			c1.131,0,2.076,0.447,2.834,1.343C27.701,23.798,28.08,24.976,28.08,26.437z M25.908,26.515c0-0.934-0.211-1.703-0.633-2.311
			c-0.461-0.631-1.078-0.947-1.855-0.947c-0.527,0-1.004,0.176-1.432,0.523c-0.429,0.35-0.707,0.807-0.838,1.373
			c-0.065,0.264-0.101,0.479-0.101,0.648v1.602c0,0.696,0.214,1.285,0.642,1.768c0.428,0.48,0.982,0.721,1.67,0.721
			c0.803,0,1.428-0.311,1.875-0.928C25.684,28.345,25.908,27.529,25.908,26.515z"/>
		<path d="M40.42,27.62c0,1.133-0.393,2.054-1.182,2.765c-0.867,0.776-2.074,1.165-3.625,1.165c-1.434,0-2.58-0.275-3.449-0.829
			l0.494-1.776c0.936,0.565,1.963,0.851,3.082,0.851c0.803,0,1.428-0.183,1.877-0.546c0.447-0.36,0.67-0.848,0.67-1.452
			c0-0.541-0.184-0.995-0.553-1.364c-0.367-0.369-0.98-0.712-1.836-1.027c-2.33-0.869-3.494-2.144-3.494-3.816
			c0-1.094,0.408-1.991,1.225-2.688c0.814-0.699,1.9-1.048,3.258-1.048c1.211,0,2.217,0.211,3.02,0.632l-0.531,1.737
			c-0.75-0.407-1.6-0.611-2.549-0.611c-0.75,0-1.336,0.185-1.756,0.554c-0.354,0.327-0.531,0.729-0.531,1.204
			c0,0.525,0.201,0.961,0.609,1.304c0.355,0.315,1,0.657,1.938,1.026c1.146,0.461,1.984,1,2.525,1.617
			C40.151,25.93,40.42,26.7,40.42,27.62z"/>
		<path d="M47.469,23.357h-2.35v4.659c0,1.185,0.414,1.776,1.244,1.776c0.381,0,0.696-0.032,0.946-0.098l0.06,1.617
			c-0.42,0.157-0.973,0.236-1.658,0.236c-0.842,0-1.5-0.258-1.975-0.771s-0.711-1.375-0.711-2.586v-4.838h-1.4v-1.6h1.4v-1.758
			l2.094-0.631v2.389h2.35V23.357z"/>
		<path d="M58.073,26.476c0,1.475-0.422,2.686-1.265,3.633c-0.884,0.975-2.056,1.461-3.517,1.461c-1.408,0-2.529-0.467-3.365-1.399
			s-1.254-2.113-1.254-3.534c0-1.486,0.432-2.705,1.293-3.652c0.859-0.947,2.021-1.422,3.482-1.422c1.408,0,2.541,0.469,3.396,1.401
			C57.664,23.87,58.073,25.04,58.073,26.476z M55.86,26.544c0-0.885-0.188-1.643-0.57-2.276c-0.447-0.767-1.088-1.147-1.914-1.147
			c-0.856,0-1.51,0.384-1.955,1.147c-0.385,0.634-0.572,1.405-0.572,2.317c0,0.885,0.188,1.645,0.572,2.275
			c0.461,0.766,1.104,1.147,1.938,1.147c0.812,0,1.451-0.392,1.914-1.168C55.662,28.197,55.86,27.429,55.86,26.544z"/>
		<path d="M65.002,23.632c-0.211-0.039-0.436-0.059-0.672-0.059c-0.75,0-1.33,0.281-1.738,0.85c-0.355,0.5-0.533,1.132-0.533,1.895
			v5.035h-2.131l0.02-6.574c0-1.104-0.025-2.113-0.08-3.021h1.857l0.078,1.836h0.059c0.227-0.632,0.58-1.14,1.066-1.521
			c0.475-0.344,0.988-0.515,1.541-0.515c0.197,0,0.375,0.015,0.533,0.039V23.632z"/>
		<path d="M74.537,26.101c0,0.383-0.025,0.704-0.078,0.967h-6.396c0.025,0.948,0.334,1.674,0.928,2.174
			c0.539,0.447,1.236,0.67,2.094,0.67c0.945,0,1.812-0.149,2.588-0.453l0.334,1.48c-0.908,0.395-1.979,0.592-3.219,0.592
			c-1.486,0-2.654-0.438-3.506-1.312c-0.848-0.875-1.271-2.051-1.271-3.522c0-1.447,0.396-2.652,1.188-3.613
			c0.828-1.026,1.946-1.539,3.354-1.539c1.384,0,2.432,0.513,3.143,1.539C74.254,23.896,74.537,24.904,74.537,26.101z
			 M72.504,25.548c0.014-0.633-0.125-1.178-0.414-1.639c-0.369-0.594-0.936-0.891-1.699-0.891c-0.697,0-1.264,0.289-1.697,0.869
			c-0.354,0.461-0.564,1.016-0.631,1.657h4.441V25.548L72.504,25.548z"/>
	</g>
	<g>
		<g>
			<path d="M1.431,9.859c0,1.177-0.354,2.062-1.059,2.657c-0.652,0.55-1.58,0.824-2.782,0.824c-0.598,0-1.106-0.025-1.533-0.078
				V6.831c0.557-0.09,1.157-0.137,1.805-0.137c1.146,0,2.008,0.25,2.59,0.748C1.104,8.005,1.431,8.81,1.431,9.859z M0.324,9.887
				c0-0.763-0.2-1.349-0.604-1.757c-0.404-0.406-0.994-0.609-1.771-0.609c-0.33,0-0.609,0.021-0.844,0.066v4.89
				c0.129,0.021,0.365,0.028,0.708,0.028c0.802,0,1.421-0.223,1.857-0.668C0.106,11.391,0.324,10.741,0.324,9.887z"/>
			<path d="M7.29,10.886c0,0.726-0.207,1.318-0.621,1.785c-0.436,0.479-1.01,0.718-1.729,0.718c-0.69,0-1.242-0.229-1.652-0.688
				s-0.615-1.039-0.615-1.736c0-0.729,0.211-1.329,0.635-1.795c0.424-0.465,0.994-0.697,1.713-0.697c0.691,0,1.247,0.229,1.67,0.688
				C7.089,9.607,7.29,10.182,7.29,10.886z M6.202,10.919c0-0.434-0.094-0.807-0.28-1.118C5.7,9.425,5.389,9.239,4.982,9.239
				c-0.42,0-0.74,0.188-0.961,0.562c-0.188,0.312-0.281,0.69-0.281,1.139c0,0.436,0.096,0.809,0.281,1.118
				c0.229,0.376,0.543,0.564,0.951,0.564c0.4,0,0.715-0.191,0.939-0.574C6.107,11.732,6.202,11.356,6.202,10.919z"/>
			<path d="M15.148,8.569l-1.477,4.715h-0.96L12.1,11.237c-0.153-0.513-0.28-1.021-0.379-1.523H11.7
				c-0.09,0.519-0.217,1.025-0.379,1.523l-0.647,2.047H9.702L8.318,8.569h1.075l0.533,2.24c0.129,0.53,0.233,1.035,0.319,1.514h0.02
				c0.078-0.395,0.207-0.896,0.391-1.502l0.668-2.25h0.854l0.643,2.201c0.153,0.536,0.279,1.055,0.377,1.553h0.028
				c0.071-0.486,0.179-1.002,0.32-1.553l0.571-2.201h1.029V8.569H15.148z"/>
			<path d="M20.578,13.282h-1.048v-2.701c0-0.832-0.315-1.248-0.949-1.248c-0.312,0-0.562,0.115-0.758,0.344
				c-0.192,0.229-0.291,0.499-0.291,0.81v2.795h-1.049V9.916c0-0.414-0.013-0.863-0.037-1.35h0.92l0.051,0.736h0.027
				c0.123-0.229,0.306-0.418,0.543-0.568c0.285-0.177,0.604-0.266,0.951-0.266c0.439,0,0.805,0.143,1.096,0.428
				c0.364,0.35,0.544,0.869,0.544,1.562V13.282z"/>
			<path d="M23.469,13.282h-1.047V6.406h1.047V13.282z"/>
			<path d="M29.639,10.886c0,0.726-0.207,1.318-0.621,1.785c-0.434,0.479-1.01,0.718-1.727,0.718c-0.693,0-1.244-0.229-1.654-0.688
				s-0.615-1.039-0.615-1.736c0-0.729,0.211-1.329,0.635-1.795c0.426-0.465,0.994-0.697,1.711-0.697
				c0.693,0,1.248,0.229,1.672,0.688C29.438,9.607,29.639,10.182,29.639,10.886z M28.551,10.919c0-0.434-0.094-0.807-0.281-1.118
				c-0.219-0.376-0.533-0.562-0.938-0.562c-0.424,0-0.742,0.188-0.963,0.562c-0.188,0.312-0.279,0.69-0.279,1.139
				c0,0.436,0.095,0.809,0.279,1.118c0.229,0.376,0.545,0.564,0.951,0.564c0.4,0,0.713-0.191,0.939-0.574
				C28.455,11.732,28.551,11.356,28.551,10.919z"/>
			<path d="M34.711,13.282H33.77l-0.078-0.543h-0.027c-0.322,0.432-0.781,0.648-1.379,0.648c-0.443,0-0.805-0.144-1.074-0.427
				c-0.246-0.258-0.369-0.579-0.369-0.961c0-0.575,0.24-1.014,0.725-1.318c0.48-0.305,1.158-0.452,2.031-0.444v-0.089
				c0-0.62-0.324-0.932-0.979-0.932c-0.465,0-0.875,0.117-1.229,0.351l-0.213-0.689c0.438-0.271,0.979-0.406,1.617-0.406
				c1.231,0,1.851,0.65,1.851,1.949v1.736C34.643,12.628,34.666,13.003,34.711,13.282z M33.623,11.661v-0.728
				c-1.156-0.02-1.734,0.298-1.734,0.95c0,0.245,0.066,0.431,0.201,0.554c0.135,0.122,0.307,0.185,0.512,0.185
				c0.23,0,0.445-0.073,0.641-0.219c0.197-0.146,0.318-0.33,0.363-0.559C33.617,11.794,33.623,11.734,33.623,11.661z"/>
			<path d="M40.666,13.282h-0.93l-0.049-0.758h-0.029c-0.297,0.575-0.803,0.863-1.515,0.863c-0.567,0-1.04-0.224-1.415-0.669
				s-0.562-1.024-0.562-1.735c0-0.764,0.203-1.382,0.611-1.854c0.395-0.438,0.879-0.659,1.455-0.659
				c0.633,0,1.075,0.213,1.327,0.641h0.021V6.406h1.049v5.605C40.629,12.471,40.641,12.895,40.666,13.282z M39.58,11.294v-0.786
				c0-0.136-0.01-0.246-0.029-0.33c-0.059-0.252-0.186-0.464-0.379-0.636c-0.195-0.17-0.43-0.256-0.701-0.256
				c-0.391,0-0.697,0.154-0.922,0.465c-0.223,0.312-0.336,0.709-0.336,1.193c0,0.467,0.107,0.844,0.322,1.135
				c0.227,0.311,0.533,0.465,0.916,0.465c0.344,0,0.619-0.129,0.828-0.387C39.481,11.917,39.58,11.63,39.58,11.294z"/>
			<path d="M49.629,10.886c0,0.726-0.207,1.318-0.621,1.785c-0.434,0.479-1.008,0.718-1.727,0.718c-0.691,0-1.242-0.229-1.654-0.688
				c-0.41-0.459-0.615-1.039-0.615-1.736c0-0.729,0.211-1.329,0.635-1.795c0.424-0.465,0.994-0.697,1.713-0.697
				c0.691,0,1.248,0.229,1.668,0.688C49.428,9.607,49.629,10.182,49.629,10.886z M48.543,10.919c0-0.434-0.094-0.807-0.281-1.118
				c-0.221-0.376-0.533-0.562-0.941-0.562c-0.42,0-0.738,0.188-0.961,0.562c-0.188,0.312-0.279,0.69-0.279,1.139
				c0,0.436,0.094,0.809,0.279,1.118c0.229,0.376,0.543,0.564,0.951,0.564c0.4,0,0.715-0.191,0.941-0.574
				C48.446,11.732,48.543,11.356,48.543,10.919z"/>
			<path d="M55.264,13.282h-1.047v-2.701c0-0.832-0.316-1.248-0.951-1.248c-0.311,0-0.562,0.115-0.756,0.344
				c-0.193,0.229-0.291,0.499-0.291,0.81v2.795H51.17V9.916c0-0.414-0.012-0.863-0.037-1.35h0.92l0.049,0.736h0.029
				c0.123-0.229,0.305-0.418,0.543-0.568c0.285-0.177,0.602-0.266,0.951-0.266c0.439,0,0.805,0.143,1.096,0.428
				c0.363,0.35,0.543,0.869,0.543,1.562V13.282z"/>
			<path d="M62.317,9.354h-1.152v2.289c0,0.582,0.203,0.873,0.609,0.873c0.188,0,0.344-0.017,0.467-0.049l0.027,0.795
				c-0.207,0.078-0.479,0.116-0.814,0.116c-0.412,0-0.734-0.125-0.969-0.377c-0.233-0.252-0.35-0.676-0.35-1.271V9.354h-0.689V8.569
				h0.689V7.704l1.027-0.312v1.175h1.154V9.354L62.317,9.354z"/>
			<path d="M67.865,13.282h-1.049v-2.682c0-0.845-0.315-1.269-0.949-1.269c-0.485,0-0.817,0.246-1,0.736
				c-0.03,0.102-0.049,0.229-0.049,0.377v2.834h-1.047V6.406h1.047v2.84h0.021c0.33-0.517,0.803-0.774,1.416-0.774
				c0.435,0,0.793,0.143,1.078,0.428c0.354,0.354,0.532,0.883,0.532,1.581V13.282L67.865,13.282z"/>
			<path d="M73.588,10.702c0,0.188-0.014,0.346-0.039,0.475h-3.143c0.014,0.466,0.164,0.82,0.455,1.066
				c0.266,0.221,0.607,0.33,1.027,0.33c0.467,0,0.891-0.074,1.271-0.224l0.164,0.729c-0.446,0.193-0.974,0.291-1.582,0.291
				c-0.729,0-1.305-0.215-1.721-0.646c-0.418-0.431-0.625-1.007-0.625-1.73c0-0.711,0.192-1.303,0.582-1.774
				c0.405-0.504,0.954-0.757,1.647-0.757c0.678,0,1.192,0.253,1.541,0.757C73.449,9.618,73.588,10.115,73.588,10.702z
				 M72.588,10.431c0.008-0.311-0.061-0.579-0.203-0.805c-0.182-0.291-0.459-0.438-0.834-0.438c-0.342,0-0.621,0.143-0.834,0.428
				c-0.174,0.227-0.277,0.498-0.311,0.813L72.588,10.431L72.588,10.431z"/>
		</g>
	</g>
</g>
</svg>
