<?xml version="1.0" encoding="UTF-8"?>
<svg width="26px" height="22px" viewBox="0 0 26 22" version="1.1" xmlns="http://www.w3.org/2000/svg" xmlns:xlink="http://www.w3.org/1999/xlink">
    <!-- Generator: Sketch 46.2 (44496) - http://www.bohemiancoding.com/sketch -->
    <title>Shape</title>
    <desc>Created with Sketch.</desc>
    <defs></defs>
    <g id="Page-1" stroke="none" stroke-width="1" fill="none" fill-rule="evenodd">
        <g id="homepage" transform="translate(-803.000000, -67.000000)" fill-rule="nonzero" fill="#000000">
            <g id="navbar" transform="translate(-2.000000, 0.000000)">
                <g id="carts" transform="translate(805.000000, 67.865674)">
                    <path d="M20.9994168,21 C19.8981541,21 19.005446,20.0434522 19.005446,18.8634357 C19.005446,17.6834192 19.8981541,16.7268715 20.9994168,16.7268715 C22.1006794,16.7268715 22.9933875,17.6834192 22.9933875,18.8634357 C22.9933875,20.0434522 22.1006794,21 20.9994168,21 L20.9994168,21 Z M9.87296154,21 C8.77169887,21 7.87899077,20.0434522 7.87899077,18.8634357 C7.87899077,17.6834192 8.77169887,16.7268715 9.87296154,16.7268715 C10.9742242,16.7268715 11.8669323,17.6834192 11.8669323,18.8634357 C11.8669323,20.0434522 10.9742242,21 9.87296154,21 L9.87296154,21 Z M23.4260545,5.27889636 L19.6033419,13.2976067 L11.1071556,13.2976067 L7.09538489,5.27889636 L23.4260545,5.27889636 Z M10.164229,14.9857562 L20.5675375,14.9857562 L26,3.59074682 L6.25072904,3.59074682 L4.50844172,0.108305349 L0,0.108305349 L0,1.79645489 L3.56551511,1.79645489 L10.164229,14.9857562 Z" id="Shape"></path>
                </g>
            </g>
        </g>
    </g>
</svg>