<?xml version="1.0" encoding="utf-8"?>
<!-- Generator: Adobe Illustrator 16.0.4, SVG Export Plug-In . SVG Version: 6.00 Build 0)  -->
<!DOCTYPE svg PUBLIC "-//W3C//DTD SVG 1.1//EN" "http://www.w3.org/Graphics/SVG/1.1/DTD/svg11.dtd">
<svg version="1.1" id="Ebene_1" xmlns="http://www.w3.org/2000/svg" xmlns:xlink="http://www.w3.org/1999/xlink" x="0px" y="0px"
	 width="39.685px" height="39.686px" viewBox="0 0 39.685 39.686" enable-background="new 0 0 39.685 39.686" xml:space="preserve">
<path d="M31.748,0H7.937C3.559,0,0,3.561,0,7.937v23.811c0,4.377,3.558,7.937,7.937,7.937h23.812c4.378,0,7.937-3.56,7.937-7.938
	V7.936C39.685,3.559,36.127,0,31.75,0H31.748z M30.958,13.492h-2.38c-1.704,0-2.381,0.403-2.381,1.585v2.379h4.764l-0.796,4.763
	h-3.966v15.87h-5.561V22.22h-2.38v-4.761h2.38V15.08c0-3.713,1.256-6.35,5.561-6.35c2.302,0,4.763,0.796,4.763,0.796v3.966H30.958z"
	/>
</svg>
