<svg id="Icon_Expressive_Games_Entertainment" data-name="Icon Expressive —  Games / Entertainment" xmlns="http://www.w3.org/2000/svg" width="80" height="80" viewBox="0 0 80 80">
  <rect id="Rectangle_1549" data-name="Rectangle 1549" width="80" height="80" fill="none"/>
  <path id="Path_4837" data-name="Path 4837" d="M310.04,384.431l7.793-7.793a1,1,0,0,0-1.414-1.414l-9.207,9.207h-2.171l-9.208-9.207a1,1,0,0,0-1.414,1.414l7.794,7.793H277.626v32h56v-32Z" transform="translate(-265.626 -362.431)" fill="#82cdef"/>
  <g id="Icon_Games_Gaming" data-name="Icon — Games / Gaming" transform="translate(16 26)">
    <rect id="Rectangle_1036" data-name="Rectangle 1036" width="48" height="48" fill="none"/>
    <path id="Path_4084" data-name="Path 4084" d="M-872,11.753a56.767,56.767,0,0,1,16.98,2.875l1.973,15.052a5.8,5.8,0,0,1-1.176,4.3,5.744,5.744,0,0,1-3.84,2.225,5.7,5.7,0,0,1-.712.046,5.758,5.758,0,0,1-5.522-4.488l-.374-1.523h-14.661l-.372,1.525a5.748,5.748,0,0,1-5.52,4.486,5.729,5.729,0,0,1-.714-.046,5.744,5.744,0,0,1-3.839-2.225,5.8,5.8,0,0,1-1.177-4.291l1.974-15.058A56.559,56.559,0,0,1-872,11.753m0-2a58.128,58.128,0,0,0-17.939,3.092l-.89.328-.094.889-2.014,15.364a7.858,7.858,0,0,0,6.745,8.758,7.573,7.573,0,0,0,.968.063,7.774,7.774,0,0,0,7.463-6.011h11.522a7.78,7.78,0,0,0,7.464,6.011,7.557,7.557,0,0,0,.967-.063,7.858,7.858,0,0,0,6.745-8.758l-2.014-15.364-.094-.889-.89-.328A58.128,58.128,0,0,0-872,9.753Z" transform="translate(896)" fill="#333"/>
    <circle id="Ellipse_204" data-name="Ellipse 204" cx="1.5" cy="1.5" r="1.5" transform="translate(31 17)" fill="#333"/>
    <circle id="Ellipse_205" data-name="Ellipse 205" cx="1.5" cy="1.5" r="1.5" transform="translate(28 20)" fill="#333"/>
    <circle id="Ellipse_206" data-name="Ellipse 206" cx="1.5" cy="1.5" r="1.5" transform="translate(34 20)" fill="#333"/>
    <circle id="Ellipse_207" data-name="Ellipse 207" cx="1.5" cy="1.5" r="1.5" transform="translate(31 23)" fill="#333"/>
    <path id="Path_4085" data-name="Path 4085" d="M-878,22.5h-7a1,1,0,0,1-1-1,1,1,0,0,1,1-1h7a1,1,0,0,1,1,1A1,1,0,0,1-878,22.5Z" transform="translate(896)" fill="#333"/>
    <path id="Path_4086" data-name="Path 4086" d="M-881.5,26a1,1,0,0,1-1-1V18a1,1,0,0,1,1-1,1,1,0,0,1,1,1v7A1,1,0,0,1-881.5,26Z" transform="translate(896)" fill="#333"/>
  </g>
</svg>
