<?xml version="1.0" encoding="utf-8"?>
<!-- Generator: Adobe Illustrator 16.0.4, SVG Export Plug-In . SVG Version: 6.00 Build 0)  -->
<!DOCTYPE svg PUBLIC "-//W3C//DTD SVG 1.1//EN" "http://www.w3.org/Graphics/SVG/1.1/DTD/svg11.dtd">
<svg version="1.1" id="Ebene_1" xmlns="http://www.w3.org/2000/svg" xmlns:xlink="http://www.w3.org/1999/xlink" x="0px" y="0px"
	 width="39.685px" height="39.686px" viewBox="0 0 39.685 39.686" enable-background="new 0 0 39.685 39.686" xml:space="preserve">
<path d="M8.82,0.001c-10.951,0-19.839,8.882-19.839,19.842c0,10.961,8.886,19.842,19.839,19.842c10.957,0,19.84-8.881,19.84-19.842
	c0-1.361-0.15-2.691-0.404-3.966l-0.109-0.439H8.82v6.611h13.227c-1.055,6.258-6.674,11.023-13.228,11.023
	c-7.307,0-13.227-5.922-13.227-13.227c0-7.304,5.92-13.229,13.227-13.229c3.307,0,6.322,1.22,8.643,3.228l4.744-4.636
	c-3.533-3.233-8.229-5.208-13.387-5.208H8.82z M39.685,8.82v6.617h-6.617v4.407h6.614v6.616h4.408v-6.616h6.614v-4.409H44.09V8.82
	h-4.403H39.685z"/>
</svg>
