<?xml version="1.0" encoding="utf-8"?>
<!-- Generator: Adobe Illustrator 16.0.4, SVG Export Plug-In . SVG Version: 6.00 Build 0)  -->
<!DOCTYPE svg PUBLIC "-//W3C//DTD SVG 1.1//EN" "http://www.w3.org/Graphics/SVG/1.1/DTD/svg11.dtd">
<svg version="1.1" id="Ebene_1" xmlns="http://www.w3.org/2000/svg" xmlns:xlink="http://www.w3.org/1999/xlink" x="0px" y="0px"
	 width="39.685px" height="39.685px" viewBox="0 0 39.685 39.685" enable-background="new 0 0 39.685 39.685" xml:space="preserve">
<path id="Shape" d="M11.215,0C5.032,0,0,5.032,0,11.215v17.253c0,6.185,5.032,11.216,11.215,11.216h17.253
	c6.185,0,11.216-5.031,11.216-11.216V11.215C39.685,5.032,34.653,0,28.469,0H11.215z M31.059,6.901c0.953,0,1.725,0.772,1.725,1.726
	s-0.771,1.726-1.725,1.726c-0.954,0-1.726-0.772-1.726-1.726S30.104,6.901,31.059,6.901z M19.843,9.49
	c5.71,0,10.353,4.644,10.353,10.353c0,5.71-4.643,10.353-10.353,10.353c-5.709,0-10.353-4.643-10.353-10.353
	C9.49,14.134,14.134,9.49,19.843,9.49z M19.843,11.215c-4.759,0-8.627,3.869-8.627,8.627s3.869,8.626,8.627,8.626
	s8.626-3.867,8.626-8.626S24.602,11.215,19.843,11.215z"/>
</svg>
