<?xml version="1.0" encoding="utf-8"?>
<!-- Generator: Adobe Illustrator 16.0.4, SVG Export Plug-In . SVG Version: 6.00 Build 0)  -->
<!DOCTYPE svg PUBLIC "-//W3C//DTD SVG 1.1//EN" "http://www.w3.org/Graphics/SVG/1.1/DTD/svg11.dtd">
<svg version="1.1" id="Ebene_1" xmlns="http://www.w3.org/2000/svg" xmlns:xlink="http://www.w3.org/1999/xlink" x="0px" y="0px"
	 width="24px" height="25px" viewBox="0 0 24 25" enable-background="new 0 0 24 25" xml:space="preserve">
<g>
	<path d="M18.563,6.763H5.437c-0.805,0-1.458,0.642-1.458,1.436v8.604c0,0.793,0.653,1.435,1.458,1.435h13.126
		c0.805,0,1.458-0.642,1.458-1.435V8.198C20.021,7.404,19.368,6.763,18.563,6.763z M17.833,16.803H6.166V8.198h11.667V16.803z
		 M18.905,13.082c-0.322,0-0.569-0.267-0.569-0.584c0-0.316,0.247-0.58,0.569-0.58c0.321,0,0.592,0.264,0.592,0.58
		C19.497,12.815,19.227,13.082,18.905,13.082z"/>
	<path d="M5.56,0.095C5.523,0.057,5.474,0.016,5.423,0.004C5.372-0.007,5.334,0.007,5.286,0.027c-0.1,0.042-0.159,0.14-0.159,0.247
		v1.635C1.418,2.017-1.008,4.34,0.41,9.998C0.173,6.117,1.575,3.803,5.127,3.881v1.546c0,0.107,0.06,0.206,0.159,0.247
		C5.32,5.688,5.344,5.696,5.377,5.696c0.068,0,0.131-0.016,0.182-0.067l3.281-2.622c0.105-0.103,0.105-0.257,0-0.358L5.56,0.095z"/>
	<defs>
		<filter id="Adobe_OpacityMaskFilter" filterUnits="userSpaceOnUse" x="15.717" y="15.69" width="8.283" height="9.31">
			<feColorMatrix  type="matrix" values="1 0 0 0 0  0 1 0 0 0  0 0 1 0 0  0 0 0 1 0"/>
		</filter>
	</defs>
	<mask maskUnits="userSpaceOnUse" x="15.717" y="15.69" width="8.283" height="9.31" id="mask-4_1_">
		<g filter="url(#Adobe_OpacityMaskFilter)">
			<polygon id="path-3_1_" fill="#FFFFFF" points="23.999,15.69 23.999,25 15.716,25 15.716,15.69 			"/>
		</g>
	</mask>
	<path id="Fill-4" mask="url(#mask-4_1_)" d="M18.963,24.996c0.048,0.011,0.083-0.003,0.126-0.021
		c0.094-0.04,0.149-0.131,0.149-0.229v-1.522c3.444-0.1,5.697-2.264,4.381-7.533c0.22,3.616-1.083,5.769-4.381,5.696v-1.438
		c0-0.099-0.056-0.19-0.149-0.229c-0.029-0.014-0.051-0.022-0.083-0.022c-0.062,0-0.122,0.017-0.168,0.063l-3.048,2.441
		c-0.098,0.096-0.098,0.238,0,0.334l3.048,2.377C18.871,24.946,18.916,24.985,18.963,24.996"/>
</g>
</svg>
