<?xml version="1.0" encoding="utf-8"?>
<!-- Generator: Adobe Illustrator 16.0.4, SVG Export Plug-In . SVG Version: 6.00 Build 0)  -->
<!DOCTYPE svg PUBLIC "-//W3C//DTD SVG 1.1//EN" "http://www.w3.org/Graphics/SVG/1.1/DTD/svg11.dtd">
<svg version="1.1" id="Ebene_1" xmlns="http://www.w3.org/2000/svg" xmlns:xlink="http://www.w3.org/1999/xlink" x="0px" y="0px"
	 width="39.685px" height="39.686px" viewBox="0 0 39.685 39.686" enable-background="new 0 0 39.685 39.686" xml:space="preserve">
<g>
	<path d="M86.912,4.573c0-2.391-1.944-4.334-4.334-4.334H-42.89c-2.393,0-4.339,1.943-4.339,4.334v30.543
		c0,2.388,1.946,4.33,4.339,4.33H82.578c2.392,0,4.336-1.942,4.336-4.33L86.912,4.573z M82.578,38.447H-42.89
		c-1.841,0-3.339-1.494-3.339-3.33V4.573c0-1.838,1.498-3.334,3.339-3.334H82.578c1.839,0,3.334,1.496,3.334,3.334l0.002,30.543
		C85.912,36.952,84.417,38.447,82.578,38.447z"/>
</g>
<g>
	<g>
		<g>
			<path d="M-13.739,7.353c0-1.844,1.436-3.071,3.072-3.071c1.229,0,1.843,0.614,2.457,1.229l-0.819,0.409
				c-0.408-0.409-1.022-0.818-1.638-0.818c-1.229,0-2.048,1.023-2.048,2.253c0,1.229,1.022,2.254,2.048,2.254
				c0.614,0,1.023-0.41,1.434-0.41v-1.23h-1.843V7.148h2.866v2.253c-0.409,0.613-1.434,1.023-2.457,1.023
				C-12.51,10.424-13.739,9.197-13.739,7.353z"/>
			<path d="M-6.776,10.219V4.487h4.096v1.022h-3.072v1.639h2.867v1.023h-2.867v1.638h3.071v0.615L-6.776,10.219L-6.776,10.219z"/>
			<path d="M0.187,10.219V5.304h-1.844V4.487h4.709v1.022H1.209v4.915L0.187,10.219L0.187,10.219L0.187,10.219z"/>
			<path d="M6.739,10.219V4.487h1.022v6.143L6.739,10.219L6.739,10.219z"/>
			<path d="M10.628,10.219V5.304H8.786V4.487h4.707v1.022h-1.842v4.915L10.628,10.219L10.628,10.219L10.628,10.219z"/>
			<path d="M16.976,7.353c0-1.844,1.229-3.071,3.07-3.071s3.071,1.228,3.071,3.071s-1.229,3.071-3.071,3.071
				S16.976,8.99,16.976,7.353z M22.094,7.353c0-1.229-0.818-2.253-2.048-2.253c-1.229,0-2.047,1.023-2.047,2.253
				c0,1.229,0.818,2.254,2.047,2.254C21.276,9.607,22.094,8.581,22.094,7.353z"/>
			<path d="M28.442,10.219l-3.07-4.301v4.301h-1.022V4.487h1.022l3.07,4.3v-4.3h1.024v6.143L28.442,10.219L28.442,10.219z"/>
		</g>
	</g>
	<g>
		<path d="M-36.466,15.133c0,0.205-0.205,0.409-0.205,1.022v17.61c0,0.408,0.205,0.817,0.409,1.021l9.624-9.623L-36.466,15.133z"/>
		<path d="M-26.227,24.347l2.865-2.866l-11.671-6.348c-0.204-0.205-0.613-0.205-0.613-0.205L-26.227,24.347z"/>
		<path d="M-26.227,25.166l-9.419,9.418c0.204,0,0.409,0,0.613-0.203l11.876-6.553L-26.227,25.166z"/>
		<path d="M-19.06,23.94l-3.892-2.254l-2.867,3.071l2.867,2.866l3.892-2.254C-18.243,25.166-18.243,24.553-19.06,23.94z"/>
	</g>
	<g>
		<path d="M22.504,33.971c-0.615-0.41-1.025-1.229-1.229-1.639l1.842-0.818c0.205,0.204,0.205,0.614,0.615,0.818
			c0.409,0.408,1.022,0.818,1.844,0.818c0.615,0,1.432-0.41,1.843-0.818c0.409-0.614,0.614-1.229,0.614-1.842v-0.615
			c-1.229,1.639-4.096,1.434-5.733-0.204c-1.638-1.843-1.638-4.71,0-6.554c1.638-1.637,4.097-1.842,5.528-0.205l0,0v-0.816h2.048
			v8.395c0,2.252-0.819,3.276-1.843,4.095c-0.614,0.614-1.639,0.819-2.662,0.819C24.348,34.994,23.321,34.584,22.504,33.971
			L22.504,33.971z M69.393,34.381L69.393,34.381l1.844-4.506l-3.276-7.779h1.843l2.457,5.527l2.253-5.527h1.843l-5.119,12.285
			H69.393L69.393,34.381z M60.384,30.08L60.384,30.08c-0.612-0.614-0.819-1.229-0.819-2.049c0-0.613,0.207-1.229,0.614-1.842
			c0.82-0.82,1.845-1.229,3.071-1.229c0.818,0,1.434,0.204,2.049,0.409c0-1.432-1.025-1.844-2.049-1.844
			c-0.818,0-1.637,0.412-1.844,1.229L59.77,24.14c0.204-0.817,1.229-2.252,3.479-2.252c1.022,0,2.253,0.409,2.866,1.229
			c0.615,0.82,1.023,1.639,1.023,2.867v4.709h-1.842v-0.82c-0.206,0.41-0.615,0.615-1.025,0.82
			c-0.408,0.203-1.023,0.408-1.638,0.408C61.819,31.104,60.999,30.696,60.384,30.08L60.384,30.08z M0.8,26.19L0.8,26.19
			c0-2.25,1.639-4.709,4.709-4.709c2.865,0,4.709,2.459,4.709,4.709c0,2.254-1.844,4.709-4.709,4.709
			C2.439,30.899,0.8,28.444,0.8,26.19L0.8,26.19z M10.831,26.19L10.831,26.19c0-2.25,1.641-4.709,4.711-4.709
			c2.865,0,4.709,2.459,4.709,4.709c0,2.254-1.844,4.709-4.709,4.709C12.676,30.899,10.831,28.444,10.831,26.19L10.831,26.19z
			 M-11.691,28.649L-11.691,28.649c-2.865-2.867-2.66-7.373,0-10.239c1.435-1.434,3.276-2.047,5.119-2.047
			c1.844,0,3.481,0.613,4.915,2.047l-1.434,1.433c-2.048-2.048-5.324-1.843-7.167,0c-2.047,2.048-2.047,5.324,0,7.372
			c2.048,2.047,5.324,2.252,7.372,0.204c0.614-0.614,0.818-1.637,1.022-2.457h-4.71v-2.049h6.555c0,0.41,0.203,1.025,0.203,1.435
			c0,1.64-0.613,3.276-1.843,4.505c-1.229,1.229-3.071,2.047-4.915,1.844C-8.415,30.696-10.258,30.08-11.691,28.649L-11.691,28.649z
			 M35.405,29.466L35.405,29.466c-1.639-1.843-1.639-4.913,0-6.554c1.637-1.842,4.504-1.842,6.143,0
			c0.613,0.615,0.82,1.435,1.229,2.254l-6.142,2.662c0.407,0.818,1.022,1.433,2.25,1.433c1.024,0,1.642-0.409,2.253-1.229
			l1.639,1.024l0,0c-0.205,0.204-0.408,0.409-0.613,0.614C40.319,31.309,37.039,31.309,35.405,29.466L35.405,29.466z M47.074,30.696
			L47.074,30.696V18.409h3.891c2.457,0,4.3,1.638,4.3,3.687c0,2.046-1.638,3.686-3.891,3.686h-2.457v4.914H47.074L47.074,30.696z
			 M56.492,30.696L56.492,30.696V18.409h1.844v12.284h-1.844V30.696z M31.308,30.49L31.308,30.49v-13.72h2.048v13.72H31.308
			L31.308,30.49z M65.299,27.009L65.299,27.009c-0.41-0.409-1.229-0.409-1.844-0.409c-1.434,0-2.049,0.614-2.049,1.434
			c0,0.818,0.819,1.229,1.64,1.229C64.071,29.261,65.299,28.444,65.299,27.009L65.299,27.009z M7.966,26.19L7.966,26.19
			c0-1.433-1.021-2.865-2.662-2.865c-1.638,0-2.661,1.434-2.661,2.865c0,1.436,1.229,2.662,2.866,2.662S7.966,27.418,7.966,26.19
			L7.966,26.19z M18.202,26.19L18.202,26.19c0-1.433-1.022-2.865-2.66-2.865c-1.639,0-2.662,1.434-2.662,2.865
			c0,1.436,1.023,2.867,2.662,2.867C17.18,28.852,18.202,27.418,18.202,26.19L18.202,26.19z M28.033,27.009L28.033,27.009
			c0,0,0-0.205,0-0.409l0,0c0-0.203,0-0.41,0-0.41c0-0.203,0-0.408,0-0.408l0,0c0-0.205,0-0.205,0-0.41
			c-0.41-1.023-1.229-1.844-2.459-1.844c-1.434,0-2.457,1.229-2.457,2.869c0,1.637,1.229,2.864,2.457,2.864
			C26.805,28.852,27.623,28.031,28.033,27.009L28.033,27.009z M36.223,25.987L36.223,25.987l4.096-1.845
			c-0.41-0.817-1.023-1.022-1.64-1.022C37.039,23.117,36.018,24.961,36.223,25.987L36.223,25.987z M53.217,22.096L53.217,22.096
			c0-1.025-0.818-2.049-2.047-2.049h-2.253v3.893h2.457C52.399,24.142,53.217,23.323,53.217,22.096z"/>
		<g>
			<path d="M70.826,34.381L70.826,34.381L70.826,34.381L70.826,34.381L70.826,34.381L70.826,34.381L70.826,34.381L70.826,34.381
				L70.826,34.381L70.826,34.381L70.826,34.381L70.826,34.381L70.826,34.381z"/>
			<polygon points="70.826,34.381 70.826,34.381 70.826,34.381 70.826,34.381 70.826,34.381 70.826,34.381 70.826,34.381 
				70.826,34.381 70.826,34.381 70.826,34.381 			"/>
			<polygon points="70.826,34.381 70.826,34.381 70.826,34.381 70.826,34.381 70.826,34.381 70.826,34.381 			"/>
			<path d="M70.826,34.381L70.826,34.381L70.826,34.381L70.826,34.381L70.826,34.381L70.826,34.381L70.826,34.381L70.826,34.381
				L70.826,34.381L70.826,34.381L70.826,34.381L70.826,34.381z"/>
			<polygon points="71.031,34.381 70.826,34.381 70.826,34.381 70.826,34.381 70.826,34.381 			"/>
			<path d="M71.031,34.381L71.031,34.381L71.031,34.381L71.031,34.381L71.031,34.381L71.031,34.381L71.031,34.381L71.031,34.381z
				 M71.031,34.381L71.031,34.381L71.031,34.381L71.031,34.381L71.031,34.381L71.031,34.381L71.031,34.381L71.031,34.381z"/>
			<path d="M71.031,34.381L71.031,34.381L71.031,34.381L71.031,34.381L71.031,34.381L71.031,34.381L71.031,34.381L71.031,34.381
				L71.031,34.381L71.031,34.381L71.031,34.381L71.031,34.381L71.031,34.381L71.031,34.381L71.031,34.381L71.031,34.381
				L71.031,34.381L71.031,34.381z"/>
			<path d="M71.031,34.381L71.031,34.381L71.031,34.381L71.031,34.381L71.031,34.381L71.031,34.381L71.031,34.381L71.031,34.381z
				 M71.031,34.381L71.031,34.381L71.031,34.381L71.031,34.381L71.031,34.381L71.031,34.381L71.031,34.381L71.031,34.381z"/>
			<path d="M71.031,34.381L71.031,34.381L71.031,34.381L71.031,34.381L71.031,34.381L71.031,34.381L71.031,34.381L71.031,34.381
				L71.031,34.381L71.031,34.381L71.031,34.381L71.031,34.381L71.031,34.381L71.031,34.381L71.031,34.381L71.031,34.381z"/>
			<path d="M71.031,34.381L71.031,34.381L71.031,34.381L71.031,34.381L71.031,34.381L71.031,34.381L71.031,34.381L71.031,34.381
				L71.031,34.381L71.031,34.381z M71.031,34.381L71.031,34.381L71.031,34.381L71.031,34.381L71.031,34.381L71.031,34.381
				L71.031,34.381z"/>
			<path d="M71.031,34.381L71.031,34.381L71.031,34.381L71.031,34.381L71.031,34.381L71.031,34.381L71.031,34.381L71.031,34.381
				L71.031,34.381L71.031,34.381L71.031,34.381L71.031,34.381L71.031,34.381L71.031,34.381L71.031,34.381z"/>
			<polygon points="71.031,34.381 71.031,34.381 71.031,34.381 71.031,34.381 71.031,34.381 			"/>
			<polygon points="71.237,34.381 71.237,34.381 71.237,34.381 71.237,34.381 71.237,34.381 71.237,34.381 71.237,34.381 
				71.237,34.381 71.237,34.381 71.031,34.381 71.031,34.381 			"/>
			<path d="M71.237,34.381L71.237,34.381L71.237,34.381L71.237,34.381L71.237,34.381L71.237,34.381L71.237,34.381L71.237,34.381
				L71.237,34.381L71.237,34.381L71.237,34.381L71.237,34.381L71.237,34.381z M71.237,34.381L71.237,34.381L71.237,34.381
				L71.237,34.381L71.237,34.381L71.237,34.381L71.237,34.381L71.237,34.381z"/>
		</g>
	</g>
</g>
</svg>
