<?xml version="1.0" encoding="utf-8"?>
<!-- Generator: Adobe Illustrator 16.0.4, SVG Export Plug-In . SVG Version: 6.00 Build 0)  -->
<!DOCTYPE svg PUBLIC "-//W3C//DTD SVG 1.1//EN" "http://www.w3.org/Graphics/SVG/1.1/DTD/svg11.dtd">
<svg version="1.1" id="Ebene_1" xmlns="http://www.w3.org/2000/svg" xmlns:xlink="http://www.w3.org/1999/xlink" x="0px" y="0px"
	 width="39.685px" height="39.685px" viewBox="0 0 39.685 39.685" enable-background="new 0 0 39.685 39.685" xml:space="preserve">
<path id="Shape" d="M16.117,1.001C8,1.001,1.433,7.567,1.433,15.686S8,30.37,16.117,30.37c2.898,0,5.58-0.851,7.854-2.294
	L34.58,38.684l3.672-3.671L27.779,24.565c1.881-2.47,3.021-5.529,3.021-8.88C30.801,7.567,24.234,1.001,16.117,1.001z M16.117,4.456
	c6.219,0,11.229,5.011,11.229,11.229s-5.01,11.229-11.229,11.229S4.888,21.904,4.888,15.686S9.898,4.456,16.117,4.456z"/>
</svg>
