<?xml version="1.0" encoding="utf-8"?>
<!-- Generator: Adobe Illustrator 16.0.4, SVG Export Plug-In . SVG Version: 6.00 Build 0)  -->
<!DOCTYPE svg PUBLIC "-//W3C//DTD SVG 1.1//EN" "http://www.w3.org/Graphics/SVG/1.1/DTD/svg11.dtd">
<svg version="1.1" id="Ebene_1" xmlns="http://www.w3.org/2000/svg" xmlns:xlink="http://www.w3.org/1999/xlink" x="0px" y="0px"
	 width="39.685px" height="39.686px" viewBox="0 0 39.685 39.686" enable-background="new 0 0 39.685 39.686" xml:space="preserve">
<path d="M44.253,4.697c-1.799,0.799-3.729,1.335-5.758,1.58c2.071-1.242,3.663-3.207,4.409-5.541
	c-1.934,1.146-4.083,1.976-6.358,2.428C34.716,1.214,32.112,0,29.231,0c-5.53,0-10.02,4.483-10.02,10.016
	c0,0.784,0.092,1.548,0.262,2.285C11.147,11.881,3.768,7.892-1.175,1.833c-0.866,1.483-1.354,3.202-1.354,5.038
	c0,3.473,1.767,6.542,4.457,8.341c-1.644-0.05-3.188-0.506-4.541-1.253v0.125c0,4.856,3.457,8.901,8.035,9.827
	c-0.836,0.227-1.723,0.348-2.639,0.348c-0.647,0-1.275-0.061-1.886-0.184c1.279,3.977,4.978,6.881,9.36,6.961
	c-3.428,2.688-7.745,4.285-12.443,4.285c-0.811,0-1.605-0.043-2.386-0.141c4.432,2.848,9.7,4.504,15.355,4.504
	c18.424,0,28.505-15.264,28.505-28.498c0-0.435-0.017-0.874-0.028-1.3c1.953-1.415,3.651-3.18,4.995-5.191L44.253,4.697z"/>
</svg>
