<?xml version="1.0" encoding="UTF-8"?>
<svg width="24px" height="25px" viewBox="0 0 24 25" version="1.1" xmlns="http://www.w3.org/2000/svg" xmlns:xlink="http://www.w3.org/1999/xlink">
    <!-- Generator: Sketch 46.2 (44496) - http://www.bohemiancoding.com/sketch -->
    <title>Group</title>
    <desc>Created with Sketch.</desc>
    <defs></defs>
    <g id="Page-1" stroke="none" stroke-width="1" fill="none" fill-rule="evenodd">
        <g id="homepage" transform="translate(-863.000000, -66.000000)" fill-rule="nonzero" fill="#000000">
            <g id="navbar" transform="translate(-2.000000, 0.000000)">
                <g id="Group-2" transform="translate(865.000000, 65.865674)">
                    <g id="user" transform="translate(0.000000, 0.359348)">
                        <g id="Group">
                            <path d="M12,23.9052632 C18.5684211,23.9052632 23.9052632,18.5684211 23.9052632,12 C23.9052632,5.43157895 18.5684211,0.0947368421 12,0.0947368421 C5.43157895,0.0947368421 0.0947368421,5.43157895 0.0947368421,12 C0.0947368421,18.5684211 5.43157895,23.9052632 12,23.9052632 Z M5.43157895,19.5157895 C7.23157895,17.3684211 9.56842105,16.2 12,16.2 C14.4315789,16.2 16.7684211,17.3684211 18.5684211,19.5157895 C16.8315789,21.0631579 14.5263158,22.0105263 12,22.0105263 C9.47368421,22.0105263 7.16842105,21.0631579 5.43157895,19.5157895 Z M12,1.98947368 C17.5263158,1.98947368 22.0105263,6.47368421 22.0105263,12 C22.0105263,14.3052632 21.2210526,16.4526316 19.8947368,18.1263158 C17.7157895,15.6631579 14.9684211,14.3052632 12,14.3052632 C9.03157895,14.3052632 6.28421053,15.6631579 4.10526316,18.1263158 C2.77894737,16.4210526 1.98947368,14.3052632 1.98947368,12 C1.98947368,6.47368421 6.47368421,1.98947368 12,1.98947368 Z" id="Shape"></path>
                            <path d="M12,13.3578947 C14.6526316,13.3578947 16.8,11.2105263 16.8,8.55789474 C16.8,5.90526316 14.6526316,3.75789474 12,3.75789474 C9.34736842,3.75789474 7.2,5.90526316 7.2,8.55789474 C7.2,11.2105263 9.34736842,13.3578947 12,13.3578947 Z M12,5.65263158 C13.6105263,5.65263158 14.9052632,6.94736842 14.9052632,8.55789474 C14.9052632,10.1684211 13.6105263,11.4631579 12,11.4631579 C10.3894737,11.4631579 9.09473684,10.1684211 9.09473684,8.55789474 C9.09473684,6.97894737 10.3894737,5.65263158 12,5.65263158 Z" id="Shape"></path>
                        </g>
                    </g>
                </g>
            </g>
        </g>
    </g>
</svg>