<?xml version="1.0" encoding="UTF-8"?>
<svg width="24px" height="24px" viewBox="0 0 24 24" version="1.1" xmlns="http://www.w3.org/2000/svg" xmlns:xlink="http://www.w3.org/1999/xlink">
    <!-- Generator: Sketch 46.2 (44496) - http://www.bohemiancoding.com/sketch -->
    <title>icon/error </title>
    <desc>Created with Sketch.</desc>
    <defs></defs>
    <g id="Symbols" stroke="none" stroke-width="1" fill="none" fill-rule="evenodd">
        <g id="icon/error-" fill="#000000">
            <g id="exclamation-button" transform="translate(0.000000, -1.000000)">
                <path d="M12.0000626,1 C5.38329919,1 0,6.383146 0,13 C0,19.616854 5.38317406,25 12.0000626,25 C18.6169511,25 24,19.616854 24,13 C24,6.383146 18.6169511,1 12.0000626,1 Z M12.0000626,23.1231623 C6.41806779,23.1231623 1.87684752,18.5819657 1.87684752,13 C1.87684752,7.41803433 6.41806779,2.87683774 12.0000626,2.87683774 C17.5819322,2.87683774 22.1231525,7.41803433 22.1231525,13 C22.1231525,18.5819657 17.5820573,23.1231623 12.0000626,23.1231623 Z" id="Shape" fill-rule="nonzero"></path>
                <g id="!" transform="translate(9.000000, 0.000000)" font-size="20" font-family="Lato-Regular, Lato" font-weight="normal">
                    <text>
                        <tspan x="0" y="20">!</tspan>
                    </text>
                </g>
            </g>
        </g>
    </g>
</svg>