<svg xmlns="http://www.w3.org/2000/svg" xmlns:xlink="http://www.w3.org/1999/xlink" width="42" height="42" viewBox="0 0 42 42">
    <defs>
        <path id="a" d="M23.556 8.378v10.01c0 1.073-.064 2.137-.192 3.193a48.165 48.165 0 0 1-.508 3.229H19.18a48.165 48.165 0 0 1-.508-3.23 26.507 26.507 0 0 1-.192-3.192V8.378h5.075zm-5.67 22.75c0-.421.079-.812.236-1.173.158-.361.373-.677.648-.945.273-.268.598-.482.97-.64a3.132 3.132 0 0 1 1.226-.235c.432 0 .834.079 1.207.236.373.157.7.37.98.639a2.892 2.892 0 0 1 .893 2.118c0 .42-.08.813-.236 1.18a2.877 2.877 0 0 1-.656.955 3.103 3.103 0 0 1-.981.63 3.185 3.185 0 0 1-1.207.227c-.443 0-.851-.076-1.225-.227a2.971 2.971 0 0 1-.971-.63 2.976 2.976 0 0 1-.884-2.135zM21 0C9.402 0 0 9.402 0 21s9.402 21 21 21 21-9.402 21-21S32.598 0 21 0m0 4c9.374 0 17 7.626 17 17 0 9.374-7.626 17-17 17-9.374 0-17-7.626-17-17 0-9.374 7.626-17 17-17"/>
    </defs>
    <g fill="none" fill-rule="evenodd">
        <mask id="b" fill="#fff">
            <use xlink:href="#a"/>
        </mask>
        <use fill="#000" xlink:href="#a"/>
        <g fill="#AD1E48" mask="url(#b)">
            <path d="M-3-3h48v48H-3z"/>
        </g>
    </g>
</svg>
