<?xml version="1.0" encoding="UTF-8"?>
<svg width="36px" height="36px" viewBox="0 0 36 36" version="1.1" xmlns="http://www.w3.org/2000/svg" xmlns:xlink="http://www.w3.org/1999/xlink">
    <!-- Generator: Sketch 46.2 (44496) - http://www.bohemiancoding.com/sketch -->
    <title>mob</title>
    <desc>Created with Sketch.</desc>
    <defs></defs>
    <g id="Symbols" stroke="none" stroke-width="1" fill="none" fill-rule="evenodd">
        <g id="mob" fill-rule="nonzero" fill="#000000">
            <g id="icons8-android" transform="translate(7.000000, 1.000000)">
                <path d="M2.875,0 C2.12255931,0 1.35327113,0.26774125 0.80859375,0.8203125 C0.263916375,1.37288375 0,2.15332104 0,2.91666667 L0,32.0833333 C0,32.8466804 0.263916375,33.6271162 0.80859375,34.1796875 C1.35327113,34.7322587 2.12255931,35 2.875,35 L20.125,35 C20.8774421,35 21.6467289,34.7322587 22.1914063,34.1796875 C22.7360836,33.6271162 23,32.8466804 23,32.0833333 L23,2.91666667 C23,2.15332104 22.7360836,1.37288375 22.1914063,0.8203125 C21.6467289,0.26774125 20.8774421,0 20.125,0 L2.875,0 Z M2.875,2.91666667 L20.125,2.91666667 L20.125,32.0833333 L2.875,32.0833333 L2.875,2.91666667 Z M8.625,27.7083333 L14.375,27.7083333 L14.375,30.625 L8.625,30.625 L8.625,27.7083333 Z M11.7619048,10.139748 C14.2439205,10.139748 16.2762612,12.1403334 16.2762612,14.5835676 C16.2762612,15.8203715 15.7384208,16.9356703 14.9007932,17.7428457 C16.4041078,18.7453047 17.4048503,20.4551376 17.4048503,22.360252 L15.1476721,22.360252 C15.1476721,20.5202329 13.6311305,19.0273873 11.7619048,19.0273873 C9.89267905,19.0273873 8.37613743,20.5202329 8.37613743,22.360252 L6.11895921,22.360252 C6.11895921,20.4551376 7.11970062,18.7453047 8.6230163,17.7428457 C7.78539213,16.9356703 7.24754832,15.8203715 7.24754832,14.5835676 C7.24754832,12.1403334 9.27989015,10.139748 11.7619048,10.139748 Z M11.7619048,12.3616578 C10.5010597,12.3616578 9.50472654,13.3424199 9.50472654,14.5835676 C9.50472654,15.8247154 10.5010597,16.8054775 11.7619048,16.8054775 C13.0227532,16.8054775 14.019083,15.8247154 14.019083,14.5835676 C14.019083,13.3424199 13.0227532,12.3616578 11.7619048,12.3616578 Z" id="Shape"></path>
            </g>
        </g>
    </g>
</svg>