<?xml version="1.0" encoding="UTF-8"?>
<svg width="36px" height="36px" viewBox="0 0 36 36" version="1.1" xmlns="http://www.w3.org/2000/svg" xmlns:xlink="http://www.w3.org/1999/xlink">
    <!-- Generator: Sketch 46.2 (44496) - http://www.bohemiancoding.com/sketch -->
    <title>mob copy 4</title>
    <desc>Created with Sketch.</desc>
    <defs></defs>
    <g id="Symbols" stroke="none" stroke-width="1" fill="none" fill-rule="evenodd">
        <g id="mob-copy-4" fill-rule="nonzero" fill="#000000">
            <g id="icons8-android" transform="translate(7.000000, 1.000000)">
                <path d="M2.875,0 C2.12255931,0 1.35327113,0.26774125 0.80859375,0.8203125 C0.263916375,1.37288375 0,2.15332104 0,2.91666667 L0,32.0833333 C0,32.8466804 0.263916375,33.6271162 0.80859375,34.1796875 C1.35327113,34.7322587 2.12255931,35 2.875,35 L20.125,35 C20.8774421,35 21.6467289,34.7322587 22.1914063,34.1796875 C22.7360836,33.6271162 23,32.8466804 23,32.0833333 L23,2.91666667 C23,2.15332104 22.7360836,1.37288375 22.1914063,0.8203125 C21.6467289,0.26774125 20.8774421,0 20.125,0 L2.875,0 Z M2.875,2.91666667 L20.125,2.91666667 L20.125,32.0833333 L2.875,32.0833333 L2.875,2.91666667 Z M8.625,27.7083333 L8.625,30.625 L14.375,30.625 L14.375,27.7083333 L8.625,27.7083333 Z" id="Shape"></path>
            </g>
        </g>
    </g>
</svg>