<?xml version="1.0" encoding="UTF-8"?>
<svg width="36px" height="36px" viewBox="0 0 36 36" version="1.1" xmlns="http://www.w3.org/2000/svg" xmlns:xlink="http://www.w3.org/1999/xlink">
    <!-- Generator: sketchtool 46.2 (44496) - http://www.bohemiancoding.com/sketch -->
    <title>D2B34DF1-2515-4162-80A2-69DBF15EDC26</title>
    <desc>Created with sketchtool.</desc>
    <defs></defs>
    <g id="Symbols" stroke="none" stroke-width="1" fill="none" fill-rule="evenodd">
        <g id="icon/Info" fill-rule="nonzero" fill="#000000">
            <g id="icons8-bill" transform="translate(3.000000, 0.000000)">
                <path d="M0,0 L0,36 L30,36 L30,0 L0,0 Z M3,3 L27,3 L27,33 L3,33 L3,3 Z M6,9 L6,12 L24,12 L24,9 L6,9 Z M6,18 L6,21 L16.5,21 L16.5,18 L6,18 Z M19.5,18 L19.5,21 L24,21 L24,18 L19.5,18 Z M6,24 L6,27 L16.5,27 L16.5,24 L6,24 Z M19.5,24 L19.5,27 L24,27 L24,24 L19.5,24 Z" id="Shape"></path>
            </g>
        </g>
    </g>
</svg>