<svg xmlns="http://www.w3.org/2000/svg" xmlns:xlink="http://www.w3.org/1999/xlink" width="40" height="41" viewBox="0 0 40 41">
    <defs>
        <path id="a" d="M19.25 35.625c-8.593 0-15.583-7.15-15.583-15.938S10.657 3.75 19.25 3.75s15.583 7.15 15.583 15.938-6.99 15.937-15.583 15.937M19.25 0C8.618 0 0 8.814 0 19.688 0 30.56 8.618 39.374 19.25 39.374c10.631 0 19.25-8.814 19.25-19.688C38.5 8.815 29.881 0 19.25 0m6.954 9.924l-6.954 7.112-6.954-7.112-2.592 2.652 6.954 7.111L9.704 26.8l2.592 2.652 6.954-7.112 6.954 7.112 2.592-2.652-6.954-7.112 6.954-7.111-2.592-2.652z"/>
    </defs>
    <g fill="none" fill-rule="evenodd" transform="translate(.75 .813)">
        <mask id="b" fill="#fff">
            <use xlink:href="#a"/>
        </mask>
        <use fill="#000" xlink:href="#a"/>
        <g fill="#AD1E48" mask="url(#b)">
            <path d="M-2.75-2.813h44v45h-44z"/>
        </g>
    </g>
</svg>
