<svg xmlns="http://www.w3.org/2000/svg" xmlns:xlink="http://www.w3.org/1999/xlink" width="46" height="46" viewBox="0 0 46 46">
    <defs>
        <path id="a" d="M8 9c0-2.205 1.794-4 4-4s4 1.795 4 4c0 2.206-1.794 4-4 4s-4-1.794-4-4m7.54 4.836A5.985 5.985 0 0 0 18 9 6 6 0 0 0 6 9c0 1.988.971 3.745 2.46 4.836C5.822 15.146 4 17.861 4 21h2c0-3.308 2.691-6 6-6s6 2.692 6 6h2c0-3.139-1.822-5.854-4.46-7.164"/>
    </defs>
    <g fill="none" fill-rule="evenodd" transform="translate(1 1)">
        <circle cx="22" cy="22" r="22" stroke="#FFF" stroke-width="2"/>
        <g transform="translate(10 10)">
            <mask id="b" fill="#fff">
                <use xlink:href="#a"/>
            </mask>
            <use fill="#000" xlink:href="#a"/>
            <g fill="#FFF" mask="url(#b)">
                <path d="M0 0h24v24H0z"/>
            </g>
        </g>
    </g>
</svg>
