<svg xmlns="http://www.w3.org/2000/svg" xmlns:xlink="http://www.w3.org/1999/xlink" width="48" height="48" viewBox="0 0 48 48">
    <defs>
        <path id="a" d="M24 4l-5.562 11.27L6 17.079l9 8.773-2.125 12.387L24 32.39l11.125 5.848L33 25.85l9-8.773-12.437-1.807L24 4zm-6.043 22.358l.267-1.554-1.13-1.101-4.646-4.531 6.42-.932 1.562-.228.698-1.414L24 10.778l2.872 5.82.698 1.414 1.56.228 6.423.932-4.646 4.53-1.131 1.102.268 1.554 1.097 6.396-5.744-3.02L24 29l-1.396.734-5.745 3.02 1.098-6.396zM24 36.117s2 4.896 2 6a2 2 0 0 1-4 0c0-1.104 2-6 2-6zM12.854 5.437a2 2 0 0 1 1.62.825c.65.894 1.907 6.03 1.907 6.03s-4.495-2.785-5.143-3.678a2 2 0 0 1 1.616-3.176zm22.47.182a1.9 1.9 0 0 1 1.535 3.017c-.616.848-4.886 3.493-4.886 3.493s1.196-4.878 1.813-5.727a1.896 1.896 0 0 1 1.538-.783zm5.425 21.408c.836 0 1.548.036 1.868.14A1.999 1.999 0 0 1 42 31.069c-.205 0-.413-.031-.618-.098-1.051-.341-5.089-3.757-5.089-3.757s2.55-.187 4.456-.187zm-33.498 0c1.906 0 4.456.187 4.456.187S7.669 30.63 6.618 30.97a2 2 0 0 1-1.235-3.804c.32-.104 1.032-.14 1.868-.14z"/>
    </defs>
    <g fill="none" fill-rule="evenodd">
        <mask id="b" fill="#fff">
            <use xlink:href="#a"/>
        </mask>
        <use fill="#fff" xlink:href="#a"/>
        <g fill="#fff" mask="url(#b)">
            <path d="M0 0h48v48H0z"/>
        </g>
    </g>
</svg>
