<?xml version="1.0" encoding="UTF-8"?>
<svg width="36px" height="34px" viewBox="0 0 36 34" version="1.1" xmlns="http://www.w3.org/2000/svg" xmlns:xlink="http://www.w3.org/1999/xlink">
    <!-- Generator: Sketch 46.2 (44496) - http://www.bohemiancoding.com/sketch -->
    <title>Icon/Processing</title>
    <desc>Created with Sketch.</desc>
    <defs></defs>
    <g id="Symbols" stroke="none" stroke-width="1" fill="none" fill-rule="evenodd">
        <g id="Icon/Processing" fill-rule="nonzero" fill="#000000">
            <path d="M0,0 L0,1.38461538 L0,13.8461538 L16.6153846,13.8461538 L16.6153846,0 L0,0 Z M2.76923077,2.76923077 L13.8461538,2.76923077 L13.8461538,11.0769231 L2.76923077,11.0769231 L2.76923077,2.76923077 Z M8.30769231,15.2307692 C7.54299035,15.2307692 6.92307692,15.8506827 6.92307692,16.6153846 C6.92307692,17.3800866 7.54299035,18 8.30769231,18 C9.07239427,18 9.69230769,17.3800866 9.69230769,16.6153846 C9.69230769,15.8506827 9.07239427,15.2307692 8.30769231,15.2307692 Z M8.30769231,19.3846154 C7.54299035,19.3846154 6.92307692,20.0045288 6.92307692,20.7692308 C6.92307692,21.5339327 7.54299035,22.1538462 8.30769231,22.1538462 C9.07239427,22.1538462 9.69230769,21.5339327 9.69230769,20.7692308 C9.69230769,20.0045288 9.07239427,19.3846154 8.30769231,19.3846154 Z M19.3846154,19.3846154 L19.3846154,20.7692308 L19.3846154,33.2307692 L36,33.2307692 L36,19.3846154 L19.3846154,19.3846154 Z M22.1538462,22.1538462 L33.2307692,22.1538462 L33.2307692,30.4615385 L22.1538462,30.4615385 L22.1538462,22.1538462 Z M8.30769231,23.5384615 C7.54299035,23.5384615 6.92307692,24.158375 6.92307692,24.9230769 C6.92307692,25.6877789 7.54299035,26.3076923 8.30769231,26.3076923 C9.07239427,26.3076923 9.69230769,25.6877789 9.69230769,24.9230769 C9.69230769,24.158375 9.07239427,23.5384615 8.30769231,23.5384615 Z M12.4615385,23.5384615 C11.6968365,23.5384615 11.0769231,24.158375 11.0769231,24.9230769 C11.0769231,25.6877789 11.6968365,26.3076923 12.4615385,26.3076923 C13.2262404,26.3076923 13.8461538,25.6877789 13.8461538,24.9230769 C13.8461538,24.158375 13.2262404,23.5384615 12.4615385,23.5384615 Z M16.6153846,23.5384615 C15.8506827,23.5384615 15.2307692,24.158375 15.2307692,24.9230769 C15.2307692,25.6877789 15.8506827,26.3076923 16.6153846,26.3076923 C17.3800866,26.3076923 18,25.6877789 18,24.9230769 C18,24.158375 17.3800866,23.5384615 16.6153846,23.5384615 Z" id="Shape"></path>
        </g>
    </g>
</svg>