<svg id="Icon_Disabled" data-name="Icon — Disabled" xmlns="http://www.w3.org/2000/svg" width="24" height="24" viewBox="0 0 24 24">
  <rect id="Rectangle_1107" data-name="Rectangle 1107" width="24" height="24" fill="#333" opacity="0"/>
  <path id="Path_3474" data-name="Path 3474" d="M13.5,4A9.5,9.5,0,1,1,4,13.5,9.511,9.511,0,0,1,13.5,4m0-1A10.5,10.5,0,1,0,24,13.5,10.5,10.5,0,0,0,13.5,3Z" transform="translate(-1.5 -1.5)" fill="#333"/>
  <path id="Path_3475" data-name="Path 3475" d="M10,24a.5.5,0,0,1-.353-.854l13.5-13.5a.5.5,0,0,1,.707.707l-13.5,13.5A.5.5,0,0,1,10,24Z" transform="translate(-4.75 -4.75)" fill="#333"/>
</svg>
