<?xml version="1.0" encoding="UTF-8"?>
<svg width="36px" height="36px" viewBox="0 0 36 36" version="1.1" xmlns="http://www.w3.org/2000/svg" xmlns:xlink="http://www.w3.org/1999/xlink">
    <!-- Generator: Sketch 46.2 (44496) - http://www.bohemiancoding.com/sketch -->
    <title>icon/address</title>
    <desc>Created with Sketch.</desc>
    <defs>
        <path d="M17.9999932,0 C22.4654789,0 26.1150497,3.71025875 26.1150497,8.25 C26.1150497,9.61409625 25.6112129,11.0102437 24.944818,12.5522512 C24.5805061,13.3952362 24.1534242,14.2621325 23.7032549,15.125 L31.2054623,15.125 L36,33 L0,33 L4.79454037,15.125 L12.296741,15.125 C11.8465785,14.2621325 11.4194885,13.3952362 11.0551793,12.5522512 C10.3887871,11.0102437 9.88494217,9.61409625 9.88494217,8.25 C9.88494217,3.71025875 13.5345211,0 17.9999932,0 Z M17.9999932,2.75 C14.9969219,2.75 12.589961,5.19699125 12.589961,8.25 C12.589961,8.78409125 12.9314345,10.0537662 13.5330198,11.4458025 C14.1346025,12.8378387 14.9593627,14.4042387 15.788965,15.85815 C16.8928696,17.79283 17.383019,18.4813612 17.9999932,19.4245604 C18.6169675,18.4813612 19.1071169,17.79283 20.211035,15.85815 C21.0406237,14.4042387 21.8653975,12.8378387 22.4669802,11.4458025 C23.0685628,10.0537662 23.4100309,8.78409125 23.4100309,8.25 C23.4100309,5.19699125 21.0030781,2.75 17.9999932,2.75 Z M17.9999932,6.1875 C19.1204526,6.1875 20.0287574,7.11090875 20.0287574,8.25 C20.0287574,9.38909125 19.1204526,10.3125 17.9999932,10.3125 C16.8795474,10.3125 15.9712291,9.38909125 15.9712291,8.25 C15.9712291,7.11090875 16.8795474,6.1875 17.9999932,6.1875 Z M6.86028751,17.875 L3.5397714,30.25 L32.4602259,30.25 L29.1397071,17.875 L22.1763935,17.875 C20.5917123,20.5905164 19.1121212,22.7814936 19.1121212,22.7814936 L17.9999932,24.4196783 L16.8878788,22.7814936 C16.8878788,22.7814936 15.4082741,20.5905164 13.8235929,17.875 L6.86028751,17.875 Z" id="path-1"></path>
    </defs>
    <g id="Symbols" stroke="none" stroke-width="1" fill="none" fill-rule="evenodd">
        <g id="icon/address">
            <g id="Page-1" transform="translate(0.000000, 1.000000)">
                <mask id="mask-2" fill="white">
                    <use xlink:href="#path-1"></use>
                </mask>
                <g id="Clip-2"></g>
                <polygon id="Fill-1" fill="#000000" mask="url(#mask-2)" points="-7 39 43 39 43 -7 -7 -7"></polygon>
            </g>
        </g>
    </g>
</svg>