<?xml version="1.0" encoding="UTF-8"?>
<svg width="36px" height="36px" viewBox="0 0 36 36" version="1.1" xmlns="http://www.w3.org/2000/svg" xmlns:xlink="http://www.w3.org/1999/xlink">
    <!-- Generator: Sketch 46.2 (44496) - http://www.bohemiancoding.com/sketch -->
    <title>icon/address copy 3</title>
    <desc>Created with Sketch.</desc>
    <defs>
        <path d="M9.99999249,0 C14.9616432,0 19.0167219,4.17404109 19.0167219,9.28125 C19.0167219,10.8158583 18.4569032,12.3865242 17.7164644,14.1212827 C17.3116734,15.0696408 16.837138,16.0448991 16.3369499,17.015625 L10,27 L3.66304557,17.015625 C3.16286505,16.0448991 2.68832059,15.0696408 2.28353256,14.1212827 C1.54309677,12.3865242 0.983269083,10.8158583 0.983269083,9.28125 C0.983269083,4.17404109 5.03835679,0 9.99999249,0 Z M9.99999249,3.09375 C6.66324657,3.09375 3.98884555,5.84661516 3.98884555,9.28125 C3.98884555,9.88210266 4.36826051,11.310487 5.0366887,12.8765278 C5.70511388,14.4425686 6.62151414,16.2047686 7.54329439,17.8404187 C8.76985512,20.0169337 9.31446558,20.7915314 9.99999249,21.8526304 C10.6855194,20.7915314 11.2301299,20.0169337 12.4567056,17.8404187 C13.3784708,16.2047686 14.2948861,14.4425686 14.9633113,12.8765278 C15.6317365,11.310487 16.0111454,9.88210266 16.0111454,9.28125 C16.0111454,5.84661516 13.3367534,3.09375 9.99999249,3.09375 Z M9.99999249,6.9609375 C11.2449473,6.9609375 12.2541748,7.99977234 12.2541748,9.28125 C12.2541748,10.5627277 11.2449473,11.6015625 9.99999249,11.6015625 C8.75505266,11.6015625 7.74581013,10.5627277 7.74581013,9.28125 C7.74581013,7.99977234 8.75505266,6.9609375 9.99999249,6.9609375 Z" id="path-1"></path>
    </defs>
    <g id="Symbols" stroke="none" stroke-width="1" fill="none" fill-rule="evenodd">
        <g id="icon/address-copy-3">
            <ellipse id="Oval-4" stroke="#009ADE" stroke-width="3" fill="#FFFFFF" cx="18" cy="29" rx="14" ry="5"></ellipse>
            <g id="Page-1" transform="translate(8.000000, 2.000000)">
                <mask id="mask-2" fill="white">
                    <use xlink:href="#path-1"></use>
                </mask>
                <use id="Clip-2" fill="#FFFFFF" xlink:href="#path-1"></use>
                <polygon id="Fill-1" fill="#009ADE" mask="url(#mask-2)" points="-17.7777778 45 37.7777778 45 37.7777778 -6.75 -17.7777778 -6.75"></polygon>
            </g>
        </g>
    </g>
</svg>