<svg xmlns="http://www.w3.org/2000/svg" width="23" height="22" viewBox="0 0 23 22">
    <g fill="#009BDF" fill-rule="evenodd">
        <path d="M6.423 9h9.968V7H6.423zM6.423 12h9.968v-2H6.423zM6.423 15h7.975v-2H6.423zM6.534 19.556H2.879v-3.667H.442v4.278A1.83 1.83 0 0 0 2.27 22h4.264v-2.444zM19.936 15.889v3.667H16.28V22h4.264a1.83 1.83 0 0 0 1.827-1.833v-4.278h-2.436zM6.534 0H2.27A1.83 1.83 0 0 0 .442 1.833v4.278H2.88V2.444h3.655V0zM20.545 0H16.28v2.444h3.655v3.667h2.436V1.833A1.83 1.83 0 0 0 20.545 0"/>
    </g>
</svg>
