<svg xmlns="http://www.w3.org/2000/svg" xmlns:xlink="http://www.w3.org/1999/xlink" width="68" height="51" viewBox="0 0 68 51">
    <defs>
        <path id="a" d="M.144.818h1.591v9.561H.145z"/>
        <path id="c" d="M0 39h42V.018H0z"/>
        <path id="e" d="M0 0h15.36v14.89H0z"/>
    </defs>
    <g fill="none" fill-rule="evenodd">
        <g stroke="#000" stroke-width="2">
            <path d="M58.12 29.828h9.627M.352 29.828H9.98M58.96 44.979l8.337 4.846"/>
        </g>
        <path stroke="#000" stroke-width="2" d="M9 7l7 7"/>
        <g transform="translate(32.818)">
            <mask id="b" fill="#fff">
                <use xlink:href="#a"/>
            </mask>
            <path stroke="#000" stroke-width="2" d="M.94.817v9.562" mask="url(#b)"/>
        </g>
        <path stroke="#000" stroke-width="2" d="M9.062 44.838L.795 49.62M59 7l-7 7"/>
        <g transform="translate(13 11.982)">
            <path fill="#000" d="M39 7H3a3 3 0 0 0-3 3v5a3 3 0 0 0 3 3h36a3 3 0 0 0 3-3v-5a3 3 0 0 0-3-3zM3 15h36v-5H3v5z"/>
            <path fill="#000" d="M39 15H3v21a3 3 0 0 0 3 3h30a3 3 0 0 0 3-3V15zM6 36h30V18H6v18z"/>
            <mask id="d" fill="#fff">
                <use xlink:href="#c"/>
            </mask>
            <path fill="#000" d="M20 16h3v-3h-3zM27.982.018c-3.045 0-5.145 2.31-6.51 4.252L21 5.058l-.473-.788C19.162 2.328 17.062.018 14.017.018c-2.888 0-5.25 2.362-5.25 5.25 0 2.857 3.201 4.732 3.201 4.732h18.063s3.201-1.875 3.201-4.732c0-2.888-2.362-5.25-5.25-5.25m-13.965 3c1.32 0 2.592.919 3.995 2.892l.17.282.245.409.24.399H12.93c-.536-.46-1.162-1.161-1.162-1.732a2.252 2.252 0 0 1 2.25-2.25m13.965 0a2.252 2.252 0 0 1 2.25 2.25c0 .567-.606 1.26-1.16 1.732h-5.739l.24-.4.244-.408.17-.282c1.403-1.973 2.675-2.892 3.995-2.892" mask="url(#d)"/>
        </g>
        <g transform="translate(27 31)">
            <mask id="f" fill="#fff">
                <use xlink:href="#e"/>
            </mask>
            <path fill="#000" d="M12.98 11.29c0-.333-.029-.611-.085-.835a1.528 1.528 0 0 0-.234-.535.818.818 0 0 0-.356-.28 1.216 1.216 0 0 0-.444-.08c-.16 0-.308.027-.442.08a.75.75 0 0 0-.338.28 1.548 1.548 0 0 0-.22.535c-.055.224-.08.502-.08.835 0 .32.025.587.08.8.053.214.125.384.22.51a.773.773 0 0 0 .338.27c.134.054.281.08.441.08.16 0 .309-.026.445-.08a.847.847 0 0 0 .356-.27c.098-.126.177-.296.234-.51.056-.213.085-.48.085-.8zm2.38 0a3.607 3.607 0 0 1-1.061 2.604 3.36 3.36 0 0 1-1.114.736c-.424.174-.865.26-1.325.26-.506 0-.971-.086-1.396-.26a3.215 3.215 0 0 1-1.098-.736 3.342 3.342 0 0 1-.726-1.139 4.001 4.001 0 0 1-.26-1.465c0-.554.086-1.055.26-1.505.173-.45.415-.835.726-1.155.309-.32.677-.569 1.098-.745a3.587 3.587 0 0 1 1.396-.265c.507 0 .975.088 1.405.265.43.176.8.425 1.11.745.31.32.552.705.725 1.155.174.45.26.951.26 1.505zM4.6 3.67c0-.34-.028-.621-.085-.845a1.518 1.518 0 0 0-.234-.535.81.81 0 0 0-.356-.28 1.216 1.216 0 0 0-.444-.08c-.16 0-.308.027-.44.08a.74.74 0 0 0-.34.28 1.556 1.556 0 0 0-.22.535 3.69 3.69 0 0 0-.08.845c0 .32.026.587.08.8.053.214.126.383.22.509a.772.772 0 0 0 .34.271c.131.054.28.08.44.08.159 0 .308-.026.444-.08a.85.85 0 0 0 .356-.271c.099-.126.178-.295.234-.509.057-.213.085-.48.085-.8zM11.56.6c.1-.114.223-.218.37-.315.146-.097.35-.145.61-.145h2.26L3.82 14.269a1.253 1.253 0 0 1-.374.316 1.114 1.114 0 0 1-.546.125H.58L11.56.6zM6.98 3.67c0 .533-.098 1.02-.29 1.46-.194.44-.45.818-.77 1.135-.32.317-.691.562-1.115.735-.423.174-.864.26-1.324.26-.507 0-.974-.086-1.397-.26a3.217 3.217 0 0 1-1.099-.735A3.364 3.364 0 0 1 .26 5.13 3.96 3.96 0 0 1 0 3.67c0-.554.086-1.055.26-1.505.173-.45.414-.835.726-1.155.308-.32.675-.569 1.098-.745A3.602 3.602 0 0 1 3.481 0c.506 0 .974.089 1.404.265.43.176.8.425 1.11.745.31.32.551.705.724 1.155.175.45.261.951.261 1.505z" mask="url(#f)"/>
        </g>
    </g>
</svg>
