<?xml version="1.0" encoding="UTF-8"?>
<svg width="48px" height="48px" viewBox="0 0 48 48" version="1.1" xmlns="http://www.w3.org/2000/svg" xmlns:xlink="http://www.w3.org/1999/xlink">
    <!-- Generator: Sketch 46.2 (44496) - http://www.bohemiancoding.com/sketch -->
    <title>icon/add to compare</title>
    <desc>Created with Sketch.</desc>
    <defs></defs>
    <g id="Symbols" stroke="none" stroke-width="1" fill="none" fill-rule="evenodd">
        <g id="icon/add-to-compare" fill-rule="nonzero" fill="#009ADE">
            <path d="M24,0 C10.7668265,0 0,10.7668265 0,24 C0,37.2331735 10.7668265,48 24,48 C37.2331735,48 48,37.2331735 48,24 C48,10.7668265 37.2331735,0 24,0 Z M24,3.6 C35.2866487,3.6 44.4,12.7133532 44.4,24 C44.4,35.2866487 35.2866487,44.4 24,44.4 C12.7133532,44.4 3.6,35.2866487 3.6,24 C3.6,12.7133532 12.7133532,3.6 24,3.6 Z M22.44,15 L22.44,22.44 L15,22.44 L15,26.16 L22.44,26.16 L22.44,33.6 L26.16,33.6 L26.16,26.16 L33.6,26.16 L33.6,22.44 L26.16,22.44 L26.16,15 L22.44,15 Z" id="Shape"></path>
        </g>
    </g>
</svg>