<svg xmlns="http://www.w3.org/2000/svg" xmlns:xlink="http://www.w3.org/1999/xlink" width="46" height="46" viewBox="0 0 46 46">
    <defs>
        <path id="a" d="M9.5 14.5c0-1.379 1.121-2.5 2.5-2.5s2.5 1.121 2.5 2.5S13.379 17 12 17a2.503 2.503 0 0 1-2.5-2.5m5.01 3.112a4 4 0 1 0-5.021 0A5.503 5.503 0 0 0 6.5 22.5H8c0-2.206 1.794-4 4-4s4 1.794 4 4h1.5a5.503 5.503 0 0 0-2.99-4.888M7.126 3.5a2.318 2.318 0 0 1 2.316 2.315A2.318 2.318 0 0 1 7.125 8.13a2.318 2.318 0 0 1-2.316-2.315A2.318 2.318 0 0 1 7.125 3.5m-.6 11.37H3.75A.75.75 0 0 1 3 14.12v-.083c0-2.263 1.69-4.144 3.848-4.283a4.111 4.111 0 0 1 1.784.274 5.472 5.472 0 0 1 1.579-.855 5.559 5.559 0 0 0-.694-.387 3.815 3.815 0 1 0-4.778.004C2.821 9.716 1.5 11.729 1.5 14.036v.084c0 1.24 1.01 2.25 2.25 2.25H6.88a5.47 5.47 0 0 1-.356-1.5M16.875 3.5a2.318 2.318 0 0 1 2.316 2.315 2.318 2.318 0 0 1-2.316 2.315 2.318 2.318 0 0 1-2.316-2.315A2.318 2.318 0 0 1 16.875 3.5m2.386 5.29a3.805 3.805 0 0 0 1.43-2.975 3.815 3.815 0 1 0-6.21 2.969 5.699 5.699 0 0 0-.694.388c.578.2 1.111.49 1.584.858a4.104 4.104 0 0 1 1.78-.276c2.159.14 3.849 2.02 3.849 4.283v.083a.75.75 0 0 1-.75.75h-2.776a5.47 5.47 0 0 1-.355 1.5h3.131c1.24 0 2.25-1.01 2.25-2.25v-.083c0-2.308-1.322-4.32-3.239-5.248"/>
    </defs>
    <g fill="none" fill-rule="evenodd" transform="translate(1 1)">
        <circle cx="22" cy="22" r="22" stroke="#000" stroke-width="2"/>
        <g transform="translate(10 10)">
            <mask id="b" fill="#fff">
                <use xlink:href="#a"/>
            </mask>
            <use fill="#000" xlink:href="#a"/>
            <g fill="#000" mask="url(#b)">
                <path d="M0 0h24v24H0z"/>
            </g>
        </g>
    </g>
</svg>
