<svg xmlns="http://www.w3.org/2000/svg" width="48" height="48" viewBox="0 0 48 48">
    <path fill="#009ADE" fill-rule="nonzero" d="M24 0C10.766 0 0 10.766 0 24s10.766 24 24 24 24-10.766 24-24S37.234 0 24 0zm0 4c11.07 0 20 8.93 20 20s-8.93 20-20 20S4 35.07 4 24 12.93 4 24 4zm-9 12a3 3 0 1 0 .002 6.002A3 3 0 0 0 15 16zm18 0a3 3 0 1 0 .002 6.002A3 3 0 0 0 33 16zM13.625 30l-3.438 2c2.766 4.773 7.907 8 13.813 8 5.906 0 11.047-3.227 13.813-8l-3.438-2c-2.078 3.586-5.922 6-10.375 6s-8.297-2.414-10.375-6z"/>
</svg>
