<svg xmlns="http://www.w3.org/2000/svg" xmlns:xlink="http://www.w3.org/1999/xlink" width="46" height="46" viewBox="0 0 46 46">
    <defs>
        <path id="a" d="M2.561 10.448c.33 0 .57-.079.723-.238.153-.158.23-.375.23-.65 0-.127-.02-.241-.058-.345a.688.688 0 0 0-.175-.266.788.788 0 0 0-.296-.17c-.12-.04-.26-.06-.424-.06h-.665v1.73h.665zm0-2.527c.348 0 .648.041.901.123.254.082.462.195.625.341.164.146.284.32.362.52.079.2.118.419.118.655 0 .25-.041.478-.123.685a1.402 1.402 0 0 1-.37.536c-.166.15-.375.265-.627.348a2.841 2.841 0 0 1-.886.125h-.665V13H.846V7.921h1.715zm5.688 4.225V13H5.235V7.921h1.05v4.225H8.25zm3.321-1.075l-.55-1.553a4.992 4.992 0 0 1-.206-.645 5.368 5.368 0 0 1-.206.652l-.546 1.546h1.508zM13.334 13h-.815a.359.359 0 0 1-.223-.065.392.392 0 0 1-.127-.166l-.343-.97H9.803l-.343.97a.4.4 0 0 1-.123.16.336.336 0 0 1-.22.071h-.823l1.985-5.079h1.074L13.334 13zM6.555 2.523A8.557 8.557 0 0 0 2.278 6H0c1.687-3.544 5.29-6 9.476-6 4.186 0 7.79 2.456 9.476 6h-2.278a8.556 8.556 0 0 0-4.277-3.477c.477.955.867 2.138 1.14 3.477h-1.531c-.426-1.896-1.077-3.252-1.681-3.953A8.49 8.49 0 0 0 9.476 2c-.287 0-.57.019-.848.047-.604.7-1.256 2.057-1.682 3.953h-1.53c.272-1.34.663-2.522 1.139-3.477zm5.842 15.954A8.557 8.557 0 0 0 16.674 15h2.278c-1.687 3.544-5.29 6-9.476 6C5.29 21 1.686 18.544 0 15h2.278a8.556 8.556 0 0 0 4.277 3.477c-.477-.955-.867-2.138-1.14-3.477h1.531c.426 1.896 1.077 3.252 1.681 3.953.28.028.562.047.849.047.287 0 .57-.019.848-.047.604-.7 1.256-2.057 1.682-3.953h1.53c-.272 1.34-.663 2.522-1.14 3.477zM18.154 7.92V13h-.543a.476.476 0 0 1-.206-.04.5.5 0 0 1-.165-.139l-2.53-3.22a5.844 5.844 0 0 1 .02.462V13h-.927V7.921h.553c.045 0 .082.002.114.006.032.003.06.011.086.024.025.013.05.03.073.051a.714.714 0 0 1 .077.084l2.548 3.234a5.316 5.316 0 0 1-.028-.494V7.921h.928z"/>
    </defs>
    <g fill="none" fill-rule="evenodd" transform="translate(1 1)">
        <circle cx="22" cy="22" r="22" stroke="#000" stroke-width="2"/>
        <g transform="translate(12.5 11.5)">
            <mask id="b" fill="#fff">
                <use xlink:href="#a"/>
            </mask>
            <use fill="#000" xlink:href="#a"/>
            <g fill="#000" mask="url(#b)">
                <path d="M-2.5-1.5h24v24h-24z"/>
            </g>
        </g>
    </g>
</svg>
