<?xml version="1.0" encoding="UTF-8"?>
<svg width="36px" height="36px" viewBox="0 0 36 36" version="1.1" xmlns="http://www.w3.org/2000/svg" xmlns:xlink="http://www.w3.org/1999/xlink">
    <!-- Generator: Sketch 46.2 (44496) - http://www.bohemiancoding.com/sketch -->
    <title>icon/personal details</title>
    <desc>Created with Sketch.</desc>
    <defs>
        <path d="M1.52380952,0 L32,0 L32,36 L1.52380952,36 L1.52380952,28.5 L4.57142857,28.5 L4.57142857,33 L28.952381,33 L28.952381,3 L4.57142857,3 L4.57142857,10.5 L0,10.5 L0,7.5 L1.52380952,7.5 L1.52380952,0 Z M16.7619048,9 C20.1130971,9 22.8571429,11.70117 22.8571429,15 C22.8571429,16.66992 22.1309562,18.175785 21,19.265625 C23.02976,20.619135 24.3809524,22.927734 24.3809524,25.5 L21.3333333,25.5 C21.3333333,23.015625 19.2857143,21 16.7619048,21 C14.2380952,21 12.1904762,23.015625 12.1904762,25.5 L9.14285714,25.5 C9.14285714,22.927734 10.494048,20.619135 12.5238095,19.265625 C11.3928579,18.175785 10.6666667,16.66992 10.6666667,15 C10.6666667,11.70117 13.4107139,9 16.7619048,9 Z M1.52380952,12 L4.57142857,12 L4.57142857,18 L0,18 L0,15 L1.52380952,15 L1.52380952,12 Z M16.7619048,12 C15.0595246,12 13.7142857,13.324215 13.7142857,15 C13.7142857,16.675785 15.0595246,18 16.7619048,18 C18.4642895,18 19.8095238,16.675785 19.8095238,15 C19.8095238,13.324215 18.4642895,12 16.7619048,12 Z M1.52380952,19.5 L4.57142857,19.5 L4.57142857,25.5 L0,25.5 L0,22.5 L1.52380952,22.5 L1.52380952,19.5 Z" id="path-1"></path>
    </defs>
    <g id="Symbols" stroke="none" stroke-width="1" fill="none" fill-rule="evenodd">
        <g id="icon/personal-details">
            <g id="Page-1" transform="translate(2.000000, 0.000000)">
                <mask id="mask-2" fill="white">
                    <use xlink:href="#path-1"></use>
                </mask>
                <g id="Clip-2"></g>
                <polygon id="Fill-1" fill="#000000" mask="url(#mask-2)" points="-7 44 40 44 40 -7 -7 -7"></polygon>
            </g>
        </g>
    </g>
</svg>