<svg xmlns="http://www.w3.org/2000/svg" width="46" height="46" viewBox="0 0 46 46">
    <g fill="none" fill-rule="evenodd" transform="translate(1 1)">
        <circle cx="22" cy="22" r="22" stroke="#FFF" stroke-width="2"/>
        <path fill="#FFF" fill-rule="nonzero" d="M15.186 17.08c0-3.779 3.057-6.853 6.814-6.853s6.814 3.074 6.814 6.853c0 3.778-3.057 6.852-6.814 6.852s-6.814-3.074-6.814-6.852m10.176 7.337a8.082 8.082 0 0 0 4.672-7.337C30.034 12.617 26.437 9 22 9c-4.437 0-8.034 3.617-8.034 8.08a8.082 8.082 0 0 0 4.672 7.337A12.078 12.078 0 0 0 10 36h1.22c0-5.978 4.836-10.84 10.78-10.84 5.944 0 10.78 4.862 10.78 10.84H34c0-5.48-3.653-10.117-8.638-11.583"/>
    </g>
</svg>
