<svg xmlns="http://www.w3.org/2000/svg" xmlns:xlink="http://www.w3.org/1999/xlink" width="46" height="46" viewBox="0 0 46 46">
    <defs>
        <path id="a" d="M14.5 10.5c0-1.103.897-2 2-2s2 .897 2 2-.897 2-2 2-2-.897-2-2m-10-.5c0-1.379 1.122-2.5 2.5-2.5 1.379 0 2.5 1.121 2.5 2.5S8.379 12.5 7 12.5A2.503 2.503 0 0 1 4.5 10m14.901 3.249A3.983 3.983 0 0 0 20.5 10.5a4 4 0 0 0-8 0c0 1.066.42 2.031 1.098 2.748-.721.4-1.345.949-1.846 1.599a6.016 6.016 0 0 0-1.727-1.522A4.484 4.484 0 0 0 11.5 10a4.5 4.5 0 1 0-9 0c0 1.319.571 2.502 1.475 3.325A5.992 5.992 0 0 0 1 18.5h2c0-2.206 1.795-4 4-4 2.206 0 4 1.794 4 4h2a6 6 0 0 0-.2-1.514 4.004 4.004 0 0 1 3.7-2.486c2.206 0 4 1.794 4 4h2a5.997 5.997 0 0 0-3.099-5.251"/>
    </defs>
    <g fill="none" fill-rule="evenodd" transform="translate(1 1)">
        <circle cx="22" cy="22" r="22" stroke="#000" stroke-width="2"/>
        <g transform="translate(10 10)">
            <mask id="b" fill="#fff">
                <use xlink:href="#a"/>
            </mask>
            <use fill="#000" xlink:href="#a"/>
            <g fill="#000" mask="url(#b)">
                <path d="M0 0h24v24H0z"/>
            </g>
        </g>
    </g>
</svg>
