<?xml version="1.0" encoding="UTF-8"?>
<svg width="48px" height="48px" viewBox="0 0 48 48" version="1.1" xmlns="http://www.w3.org/2000/svg" xmlns:xlink="http://www.w3.org/1999/xlink">
    <!-- Generator: Sketch 46.2 (44496) - http://www.bohemiancoding.com/sketch -->
    <title>icon/wishlist</title>
    <desc>Created with Sketch.</desc>
    <defs></defs>
    <g id="Symbols" stroke="none" stroke-width="1" fill="none" fill-rule="evenodd">
        <g id="icon/wishlist" fill-rule="nonzero" fill="#009ADE">
            <path d="M24,43.9038462 L23.0769231,43.3629803 C22.1322111,42.8221163 0,29.8269231 0,15.9230769 C0,8.79807692 5.79807692,3 12.9230769,3 C17.6177889,3 21.7355778,5.51682646 24,9.27403938 C26.264424,5.51682646 30.3822111,3 35.0769231,3 C42.2019231,3 48,8.79807692 48,15.9230769 C48,29.8269231 25.8677889,42.8221163 24.9230769,43.3629803 L24,43.9038462 Z M12.9230769,6.69230769 C7.83173169,6.69230769 3.69230769,10.8317317 3.69230769,15.9230769 C3.69230769,26.2716351 19.9110572,37.0528855 24,39.6057692 C28.0889428,37.0528855 44.3076923,26.2716351 44.3076923,15.9230769 C44.3076923,10.8317317 40.1682702,6.69230769 35.0769231,6.69230769 C29.9855778,6.69230769 25.8461538,10.8317317 25.8461538,15.9230769 L22.1538462,15.9230769 C22.1538462,10.8317317 18.014424,6.69230769 12.9230769,6.69230769 Z" id="Shape"></path>
        </g>
    </g>
</svg>