<?xml version="1.0" encoding="UTF-8"?>
<svg width="49px" height="47px" viewBox="0 0 49 47" version="1.1" xmlns="http://www.w3.org/2000/svg" xmlns:xlink="http://www.w3.org/1999/xlink">
    <!-- Generator: Sketch 46.2 (44496) - http://www.bohemiancoding.com/sketch -->
    <title>icons8-gift</title>
    <desc>Created with Sketch.</desc>
    <defs></defs>
    <g id="Mobile-Site" stroke="none" stroke-width="1" fill="none" fill-rule="evenodd">
        <g id="desktop_home" transform="translate(-854.000000, -1215.000000)" fill-rule="nonzero" fill="#B43581">
            <g id="Group" transform="translate(40.000000, 1215.000000)">
                <g id="icons8-gift" transform="translate(814.230469, 0.391249)">
                    <path d="M16,0 C12.710938,0 10,2.710938 10,6 C10,6.703126 10.148438,7.367188 10.375,8 L0,8 L0,20 L2,20 L2,46 L46,46 L46,20 L48,20 L48,8 L37.625,8 C37.851562,7.367188 38,6.703126 38,6 C38,2.710938 35.289062,0 32,0 C28.5,0 26.125,2.65625 24.5625,4.875 C24.351562,5.171876 24.1875,5.460938 24,5.75 C23.8125,5.460938 23.648438,5.171876 23.4375,4.875 C21.875,2.65625 19.5,0 16,0 Z M16,4 C17.25,4 18.875,5.34375 20.125,7.125 C20.429688,7.5625 20.382812,7.585938 20.625,8 L16,8 C14.867188,8 14,7.132812 14,6 C14,4.867188 14.867188,4 16,4 Z M32,4 C33.132812,4 34,4.867188 34,6 C34,7.132812 33.132812,8 32,8 L27.375,8 C27.617188,7.585938 27.570312,7.5625 27.875,7.125 C29.125,5.34375 30.75,4 32,4 Z M4,12 L44,12 L44,16 L26,16 L26,14 L22,14 L22,16 L4,16 L4,12 Z M6,20 L42,20 L42,42 L26,42 L26,22 L22,22 L22,42 L6,42 L6,20 Z" id="Shape"></path>
                </g>
            </g>
        </g>
    </g>
</svg>