<?xml version="1.0" encoding="UTF-8"?>
<svg width="45px" height="57px" viewBox="0 0 45 57" version="1.1" xmlns="http://www.w3.org/2000/svg" xmlns:xlink="http://www.w3.org/1999/xlink">
    <!-- Generator: Sketch 46.2 (44496) - http://www.bohemiancoding.com/sketch -->
    <title>Shape</title>
    <desc>Created with Sketch.</desc>
    <defs></defs>
    <g id="Mobile-Site" stroke="none" stroke-width="1" fill="none" fill-rule="evenodd">
        <g id="desktop_home" transform="translate(-129.000000, -1219.000000)" fill-rule="nonzero" fill="#FFFFFF">
            <g id="Group" transform="translate(40.000000, 1215.000000)">
                <path d="M129.371094,4.63476562 L103.371094,30.6347656 L111.371094,30.6347656 L101.371094,42.6347656 L107.371094,42.6347656 L95.3710938,60.6347656 L119.371094,36.6347656 L113.371094,36.6347656 L123.371094,24.6347656 L115.371094,24.6347656 L129.371094,4.63476562 Z M111.371094,10.6347656 C99.2382817,10.6347656 89.3710938,20.5019536 89.3710938,32.6347656 C89.3710938,39.6191416 92.6601558,45.8535156 97.7460938,49.8847656 L99.8710938,46.6347656 L99.8710938,46.4472656 C95.9101558,43.1425776 93.3710938,38.1816416 93.3710938,32.6347656 C93.3710938,22.7128916 101.441406,14.6347656 111.371094,14.6347656 C112.113282,14.6347656 112.839844,14.6738276 113.558594,14.7597656 L116.996094,11.3847656 C115.207032,10.9160156 113.308594,10.6347656 111.371094,10.6347656 Z M126.058594,16.3222656 L123.746094,19.6347656 C127.191406,22.9160156 129.371094,27.5175776 129.371094,32.6347656 C129.371094,42.5566416 121.300782,50.6347656 111.371094,50.6347656 C111.26172,50.6347656 111.16797,50.6347656 111.058594,50.6347656 L107.433594,54.2597656 C108.722656,54.4941416 110.01172,54.6347656 111.371094,54.6347656 C123.503906,54.6347656 133.371094,44.7675776 133.371094,32.6347656 C133.371094,26.1582036 130.527344,20.3535156 126.058594,16.3222656 Z" id="Shape"></path>
            </g>
        </g>
    </g>
</svg>