<?xml version="1.0" encoding="UTF-8"?>
<svg width="41px" height="56px" viewBox="0 0 41 56" version="1.1" xmlns="http://www.w3.org/2000/svg" xmlns:xlink="http://www.w3.org/1999/xlink">
    <!-- Generator: Sketch 46.2 (44496) - http://www.bohemiancoding.com/sketch -->
    <title>Shape</title>
    <desc>Created with Sketch.</desc>
    <defs></defs>
    <g id="Page-1" stroke="none" stroke-width="1" fill="none" fill-rule="evenodd">
        <g id="T_004_homeCareer" transform="translate(-536.000000, -1118.000000)" fill-rule="nonzero" fill="#FFFFFF">
            <g id="Section-4" transform="translate(1.000000, 903.000000)">
                <g id="icon-learn" transform="translate(561.666667, 269.000000) rotate(270.000000) translate(-561.666667, -269.000000) translate(507.666667, 204.000000)">
                    <path d="M70.8125,38.9375 C69.15625,38.90625 67.78125,39.25 66.9375,39.5 C66.914062,39.5 66.898438,39.5 66.875,39.5 L61.875,41.0625 C56.007812,42.867188 52,48.304688 52,54.4375 L52,65 C52,72.710938 58.289062,79 66,79 L85.8125,79 C88.25,79.054688 90.609376,77.625 91.5625,75.25 C92.164062,73.742188 92.078126,72.15625 91.5,70.75 C92.726562,70.101562 93.765626,69.054688 94.3125,67.6875 C94.9375,66.117188 94.835938,64.445312 94.1875,63 L102,63 C105.289062,63 108,60.289062 108,57 C108,53.710938 105.289062,51 102,51 L98.9375,51 L99.75,50.75 C102.898438,49.796876 104.703126,46.398438 103.75,43.25 C102.796876,40.101562 99.398438,38.296876 96.25,39.25 L79.375,44.4375 C79.226562,44.0625 79.054688,43.65625 78.8125,43.25 C77.8125,41.578126 75.789062,39.6875 72.5625,39.125 C71.960938,39.023438 71.367188,38.945312 70.8125,38.9375 Z M98.25,43 C99.03125,43.085938 99.695312,43.625 99.9375,44.4375 C100.265626,45.515626 99.640626,46.609376 98.5625,46.9375 L84.875,51.0625 L85.5625,53.3125 L85.5625,55 L102,55 C103.132812,55 104,55.867188 104,57 C104,58.132812 103.132812,59 102,59 L88.8125,59 L83.5625,56.9375 C82.804688,56.632812 82.023438,56.484376 81.25,56.5 L80.1875,48.3125 L97.4375,43.0625 C97.710938,42.976562 97.992188,42.96875 98.25,43 Z M70.75,43.0625 C71.132812,43.0625 71.53125,43.0625 71.875,43.125 C74.023438,43.5 74.851562,44.4375 75.375,45.3125 C75.898438,46.1875 75.9375,46.8125 75.9375,46.8125 C75.9375,46.851562 75.9375,46.898438 75.9375,46.9375 L77.625,59.8125 C77.640626,59.875 77.664062,59.9375 77.6875,60 C77.9375,61.054688 77.304688,62.0625 76.25,62.3125 C75.601562,62.46875 75.273438,62.382812 74.9375,62.1875 C74.601562,61.992188 74.1875,61.578126 73.875,60.6875 L71.375,51 C71.21875,50.40625 70.796876,49.921876 70.242188,49.679688 C69.679688,49.4375 69.039062,49.460938 68.5,49.75 L65.1875,51.5625 C64.21875,52.09375 63.867188,53.3125 64.40625,54.28125 C64.9375,55.25 66.15625,55.601562 67.125,55.0625 L68.125,54.5 L70.0625,61.875 C70.078126,61.9375 70.101562,62 70.125,62.0625 C70.664062,63.609376 71.585938,64.851562 72.875,65.625 C73.929688,66.257812 75.15625,66.5 76.375,66.375 C75.742188,66.960938 75.21875,67.710938 74.875,68.5625 C73.960938,70.851562 74.539062,73.367188 76.1875,75 L66,75 C60.453126,75 56,70.546876 56,65 L56,54.4375 C56,50.039062 58.859376,46.171876 63.0625,44.875 L68.0625,43.375 C68.46875,43.25 69.609376,43.0625 70.75,43.0625 Z M81.625,60.5625 C81.773438,60.585938 81.914062,60.5625 82.0625,60.625 L89.5,63.625 C90.546876,64.046876 91.046876,65.140626 90.625,66.1875 C90.203126,67.234376 89.046876,67.734376 88,67.3125 L80.5625,64.375 C80.453126,64.335938 80.40625,64.242188 80.3125,64.1875 C81.101562,63.171876 81.609376,61.890626 81.625,60.5625 Z M80.375,68.8125 C80.640626,68.8125 80.921876,68.835938 81.1875,68.9375 L83.875,70 L86.5,71.0625 L86.75,71.125 C87.796876,71.546876 88.296876,72.703126 87.875,73.75 C87.570312,74.515626 86.890626,74.960938 86.125,75 C86.101562,75 86.085938,75 86.0625,75 C85.796876,75.007812 85.515626,74.976562 85.25,74.875 L79.6875,72.625 C78.640626,72.203126 78.140626,71.046876 78.5625,70 C78.773438,69.476562 79.15625,69.140626 79.625,68.9375 C79.859376,68.835938 80.109376,68.8125 80.375,68.8125 Z" id="Shape"></path>
                </g>
            </g>
        </g>
    </g>
</svg>